<?xml version="1.0" standalone="no"?>
<!DOCTYPE svg PUBLIC "-//W3C//DTD SVG 1.1//EN" "http://www.w3.org/Graphics/SVG/1.1/DTD/svg11.dtd" >
<svg xmlns="http://www.w3.org/2000/svg">
<metadata>icon font for a2v10</metadata>
<defs>
  <font id="A2v10" horiz-adv-x="1024">
    <font-face font-family="A2v10"
      units-per-em="1024" ascent="878"
      descent="146" />
    <missing-glyph horiz-adv-x="0" />
    <glyph glyph-name="arrow-up"
      unicode="&#xE900;"
      horiz-adv-x="1024" d="M971.62 418.38L557.253 832.747L512 878L466.746 832.746L52.381 418.381L97.635 373.125L480 755.492V-146H544V755.492L926.365 373.125z" />
    <glyph glyph-name="arrow-left"
      unicode="&#xE901;"
      horiz-adv-x="1024" d="M459.62 825.62L45.253 411.253L0 366L45.254 320.746L459.619 -93.619L504.875 -48.365L122.508 334H1024V398H122.508L504.875 780.365L459.619 825.62z" />
    <glyph glyph-name="arrow-down"
      unicode="&#xE902;"
      horiz-adv-x="1024" d="M971.62 313.62L557.253 -100.747L512 -146L466.746 -100.746L52.381 313.619L97.635 358.875L480 -23.492V878H544V-23.492L926.365 358.875z" />
    <glyph glyph-name="arrow-right"
      unicode="&#xE903;"
      horiz-adv-x="1024" d="M564.38 825.62L978.746 411.254L1024 366L978.746 320.746L564.381 -93.619L519.125 -48.365L901.492 334H0V398H901.492L519.125 780.365z" />
    <glyph glyph-name="import"
      unicode="&#xE904;"
      horiz-adv-x="1024" d="M480 878V104.508L195.217 389.293L149.961 344.039L466.746 27.254L512 -18L557.254 27.254L874.039 344.039L828.783 389.293L544 104.508V878H480zM0 238V-146H1024V238H960V-82H64V238H0z" />
    <glyph glyph-name="export"
      unicode="&#xE905;"
      horiz-adv-x="1024" d="M512 878L466.746 832.746L149.961 515.961L195.217 470.707L480 755.492V-18H544V755.492L828.783 470.707L874.039 515.961L557.254 832.746L512 878zM0 238V-146H1024V238H960V-82H64V238H0z" />
    <glyph glyph-name="arrow-left-right"
      unicode="&#xE906;"
      horiz-adv-x="1024" d="M780.639 857.383L455.369 532.113C563.79 423.688 672.216 315.267 780.639 206.843L826.496 252.703L579.084 500.113H1026.82V564.113H579.086L826.496 811.523L780.639 857.383zM253.596 525.406L207.738 479.546L455.75 231.536H-0.863V167.536H454.547L207.135 -79.878L252.995 -125.738L578.865 200.136L253.595 525.406z" />
    <glyph glyph-name="arrow-export"
      unicode="&#xE908;"
      horiz-adv-x="1024" d="M708.157 868.798V804.798C835.239 806.728 942.293 695.57 956.273 572.939C977.377 444.176 900.133 300.434 770.669 265.415C712.841 250.891 652.889 259.619 593.554 257.239H122.83L407.616 542.024L362.36 587.278C241.68 466.6 121.002 345.918 0.32 225.241L362.36 -136.798L407.616 -91.544L122.832 193.24C325.94 193.65 530.093 192.421 732.526 193.855C887.246 204.545 1010.442 345.492 1021.574 496.551C1039.868 654.134 937.232 822.318 779.621 860.059C756.276 865.882 732.215 868.806 708.157 868.799z" />
    <glyph glyph-name="arrow-open"
      unicode="&#xE909;"
      horiz-adv-x="1024" d="M315.843 -136.798V-72.798C188.761 -74.728 81.707 36.43 67.727 159.061C46.623 287.824 123.867 431.566 253.331 466.585C311.159 481.109 371.111 472.381 430.446 474.761H901.17L616.384 189.976L661.64 144.722C782.32 265.4 902.998 386.082 1023.68 506.759L661.64 868.798L616.384 823.544L901.168 538.76C698.06 538.35 493.907 539.579 291.474 538.145C136.754 527.456 13.558 386.509 2.425 235.45C-15.868 77.867 86.768 -90.318 244.378 -128.058C267.723 -133.881 291.784 -136.805 315.843 -136.798z" />
    <glyph glyph-name="arrow-sort"
      unicode="&#xE90A;"
      horiz-adv-x="1024" d="M271.53 876.254L0 604.724L45.254 559.471L240.784 755V-144.255H304.784V752.49L497.803 559.47L543.059 604.725L271.529 876.254zM721.727 876.254V-23L526.197 172.53L480.941 127.275L752.471 -144.254L1024 127.276L978.746 172.529L785.726 -20.491V876.255H721.726z" />
    <glyph glyph-name="switch"
      unicode="&#xE90D;"
      horiz-adv-x="1024" d="M760.39 810.732L715.137 765.477L895.469 585.145H368.637V521.145H894.437L715.137 341.845L760.391 296.59L1017.463 553.66L760.39 810.732zM263.939 438.035L6.865 180.963L263.937 -76.107L309.191 -30.852L129.891 148.448H655.691V212.448H128.86L309.192 392.779L263.939 438.035z" />
    <glyph glyph-name="requery"
      unicode="&#xE90E;"
      horiz-adv-x="1024" d="M78.766 874.727V810.727H309.404C157.934 736.683 50.46 592.844 27.54 423.842C0.038 221.066 99.781 21.829 279.652 -80.984L311.412 -25.42C153.556 64.81 66.97 238.37 90.957 415.24C112.677 575.395 221.34 709.954 372.777 768.687V522.852H436.777V874.727H78.766zM744.89 815.086L713.13 759.521C870.986 669.291 957.57 495.732 933.583 318.861C911.863 158.706 803.202 24.146 651.765 -34.588V211.25H587.765V-140.627H945.776V-76.627H715.133C866.605 -2.584 974.083 141.256 997.003 310.26C1024.505 513.035 924.762 712.272 744.891 815.086z" />
    <glyph glyph-name="download"
      unicode="&#xE90F;"
      horiz-adv-x="1024" d="M480 878V104.508L195.217 389.293L149.961 344.039L512 -18L874.04 344.04L828.783 389.293L544 104.508V878H480zM149.96 -82V-146H874.04V-82H149.96z" />
    <glyph glyph-name="upload"
      unicode="&#xE910;"
      horiz-adv-x="1024" d="M480 -146V627.492L195.217 342.707L149.961 387.961L512 750L874.04 387.96L828.783 342.707L544 627.492V-146H480zM149.96 814V878H874.04V814H149.96z" />
    <glyph glyph-name="brand-excel"
      unicode="&#xE913;"
      horiz-adv-x="1024" d="M608 876.197L0 757.385V-42.357L608 -144.197V-19.898H1024V751.898H608V876.198zM544 798.48V-68.583L64 11.814V704.682C224 735.947 384 767.212 544 798.479zM608 687.9H960V44.103H608V118.476H687.457V166.476H608V267.492H687.457V315.492H608V416.508H687.457V464.508H608V565.525H687.457V613.525H608V687.898zM735.729 613.526V565.526H895.729V613.526H735.729zM121.492 556.917L251.66 367.084L121.492 177.254H223.457L302.645 292.734L381.83 177.254H483.797L353.627 367.086L483.797 556.916H381.83L302.645 441.436L223.457 556.916H121.492zM735.729 464.509V416.509H895.729V464.509H735.729zM735.729 315.493V267.493H895.729V315.493H735.729zM735.729 166.476V118.476H895.729V166.476H735.729z" />
    <glyph glyph-name="currency-uah"
      unicode="&#xE91A;"
      horiz-adv-x="1024" d="M512 878C376.221 878 245.97 824.049 149.96 728.04C53.952 632.03 0 501.778 0 366C0 230.221 53.951 99.97 149.96 3.96C245.97 -92.048 376.222 -146 512 -146C647.779 -146 778.03 -92.049 874.04 3.96C970.048 99.97 1024 230.222 1024 366C1024 501.779 970.049 632.03 874.04 728.04C778.03 824.048 647.778 878 512 878zM512 814.002A447.96 447.96 0 0 0 828.785 682.785A447.96 447.96 0 0 0 960.002 366A447.96 447.96 0 0 0 828.785 49.215A447.96 447.96 0 0 0 512 -82.002A447.96 447.96 0 0 0 195.215 49.215A447.96 447.96 0 0 0 63.998 366A447.96 447.96 0 0 0 195.215 682.785A447.96 447.96 0 0 0 512 814.002zM478.303 711.229C405.59 711.229 352.598 703.307 319.328 687.467V599.414C362.888 626.747 418.795 640.412 487.048 640.412C505.913 640.412 524.777 638.549 543.641 634.822C562.505 631.406 579.311 625.66 594.059 617.584C608.807 609.508 620.812 599.104 630.072 586.369C639.332 573.635 643.962 558.104 643.962 539.779C643.962 522.696 640.361 507.943 633.158 495.519C628.013 486.202 621.155 477.659 612.58 469.895H283.314V420.043H528.205L483.961 400.01C457.551 388.207 432.514 375.783 408.848 362.738A543.03 543.03 0 0 1 385.695 349.228H283.315V299.377H326.531C317.614 289.127 310.068 278.256 303.895 266.764C293.605 247.507 288.461 225.455 288.461 200.607C288.461 167.684 295.491 139.73 309.553 116.747C323.958 94.073 343.167 75.592 367.176 61.305C391.528 47.017 419.481 36.767 451.036 30.555C482.59 24.032 515.859 20.771 550.844 20.771C562.505 20.771 576.909 21.703 594.059 23.566C611.208 25.119 628.7 27.605 646.535 31.021C664.37 34.127 681.178 38.009 696.955 42.668C713.075 47.638 725.935 53.073 735.539 58.975V151.223C723.878 141.905 709.817 133.519 693.354 126.064C677.234 118.61 660.082 112.243 641.904 106.963A463.607 463.607 0 0 0 587.884 95.314C569.707 92.519 552.901 91.121 537.467 91.121C484.304 91.121 444.517 99.974 418.107 117.678C392.041 135.692 379.007 161.471 379.007 195.016C379.007 213.03 383.295 228.716 391.869 242.072C400.787 255.428 412.964 267.542 428.399 278.412C438.345 285.556 449.49 292.544 461.838 299.377H740.686V349.229H566.79C586.683 358.857 605.549 368.485 623.384 378.113C645.678 390.227 665.055 403.582 681.519 418.18L683.577 420.043H740.685V469.895H721.134C730.051 487.909 734.511 508.875 734.511 532.791C734.511 563.229 727.136 589.629 712.388 611.992C697.639 634.666 678.26 653.302 654.251 667.9C630.242 682.498 602.803 693.368 571.935 700.512C541.409 707.655 510.199 711.229 478.302 711.229z" />
    <glyph glyph-name="currency-usd"
      unicode="&#xE91B;"
      horiz-adv-x="1024" d="M512 878C376.221 878 245.97 824.049 149.96 728.04C53.952 632.03 0 501.778 0 366C0 230.221 53.951 99.97 149.96 3.96C245.97 -92.048 376.222 -146 512 -146C647.779 -146 778.03 -92.049 874.04 3.96C970.048 99.97 1024 230.222 1024 366C1024 501.779 970.049 632.03 874.04 728.04C778.03 824.048 647.778 878 512 878zM512 814.002A447.96 447.96 0 0 0 828.785 682.785A447.96 447.96 0 0 0 960.002 366A447.96 447.96 0 0 0 828.785 49.215A447.96 447.96 0 0 0 512 -82.002A447.96 447.96 0 0 0 195.215 49.215A447.96 447.96 0 0 0 63.998 366A447.96 447.96 0 0 0 195.215 682.785A447.96 447.96 0 0 0 512 814.002zM483.283 778.692V697.285C432.675 690.953 390.89 671.805 357.928 639.845C324.966 608.187 308.484 570.5 308.484 526.781C308.484 489.997 319.306 458.036 340.947 430.901C362.589 404.066 410.034 374.669 483.283 342.709V111.149C454.317 111.149 423.019 116.274 389.391 126.525C356.096 137.078 329.794 150.043 310.482 165.42V86.727C354.765 60.797 412.365 47.832 483.283 47.832V-46.691H535.223V51.449C591.824 59.59 635.94 78.133 667.57 107.079C699.534 136.325 715.516 172.355 715.516 215.169C715.516 250.749 702.698 282.406 677.061 310.145C651.756 338.185 604.476 367.131 535.223 396.98V635.775C591.491 633.966 636.607 621.002 670.568 596.881V673.766C645.598 688.841 600.481 697.285 535.223 699.094V778.69H483.283zM483.283 633.062V422.307C449.323 439.191 425.683 455.925 412.365 472.507C399.047 489.091 392.389 510.347 392.389 536.277C392.389 561.001 400.545 581.957 416.859 599.143C433.174 616.63 455.315 627.937 483.283 633.063zM535.223 319.192C599.482 287.232 631.611 250.446 631.611 208.838C631.611 158.788 599.482 127.431 535.223 114.768V319.19z" />
    <glyph glyph-name="currency-eur"
      unicode="&#xE91C;"
      horiz-adv-x="1024" d="M512 878C376.221 878 245.97 824.049 149.96 728.04C53.952 632.03 0 501.778 0 366C0 230.221 53.951 99.97 149.96 3.96C245.97 -92.048 376.222 -146 512 -146C647.779 -146 778.03 -92.049 874.04 3.96C970.048 99.97 1024 230.222 1024 366C1024 501.779 970.049 632.03 874.04 728.04C778.03 824.048 647.778 878 512 878zM512 814.002A447.96 447.96 0 0 0 828.785 682.785A447.96 447.96 0 0 0 960.002 366A447.96 447.96 0 0 0 828.785 49.215A447.96 447.96 0 0 0 512 -82.002A447.96 447.96 0 0 0 195.215 49.215A447.96 447.96 0 0 0 63.998 366A447.96 447.96 0 0 0 195.215 682.785A447.96 447.96 0 0 0 512 814.002zM580.375 688.559C509.93 688.559 449.948 668.825 400.428 629.357C351.256 590.18 317.778 535.767 299.992 466.119H231.465V405.178H289.005C286.913 387.766 285.867 372.094 285.867 358.164C285.867 344.814 286.566 333.643 287.961 324.646H231.465V263.703H294.76C323.356 116.861 412.11 43.441 561.02 43.441C612.981 43.441 662.153 54.179 708.535 75.654V142.254C659.363 117.006 611.936 104.383 566.252 104.383C469.303 104.383 408.273 157.489 383.164 263.703H646.81V324.646H374.795C372.354 349.604 372.528 376.448 375.318 405.178H646.808V466.119H386.827C400.427 515.453 424.142 554.63 457.97 583.65C492.146 612.96 531.03 627.617 574.622 627.617C624.142 627.617 668.78 616.297 708.536 593.662V664.182C670.873 680.432 628.153 688.559 580.376 688.559z" />
    <glyph glyph-name="currency-other"
      unicode="&#xE91F;"
      horiz-adv-x="1024" d="M512 878C376.221 878 245.97 824.049 149.96 728.04C53.952 632.03 0 501.778 0 366C0 230.221 53.951 99.97 149.96 3.96C245.97 -92.048 376.222 -146 512 -146C647.779 -146 778.03 -92.049 874.04 3.96C970.048 99.97 1024 230.222 1024 366C1024 501.779 970.049 632.03 874.04 728.04C778.03 824.048 647.778 878 512 878zM512 814.002A447.96 447.96 0 0 0 828.785 682.785A447.96 447.96 0 0 0 960.002 366A447.96 447.96 0 0 0 828.785 49.215A447.96 447.96 0 0 0 512 -82.002A447.96 447.96 0 0 0 195.215 49.215A447.96 447.96 0 0 0 63.998 366A447.96 447.96 0 0 0 195.215 682.785A447.96 447.96 0 0 0 512 814.002zM296.572 634L244 579.025L322.857 501.145C293.905 459.914 279.427 414.675 279.427 365.428C279.427 318.088 293.905 272.848 322.857 229.709L244 152.975L296.572 98L375.428 177.025C415.047 148.011 460.763 133.504 512.572 133.504C563.62 133.504 609.142 148.011 649.142 177.025L727.429 98L780 152.975L701.715 229.709C731.429 273.994 746.285 319.234 746.285 365.428C746.285 413.148 731.429 458.387 701.715 501.145L780 579.025L727.428 634L648 555.547C606.857 584.943 561.715 599.641 512.572 599.641C463.048 599.641 417.332 584.943 375.428 555.547L296.572 634zM512.572 524.05C554.477 524.05 591.238 508.59 622.857 477.666C654.477 446.743 670.285 409.712 670.285 366.572S654.665 286.402 623.428 255.479C592.571 224.555 555.62 209.094 512.572 209.094C469.144 209.094 432 224.555 401.142 255.479C370.666 286.402 355.428 323.433 355.428 366.572C355.428 409.712 370.477 446.742 400.572 477.666C431.048 508.589 468.382 524.051 512.572 524.051z" />
    <glyph glyph-name="chart-area"
      unicode="&#xE922;"
      horiz-adv-x="1024" d="M0 878V-146H1024V878H0zM64 814H960V228.738L735.596 522.6L364.354 66.008L221.686 233.172L64 59.275V814z" />
    <glyph glyph-name="chart-bar"
      unicode="&#xE923;"
      horiz-adv-x="1024" d="M0 878V-146H1024V878H0zM64 814H960V-82H64V11.672H795.377V139.672H64V303.895H505.607V431.895H64V596.117H645.508V724.117H64V814z" />
    <glyph glyph-name="chart-column"
      unicode="&#xE924;"
      horiz-adv-x="1024" d="M0 878V-146H1024V878H0zM64 814H960V-82H864.781V683.895H736.781V-82H574.244V288.105H446.244V-82H283.707V423.838H155.707V-82H64V814z" />
    <glyph glyph-name="chart-pie"
      unicode="&#xE925;"
      horiz-adv-x="1024" d="M512 878A512 512 0 0 1 0 366A512 512 0 0 1 512 -146A512 512 0 0 1 893.223 25.152A512 512 0 0 1 900.521 33.461A512 512 0 0 1 927.238 67.557A512 512 0 0 1 931.448 73.443A512 512 0 0 1 955.338 111.163A512 512 0 0 1 958.308 116.342A512 512 0 0 1 978.811 157.246A512 512 0 0 1 980.848 161.801A512 512 0 0 1 997.468 205.348A512 512 0 0 1 998.801 209.355A512 512 0 0 1 1011.178 255.041A512 512 0 0 1 1011.953 258.496A512 512 0 0 1 1019.793 305.684A512 512 0 0 1 1020.176 308.852A512 512 0 0 1 1024 366A512 512 0 0 1 512 878zM512 814A448 448 0 0 0 828.299 682.854L511.445 366L828.318 49.125A448 448 0 0 0 512 -82A448 448 0 0 0 64 366A448 448 0 0 0 512 814z" />
    <glyph glyph-name="chart-pivot"
      unicode="&#xE926;"
      horiz-adv-x="1024" d="M0 878V-146H1024V878H0zM64 814H960V-82H64V814zM151.873 725.348V597.348H279.873V725.348H151.873zM371.243 725.348V597.348H872.88V725.348H371.242zM151.873 512.878V5.105H279.873V512.88H151.873zM767.031 500.2L721.775 454.944L642.285 375.454L687.541 330.2L735.031 377.69V145.257H502.596L550.09 192.749L504.834 238.003L425.344 158.513L380.088 113.257L425.344 68.003L504.834 -11.487L550.09 33.767L502.6 81.257H799.246V145.257H799.031V377.689L846.521 330.199L891.777 375.453L767.031 500.2z" />
    <glyph glyph-name="chart-stacked-area"
      unicode="&#xE927;"
      horiz-adv-x="1024" d="M0 878V-146H1024V878H0zM64 814H960V549.58L864.457 629.984L755.539 510.887L485.545 742.48L64 323.02V814zM685.258 404.855L960 178.877V96.01L689.264 318.693L318.869 -48.625L64 175.352V260.55L316.232 38.892L685.258 404.854z" />
    <glyph glyph-name="chart-stacked-bar"
      unicode="&#xE928;"
      horiz-adv-x="1024" d="M0 878V-146H1024V878H0zM64 814H960V-82H64V18H855.973V274H64V462H584.633V718H64V814zM287.229 654H520.633V526H287.229V654zM65.016 210H364.975V82H65.015V210z" />
    <glyph glyph-name="chart-stacked-line"
      unicode="&#xE929;"
      horiz-adv-x="1024" d="M0 878V-146H1024V878H0zM64 814H960V519.28L875.53 441.564L646.38 674.598V720.789H521.583V647.879L444.439 570.734L489.694 525.479L557.004 592.789H637.067L873.302 352.551L960 432.314V109.694L957.727 111.967L912.473 66.713L960 19.183V-82H64V136.584L82.398 118.186L172.908 208.696L127.654 253.949L64 190.295V458.084L197.895 324.191L172.908 299.205L218.164 253.949L243.148 278.934L509.082 13.002L725.512 225.104H799.334L776.707 202.477L867.217 111.967L912.473 157.223L821.963 247.733L799.336 225.105V353.104H674.536V264.758L509.536 103.058L288.403 324.19L308.673 344.46L263.417 389.716L243.147 369.446L64 548.594V814zM399.184 525.479L308.674 434.969L353.928 389.715L444.438 480.225L399.184 525.479z" />
    <glyph glyph-name="queue"
      unicode="&#xE92A;"
      horiz-adv-x="1024" d="M510 798V586H302V366H82V-66H514V154H734V366H942V798zM574 734H878V430H734V586H574zM670.467 523.125L670 218H514V365.125L366 366V522zM146 302H450V-2H146z" />
    <glyph glyph-name="comment"
      unicode="&#xE92D;"
      horiz-adv-x="1024" d="M0 805.006V66.346H148.643V-144.482L386.355 66.346H966.174V805.006H0z" />
    <glyph glyph-name="comment-add"
      unicode="&#xE92E;"
      horiz-adv-x="1024" d="M217.936 863.205V674.05H28.78V610.05H217.935V420.896H281.935V610.049H471.091V674.049H281.936V863.205H217.936zM586.984 673.141V609.141H962.328V139.373H544.121L398.211 17.73V139.373H282.2V315.093H218.2V75.373H341.267V-105.613L558.358 75.373H1026.328V673.141H586.983z" />
    <glyph glyph-name="comment-discussion"
      unicode="&#xE92F;"
      horiz-adv-x="1024" d="M298.693 878V576.125H-0.148V69.289H149.104V-150.783L403.447 69.289H725.158V283.027L878.514 150.336V371.166H1024V878H298.693zM362.693 814H960V435.166H819.582V281.725L725.158 367.568V576.125H362.693V814zM63.852 512.125H661.158V133.289H378.744C323.127 85.974 269.46 36.413 213.104 -10.037C209.2 13.995 212.372 39.69 211.355 64.439V133.289H63.852V512.125z" />
    <glyph glyph-name="comment-lines"
      unicode="&#xE930;"
      horiz-adv-x="1024" d="M-0.148 805.154V69.29H149.104V-150.782L403.447 69.29H966.322V805.154H-0.148zM63.852 741.154H902.322V133.29H378.744S263.854 33.1 213.104 -10.774V-10.036L211.355 -11.548V133.29H63.852V741.154zM192 558.957V494.957H784V558.957H192zM192 410.998V346.998H629.05V410.998H192z" />
    <glyph glyph-name="comment-next"
      unicode="&#xE931;"
      horiz-adv-x="1024" d="M275.1 845.83L229.846 800.576L357.076 673.346H0V609.346H354.838L229.846 484.356L275.1 439.1L433.21 597.21L478.465 642.465L275.1 845.83zM586.984 673.14V609.14H962.328V139.373H544.121L398.211 17.73V139.373H282.2V315.093H218.2V75.373H341.267V-105.613L558.358 75.373H1026.328V673.141H586.983z" />
    <glyph glyph-name="comment-outline"
      unicode="&#xE932;"
      horiz-adv-x="1024" d="M-0.148 805.154V69.29H149.104V-150.782L403.447 69.29H966.322V805.154zM63.852 741.154H902.322V133.29H378.744S263.854 33.1 213.104 -10.774V-10.036L211.355 -11.548V133.29H63.852z" />
    <glyph glyph-name="comment-previous"
      unicode="&#xE933;"
      horiz-adv-x="1024" d="M203.365 845.83L0 642.465L45.254 597.211L203.365 439.1L248.619 484.355L123.627 609.345H478.465V673.345H121.389L248.619 800.576L203.365 845.83zM586.985 673.14V609.14H962.328V139.373H544.121L398.211 17.73V139.373H282.2V315.093H218.2V75.373H341.267V-105.613L558.358 75.373H1026.328V673.141H586.983z" />
    <glyph glyph-name="comment-urgent"
      unicode="&#xE934;"
      horiz-adv-x="1024" d="M-0.148 805.154V69.29H149.104V-150.782L403.447 69.29H966.322V805.154zM63.852 741.154H902.322V133.29H378.744S263.854 33.1 213.104 -10.774V-10.036L211.355 -11.548V133.29H63.852zM451.086 665.188V384H515.086V665.188zM451.086 322.186V258.186H515.086V322.186z" />
    <glyph glyph-name="flag"
      unicode="&#xE935;"
      horiz-adv-x="1024" d="M270.177 877.332V274.84L881.287 576.086zM142.162 876.5V-146.5H206.162V876.5z" />
    <glyph glyph-name="approve"
      unicode="&#xE936;"
      horiz-adv-x="1024" d="M703.826 843.682C642.292 838.086 599.192 785.379 556.543 746.192C485.879 676.426 426.277 595.472 350.154 531.344C337.254 517.402 318.924 524.702 298.629 522.524C203.689 520.728 108.753 521.547 13.65 521.374V-32.244C127.377 -33.368 253.182 -31.445 359.69 -33.854C505.961 -33.021 652.477 -35.35 798.588 -32.611C845.535 -8.598 860.643 48.994 884.416 92.467C931.18 201.666 975.646 314.24 990.756 432.759C1004.72 489.449 954.566 513.328 899.463 518.429C827.333 521.482 755.127 518.99 682.963 519.691C691.336 563.561 721.69 597.493 752.234 627.401C782.397 681.249 797.088 753.86 764.461 809.766C750.966 829.636 728.232 843.771 703.826 843.682zM704.303 779.596C732.11 747.576 716.101 690.318 693.576 657.039C647.212 622.147 621.468 562.857 617.236 506.006C618.082 438.155 699.723 457.891 743.956 455.619C804.984 455.296 866.322 458.466 927.078 451.557C921.943 361.998 887.694 277.117 857.381 193.577C834.469 137.569 812.693 80.037 777.979 30.092C602.651 30.312 427.324 30.14 251.996 30.102V457.912C288.036 459.939 324.942 455.254 360.275 462.933C427.878 500.116 473.508 565.968 526.539 620.266C579.643 675.174 627.449 739.316 695.209 776.975L700.564 778.727zM775.76 27.543L774.912 26.592z" />
    <glyph glyph-name="disapprove"
      unicode="&#xE937;"
      horiz-adv-x="1024" d="M703.826 -97.992C642.292 -92.396 599.192 -39.689 556.543 -0.502C485.879 69.264 426.277 150.218 350.154 214.346C337.254 228.288 318.924 220.988 298.629 223.167C203.689 224.962 108.753 224.143 13.65 224.317V777.934C127.377 779.058 253.182 777.135 359.69 779.544C505.961 778.711 652.477 781.04 798.588 778.301C845.535 754.288 860.643 696.696 884.416 653.223C931.18 544.024 975.646 431.45 990.756 312.931C1004.72 256.241 954.566 232.363 899.463 227.261C827.333 224.208 755.127 226.7 682.963 225.999C691.336 182.13 721.69 148.198 752.234 118.289C782.397 64.441 797.088 -8.169 764.461 -64.076C750.966 -83.946 728.232 -98.081 703.826 -97.992zM704.303 -33.906C732.11 -1.886 716.101 55.372 693.576 88.651C647.212 123.544 621.468 182.833 617.236 239.684C618.082 307.535 699.723 287.799 743.956 290.071C804.984 290.394 866.322 287.225 927.078 294.133C921.943 383.692 887.694 468.573 857.381 552.113C834.469 608.121 812.693 665.653 777.979 715.598C602.651 715.378 427.324 715.55 251.996 715.588V287.778C288.036 285.751 324.942 290.436 360.275 282.757C427.878 245.574 473.508 179.722 526.539 125.424C579.643 70.516 627.449 6.374 695.209 -31.284L700.564 -33.037zM775.76 718.147L774.912 719.098z" />
    <glyph glyph-name="flag2"
      unicode="&#xE938;"
      horiz-adv-x="1024" d="M228.38 852.902L495.44 312.832L909.703 853.746zM113.996 795.412L567.449 -121.598L624.819 -93.23L171.365 823.78z" />
    <glyph glyph-name="calendar"
      unicode="&#xE93D;"
      horiz-adv-x="1024" d="M170.281 866.008V783.648H12V-133.512H1012V783.648H851.404V866.008H787.404V783.648H234.281V866.008H170.281zM76 719.648H170.281V644H234.281V719.648H787.404V644H851.404V719.648H948V556.6H76V719.648zM76 487.568H948V-69.512H76V487.568zM170.281 403.193V339.193H234.281V403.193H170.281zM324.891 403.193V339.193H388.891V403.193H324.891zM479.501 403.193L479.502 339.193H543.502V403.193H479.502zM634.113 403.193V339.193H698.113V403.193H634.113zM788.723 403.193V339.193H852.723V403.193H788.723zM170.28 248.914V184.914H234.28V248.914H170.28zM324.89 248.914V184.914H388.89V248.914H324.89zM479.5 248.914L479.501 184.914H543.501V248.914H479.501zM634.112 248.914V184.914H698.112V248.914H634.112zM788.722 248.914V184.914H852.722V248.914H788.722zM170.28 94.633V30.633H234.28V94.633H170.28zM324.89 94.633V30.633H388.89V94.633H324.89zM479.5 94.633L479.501 30.633H543.501V94.633H479.501z" />
    <glyph glyph-name="cloud-outline"
      unicode="&#xE940;"
      horiz-adv-x="1024" d="M564.55 687.613A232.223 232.223 0 0 1 549.268 687.596L550.912 687.609C446.596 689.423 350.282 621.371 307.992 524.428C181.393 572.288 27.425 480.88 5.775 339.457C-27.877 191.072 93.071 35.128 241.043 44.947C450.104 43.654 659.228 44.673 868.02 44.347H869.014L870.006 44.407C925.216 47.753 969.904 82.613 996.043 126.98C1022.183 171.348 1031.95 226.76 1016.666 278.959L1016.549 279.355L1016.424 279.75C991.191 358.328 917.976 419.63 835.024 405.07L835.541 405.158L818.477 402.451C821.432 547.651 707.059 683.076 564.551 687.613zM551.443 623.633C668.603 627.617 774.6 495.023 751.092 370.273L742.678 325.625L845.828 341.988L846.088 342.035C891.349 349.979 937.875 314.319 955.316 260.658C964.794 227.909 958.456 189.264 940.902 159.468C923.378 129.724 896.842 110.354 866.568 108.348C657.882 108.666 449.237 107.656 241.028 108.948L239.686 108.955L238.35 108.852C138.854 101.118 43.74 220.182 68.348 326.132L68.648 327.428L68.84 328.742C84.893 438.523 220.312 508.246 308.988 452.952L345.291 430.312L356.752 471.533C381.063 558.979 465.962 625.077 549.801 623.619L550.621 623.604z" />
    <glyph glyph-name="cloud"
      unicode="&#xE941;"
      horiz-adv-x="1024" d="M551.145 655.238C445.113 656.982 343.711 581.244 313.875 479.728C197.371 548.448 29.132 465.68 8.62 332.997C-22.74 205.276 92.36 66.9 223.918 76.572C444.829 75.277 666.004 76.298 887.025 75.972C977.593 81.165 1045.639 184.577 1011.653 269.592C989.16 335.845 915.045 375.236 847.2 363.972H796.604C825.547 509.257 699.792 660.019 551.144 655.238z" />
    <glyph glyph-name="dashboard-outline"
      unicode="&#xE943;"
      horiz-adv-x="1024" d="M0.5 877.5V-145.5H1023.5V877.5H0.5zM64.438 813.562H590.342V215.965H64.438V813.562zM652.938 813.562H959.563V581.316H652.938V813.563zM652.938 518.135H959.563V215.965H652.938V518.135zM64.438 153.325H370.262V-81.563H64.437V153.324zM432.858 153.325H959.562V-81.563H432.857V153.324z" />
    <glyph glyph-name="dashboard"
      unicode="&#xE944;"
      horiz-adv-x="1024" d="M0 878V211.598H591.154V878H0zM653.354 878V577.236H1024V878H653.354zM653.354 515.037V211.597H1024V515.037H653.354zM0 149.398V-146H368.582V149.398H0zM431.176 149.398V-146H1024V149.398H431.176z" />
    <glyph glyph-name="database"
      unicode="&#xE945;"
      horiz-adv-x="1024" d="M512 878C412.44 878 322.363 867.214 254.678 848.754C220.835 839.524 192.595 828.624 170.32 814.262C148.046 799.899 128 779.108 128 750V-18H191.994C191.996 -18.05 192 -18.004 192 -18.059H128C128 -37.069 137.586 -53.639 149.475 -65.615C161.363 -77.592 176.091 -86.716 193.508 -94.932C228.341 -111.362 274.583 -123.812 331.029 -132.688C443.923 -150.438 580.078 -150.438 692.971 -132.688C749.417 -123.813 795.659 -111.362 830.492 -94.932C847.909 -86.716 862.637 -77.592 874.526 -65.615C886.414 -53.64 896 -37.068 896 -18.06H832C832 -18.005 832.004 -18.052 832.006 -18.001H896V750C896 779.108 875.954 799.9 853.68 814.262C831.405 828.624 803.165 839.524 769.322 848.754C701.637 867.214 611.56 878 512 878zM512 814C606.844 814 692.77 803.295 752.482 787.01C782.339 778.867 805.646 769.08 818.996 760.473C827.697 754.863 830.366 751.282 831.318 750C830.366 748.718 827.698 745.138 818.996 739.527C805.646 730.919 782.339 721.133 752.482 712.99C692.77 696.705 606.844 686 512 686S331.23 696.705 271.518 712.99C241.661 721.133 218.354 730.92 205.004 739.527C196.303 745.137 193.634 748.718 192.682 750C193.634 751.282 196.302 754.862 205.004 760.473C218.354 769.081 241.661 778.867 271.518 787.01C331.23 803.295 417.156 814 512 814zM192 673.848C210.106 665.105 230.927 657.723 254.678 651.246C322.363 632.786 412.44 622 512 622S701.637 632.786 769.322 651.246C793.072 657.723 813.894 665.106 832 673.848V-17.142C831.764 -17.513 831.092 -18.526 829.105 -20.527C825.011 -24.652 816.159 -30.929 803.189 -37.047C777.25 -49.282 735.492 -61.217 683.029 -69.465C578.104 -85.962 445.896 -85.962 340.971 -69.465C288.508 -61.216 246.75 -49.282 220.811 -37.047C207.841 -30.929 198.989 -24.652 194.895 -20.527C192.908 -18.527 192.235 -17.513 192 -17.143z" />
    <glyph glyph-name="pencil"
      unicode="&#xE949;"
      horiz-adv-x="1024" d="M982.304 839.284A107.584 112 45 0 1 934.53 867.072A107.584 112 45 0 1 830.961 843.129L830.841 843.249L828.531 840.939L801.553 813.961L959.945 655.57L989.233 684.859L989.185 684.907A107.584 112 45 0 1 1013.5 786.98A107.584 112 45 0 1 982.304 839.283zM720.564 732.973L141.845 154.254L300.237 -4.138L878.956 574.581zM63.441 75.849L6.465 -139.518L221.833 -82.542z" />
    <glyph glyph-name="pencil-outline"
      unicode="&#xE94A;"
      horiz-adv-x="1024" d="M977.006 820.632C958.006 841.92 934.236 858.5 907.482 868.377C853.972 888.133 795.162 877.277 755.236 837.587L755.192 837.635L99.053 185.38A72.601 72.601 0 0 1 91.157 179.05L90.614 179.217L90.358 178.298C89.975 177.934 89.592 177.57 89.216 177.196L89.854 176.486L0 -146L316.756 -72.325L316.659 -71.868L979.852 587.4L979.775 587.485C1019.407 626.895 1033.192 687.56 1017.92 744.635C1010.238 773.347 996.006 799.345 977.006 820.632zM931.376 775.537C943.714 761.713 953.047 744.924 957.885 726.846C967.559 690.688 958.635 656.428 936.55 634.785L936.619 634.708L891.924 590.278L752.934 745.105L798.022 789.925L798.065 789.878C820.003 811.686 853.116 818.895 886.835 806.446C903.695 800.222 919.038 789.362 931.376 775.537zM707.596 700.035L846.586 545.208L331.424 33.095C328.764 42.915 325.187 52.789 320.764 62.676C310.057 86.616 295.259 109.136 277.617 128.844C259.975 148.553 239.487 165.451 217.403 178.154C209.65 182.614 201.87 186.428 194.085 189.564zM231.9 83.524C245.374 68.471 256.852 51.46 264.335 34.728C271.819 17.997 274.693 3.143 274.487 -6.925C274.418 -10.263 274.102 -12.945 273.624 -15.142L89.524 -57.962L142.94 133.75C144.54 133.884 146.336 133.925 148.392 133.836C158.04 133.418 172.025 129.46 187.49 120.564C202.956 111.668 218.425 98.574 231.9 83.523z" />
    <glyph glyph-name="copy"
      unicode="&#xE94B;"
      horiz-adv-x="1024" d="M34 878V78H340V-146H990V365.947L710.281 651.497H638.385L419.014 878zM98 814H391.902L549.291 651.496H340V142H98zM404 587.496H628.012L628.125 302H926V-82H404zM692.016 578.973L902.828 366H692.1L692.016 578.973z" />
    <glyph glyph-name="cut"
      unicode="&#xE94C;"
      horiz-adv-x="1024" d="M325.078 836.377L295.278 752.488L476.271 388.018L344.049 121.758A134.098 134.098 0 0 1 337.242 121.932C263.634 121.932 203.275 61.575 203.275 -12.033C203.275 -85.642 263.634 -146 337.242 -146C410.851 -146 471.209 -85.642 471.209 -12.033C471.209 36.471 444.999 79.217 406.061 102.734L512 316.068L617.94 102.734C579.002 79.216 552.791 36.471 552.791 -12.033C552.791 -85.642 613.149 -146 686.758 -146C760.366 -146 820.725 -85.642 820.725 -12.033C820.725 61.575 760.366 121.932 686.758 121.932C684.476 121.932 682.206 121.872 679.951 121.758L547.731 388.018L728.723 752.488L698.922 836.377L512 459.967L325.078 836.377zM337.242 57.932C376.262 57.932 407.209 26.987 407.209 -12.033S376.262 -82 337.242 -82C298.222 -82 267.275 -51.053 267.275 -12.033C267.275 26.987 298.222 57.932 337.242 57.932zM686.758 57.932C725.778 57.932 756.725 26.987 756.725 -12.033S725.778 -82 686.758 -82C647.738 -82 616.791 -51.053 616.791 -12.033C616.791 26.987 647.738 57.932 686.758 57.932z" />
    <glyph glyph-name="list-bullet"
      unicode="&#xE94D;"
      horiz-adv-x="1024" d="M151.64 726.88V662.88H215.64V726.88H151.64zM364.875 726.88V662.88H872.359V726.88H364.875zM151.641 510.618V446.618H215.641V510.618H151.641zM364.875 510.618V446.618H872.359V510.618H364.875zM151.641 294.352V230.352H215.641V294.352H151.641zM364.875 294.352V230.352H872.359V294.352H364.875zM151.641 78.088V14.088H215.641V78.088H151.641zM364.875 78.088V14.088H872.359V78.088H364.875z" />
    <glyph glyph-name="paste"
      unicode="&#xE94E;"
      horiz-adv-x="1024" d="M432.209 878C354.45 878 291.9 815.833 288.583 739.022H72V-65.36H437.403V-146H952V434.607H799.673V734.99H575.95C574.715 813.645 509.966 878 432.209 878zM432.209 813.488C471.832 813.997 511.655 777.866 511.655 732.681H512.265V670.478H583.36V583.791H281.055V674.511H353.927V739.022C354.047 783.287 392.585 812.98 432.209 813.488zM136.325 674.51H216.73V519.28H647.685V670.48H735.348V434.608H437.403V-0.847H136.325zM501.727 370.095H887.675V-81.488H501.727z" />
    <glyph glyph-name="delete"
      unicode="&#xE94F;"
      horiz-adv-x="1024" d="M218.271 750.238L127.761 659.728L421.492 366L127.76 72.271L218.27 -18.239L512 275.492L805.729 -18.238L896.239 72.272L602.508 366L896.238 659.729L805.728 750.239L512 456.508L218.271 750.24z" />
    <glyph glyph-name="send-outline"
      unicode="&#xE950;"
      horiz-adv-x="1024" d="M10.88 872.775C47.08 703.849 83.278 534.923 119.477 365.996L10.88 -140.775L1013.119 366L10.881 872.775zM101.523 755.227L871.287 366L101.523 -23.227L178.073 334H504.203V398H178.073L101.523 755.227z" />
    <glyph glyph-name="send"
      unicode="&#xE951;"
      horiz-adv-x="1024" d="M10.877 872.803L111.012 399.955H504.264V335.955H111.78L9.811 -141.094L1012.455 365.89L10.877 872.803z" />
    <glyph glyph-name="rename"
      unicode="&#xE953;"
      horiz-adv-x="1024" d="M519.684 798.752L520.254 734.756C581.224 735.299 636.604 714.961 662.714 691.574V40.422C635.966 17.652 581.634 -1.84 521.93 -1.308L521.36 -65.305C588.977 -65.907 652.734 -49.69 696.465 -15.255C740.195 -49.689 803.952 -65.907 871.568 -65.305L870.998 -1.309C808.556 -1.865 751.994 19.483 726.715 43.574V691.447C752.766 714.887 808.241 735.3 869.322 734.756L869.892 798.752C802.276 799.354 738.52 783.134 694.789 748.702C651.059 783.135 587.301 799.354 519.684 798.752zM0 580.676V151.324H587.545V215.324H64V516.676H587.545V580.676H0zM802.314 580.676V516.676H960V215.324H802.314V151.324H1024V580.676H802.314zM142.668 443.08V292.742H516.978V443.08H142.668z" />
    <glyph glyph-name="attach"
      unicode="&#xE954;"
      horiz-adv-x="1024" d="M434.231 878.041C342.371 880.679 248.043 811.221 241.544 716.025C240.471 514.916 241.326 313.63 241.116 112.575C241.114 -16.795 350.426 -131.137 477.918 -143.931C606.326 -162.474 741.58 -76.989 773.912 49.843C788.43 107.253 780.714 166.693 782.667 225.521V750.73H718.667C718.539 535.15 718.922 318.794 718.477 103.703C713.204 -0.287 615.245 -84.264 512.682 -81.966C409.569 -84.942 310.657 -0.61 305.526 103.986C304.647 306.289 305.016 508.647 305.336 710.958C311.933 790.016 406.567 831.087 476.214 807.619C522.364 794.879 563.069 753.032 562.174 703.185C562.619 571.113 563.014 276.17 562.27 122.708C558.1 80.727 495.768 67.969 475.384 104.885C462.418 130.871 470.636 161.129 468.325 189.173V601.053H404.325C404.405 441.596 404.165 281.785 404.445 122.55C406.643 52.042 485.577 -0.501 551.475 24.66C602.619 40.614 632.369 95.368 626.698 146.91C626.348 332.104 627.398 518.7 626.173 703.018C627.537 804.118 530.675 879.859 434.23 878.04z" />
    <glyph glyph-name="link"
      unicode="&#xE955;"
      horiz-adv-x="1024" d="M940.418 799.08C881.354 857.862 788.923 892.57 708.455 859.528C667.752 845.474 642.154 810.082 612.026 781.743C519.372 688.765 426.021 596.386 333.802 503.033C291.554 448.325 296.329 371.671 323.982 311.481C347.342 258.517 389.173 211.424 442.359 187.367C453.837 184.847 460.954 202.523 470.529 208.82L499.989 238.28C469.337 242.638 441.187 257.586 420.579 280.9C384.202 318.844 361.06 373.178 367.892 426.12C373.11 462.273 405.606 482.273 428.182 507.388L705.59 784.798C760.006 826.926 838.006 805.853 885.41 763.184C938.948 718.96 974.8 638.878 940.291 572.716C927.397 550.028 904.934 534.759 887.515 515.584L768.746 398.6L813.656 353.004C870.504 409.54 928.545 465.075 984.646 522.236C1030.891 585.798 1026.618 674.884 986.402 740.226C974.505 760.669 959.881 779.5 943.205 796.262A255.38 255.38 0 0 1 940.418 799.08zM645.617 499.815C622.468 522.922 595.63 543.129 563.437 550.474L532.237 557.592L518.002 495.195L549.2 488.077C561.698 485.226 582.62 472.271 600.402 454.52C618.185 436.768 633.387 414.482 639.739 399.483C647.339 381.536 655.692 358.454 657.59 335.271C659.448 312.593 656.024 290.831 640.095 268.646L318.692 -52.757C200.305 -141.122 6.292 43.147 91.137 171.513L211.07 289.64L201.585 370.129L187.829 356.58L41.374 212.33L39.638 209.803C-24.773 116.065 10.748 4.038 84.508 -67.61C158.268 -139.259 270.268 -170.528 358.819 -102.746L360.5 -101.46L689.08 227.12L690.48 229.007C717.463 265.337 724.202 306.017 721.378 340.495C718.554 374.974 707.193 404.315 698.672 424.438C687.662 450.435 668.765 476.706 645.617 499.814z" />
    <glyph glyph-name="server"
      unicode="&#xE956;"
      horiz-adv-x="1024" d="M288 878C247.428 879.062 218.107 838.257 224 799.901V-146H800C799.777 176.154 800.447 498.331 799.665 820.47C796.63 859.764 756.235 883.42 719.552 878H288zM288 814H736V-82H288V814zM370.1 727.984V663.984H653.9V727.984H370.1zM370.1 215.607V151.607H653.9V215.607H370.1zM370.1 69.621V5.621H653.9V69.621H370.1z" />
    <glyph glyph-name="devices"
      unicode="&#xE958;"
      horiz-adv-x="1024" d="M74.402 729.734V436.514H0V2H288.418V152.363H517.91V66H364.68V2H732.174V66H581.91V152.363H1024V729.734H74.402zM138.402 665.734H960V216.364H288.418V436.514H138.402V665.734zM62.896 372.514H225.508V67.617H224.418V66H64V67.617H62.896V372.514z" />
    <glyph glyph-name="folders-outline"
      unicode="&#xE959;"
      horiz-adv-x="1024" d="M256 821.969V693.969H128V565.969H0V-89.97H768V38.03H896V166.03H1024V720.162H704.203L600.502 821.97zM320 757.969H574.336L678.037 656.162H960V230.032H896V592.162H576.203L472.502 693.97H320zM192 629.969H446.336L550.037 528.162H832V102.032H768V464.162H448.203L344.502 565.97H192zM64 501.969H318.336L422.037 400.162H704V-25.968H64z" />
    <glyph glyph-name="folder-outline"
      unicode="&#xE95A;"
      horiz-adv-x="1024" d="M0 802V-76H1028V662H597.123L455.123 802H0zM64 738H428.877L570.877 598H964V-12H64V738z" />
    <glyph glyph-name="folder"
      unicode="&#xE95B;"
      horiz-adv-x="1024" d="M0 803.584V-72.366H1024V663.634H599.205L455.617 803.585z" />
    <glyph glyph-name="image"
      unicode="&#xE95C;"
      horiz-adv-x="1024" d="M0 846V-114H1024V846H0zM64 782H960V76.52L802.314 232.914L659.646 82.576L291.473 447.682L64 222.902V782zM770.852 690.033C696.411 693.413 642.731 602.806 681.338 539.132C714.063 472.18 819.303 468.453 856.682 532.922C901.025 597.775 849.615 692.295 770.852 690.033z" />
    <glyph glyph-name="package-outline"
      unicode="&#xE95D;"
      horiz-adv-x="1024" d="M784.256 878.137C772.808 878.32 761.333 876.993 750.352 874.213C678.464 857.796 616.597 810.725 569.695 755.1C540.324 719.35 519.183 675.88 513.58 629.805H510.365C504.347 675.354 484.67 718.545 455.175 753.92C405.746 812.614 339.555 863.07 262.384 876.27C254.265 877.57 246.025 878.019 237.81 877.953C183.02 879.381 131.299 832.411 132.674 776.54C131.659 723.7 171.527 681.826 213.381 655.294C228.387 645.778 243.963 637.293 259.988 629.806H29.752V-146H989.645V629.805H764.656C798.046 645.562 829.001 666.048 855.662 692.113C892.45 728.425 904.994 791.205 872.613 834.357C852.715 863.467 818.601 877.587 784.256 878.137zM790.625 814.543C822.332 814.038 840.727 771.143 818.148 748.211C781.516 700.171 721.161 678.47 664.881 663.217A454.51 454.51 0 0 0 584.307 650.779C614.593 724.909 679.177 785.363 755.547 809.691C766.967 812.943 778.801 814.095 790.625 814.543zM234.732 814.502C303.522 810.865 361.759 764.374 403.896 713.142C416.436 695.612 438.33 666.79 436.336 651.041C358.514 657.681 277.585 679.323 218.475 732.841C198.415 749.595 185.533 783.447 208.383 803.453C215.32 810.313 224.885 814.706 234.733 814.502zM93.752 565.805H477.699V273.902H93.752V565.805zM541.699 565.805H925.645V273.902H541.699V565.805zM93.752 209.902H477.699V-82H93.752V209.902zM541.699 209.902H925.645V-82H541.699V209.902z" />
    <glyph glyph-name="package"
      unicode="&#xE95E;"
      horiz-adv-x="1024" d="M784.256 878.137C772.808 878.32 761.333 876.993 750.352 874.213C678.464 857.796 616.597 810.725 569.695 755.1C536.017 714.108 513.153 662.969 512.135 609.389C509.98 662.363 489.047 713.295 455.175 753.919C405.746 812.615 339.555 863.07 262.384 876.27C254.265 877.57 246.025 878.02 237.81 877.954C183.02 879.381 131.299 832.411 132.674 776.54C131.659 723.7 171.527 681.826 213.381 655.294C256.585 627.897 304.509 609.052 354.297 598.001H67V302.001H435V586.879A537.011 537.011 0 0 1 510.428 587.859C523.022 587.704 561.941 584.652 589 586.588V302H957V598H669.24C738.405 613.018 804.835 642.422 855.662 692.113C892.45 728.425 904.994 791.205 872.613 834.357C852.715 863.467 818.601 877.587 784.256 878.137zM790.625 814.543C822.332 814.038 840.727 771.143 818.148 748.211C781.516 700.171 721.161 678.47 664.881 663.217A454.51 454.51 0 0 0 584.307 650.779C614.593 724.909 679.177 785.363 755.547 809.691C766.967 812.943 778.801 814.095 790.625 814.543zM234.732 814.502C303.522 810.865 361.759 764.374 403.896 713.142C416.436 695.612 438.33 666.79 436.336 651.041C358.514 657.681 277.585 679.323 218.475 732.841C198.415 749.595 185.533 783.447 208.383 803.453C215.32 810.313 224.885 814.706 234.733 814.502zM67 150V-146H435V150H67zM589 150V-146H957V150H589z" />
    <glyph glyph-name="address-book"
      unicode="&#xE960;"
      horiz-adv-x="1024" d="M64 878V-146H896V-18H960V46H896V216.666H960V280.666H896V451.334H960V515.334H896V686H960V750H896V878H64zM128 814H832V-82H128V814zM480 604.262C383.177 604.262 304 525.085 304 428.262C304 372.752 330.03 323.052 370.484 290.736C290.038 253.464 234 176.471 234 86.7H298.604C298.604 176.81 378.318 251.296 480 251.296C581.682 251.296 661.396 176.809 661.396 86.7H726C726 176.472 669.962 253.465 589.516 290.737C629.969 323.051 656 372.752 656 428.262C656 525.085 576.823 604.262 480 604.262zM480 540.262C542.235 540.262 592 490.497 592 428.262S542.235 316.262 480 316.262S368 366.027 368 428.262S417.765 540.262 480 540.262z" />
    <glyph glyph-name="address-card"
      unicode="&#xE961;"
      horiz-adv-x="1024" d="M0 782V-50H1024V782H0zM64 718H960V14H64V718zM374 624.783C277.177 624.783 198 545.606 198 448.783C198 393.274 224.031 343.573 264.484 311.258C184.038 273.986 128 196.99 128 107.218H192.604C192.604 197.328 272.318 271.816 374 271.816C475.682 271.816 555.396 197.328 555.396 107.219H620C620 196.991 563.962 273.986 483.516 311.258C523.969 343.573 550 393.274 550 448.783C550 545.606 470.823 624.783 374 624.783zM640 566V502H896V566H640zM374 560.783C436.235 560.783 486 511.018 486 448.783S436.235 336.783 374 336.783S262 386.548 262 448.783S311.765 560.783 374 560.783zM640 402V338H896V402H640zM640 238V174H896V238H640z" />
    <glyph glyph-name="message-outline"
      unicode="&#xE963;"
      horiz-adv-x="1024" d="M0 695V37H1024V695H0zM63.4 631H960.6V600.396L512 379.877L63.4 600.397V631zM63.4 529.09L512 308.57L960.6 529.09V101H63.4V529.09z" />
    <glyph glyph-name="message"
      unicode="&#xE964;"
      horiz-adv-x="1024" d="M0 695V662.34L516.846 407.523L1024 657.564V695H0zM0 591.387V37H1024V586.611L516.844 336.571L0 591.386z" />
    <glyph glyph-name="minus"
      unicode="&#xE965;"
      horiz-adv-x="1024" d="M64.498 429.502H959.502V302.498H64.498z" />
    <glyph glyph-name="minus-box"
      unicode="&#xE967;"
      horiz-adv-x="1024" d="M0.563 877.437V-145.438H1023.438V877.437H0.563zM224.49 437.51H799.51V294.49H224.49V437.51z" />
    <glyph glyph-name="minus-circle"
      unicode="&#xE969;"
      horiz-adv-x="1024" d="M512 878A512 512 0 0 1 0 366A512 512 0 0 1 512 -146A512 512 0 0 1 1024 366A512 512 0 0 1 512 878zM512 814A448 448 0 0 0 960 366A448 448 0 0 0 512 -82A448 448 0 0 0 64 366A448 448 0 0 0 512 814zM192.344 397.656V334.344H831.656V397.656H192.344z" />
    <glyph glyph-name="exit"
      unicode="&#xE96E;"
      horiz-adv-x="1024" d="M0.514 877.486V-145.486H1023.486V877.486H0.514zM789.678 731.037L877.028 643.687C784.468 551.127 691.908 458.563 599.348 366.002L877.028 88.322L789.678 0.972L511.998 278.652L234.322 0.972L146.972 88.324L424.648 366.002L146.973 643.678L234.323 731.028L511.996 453.354L789.678 731.037z" />
    <glyph glyph-name="plus"
      unicode="&#xE970;"
      horiz-adv-x="1024" d="M448 814H576V430H960V302H576V-82H448V302H64V430H448V814z" />
    <glyph glyph-name="plus-box"
      unicode="&#xE973;"
      horiz-adv-x="1024" d="M0.563 877.437V-145.438H1023.438V877.437H0.563zM440.49 653.51H583.51V437.51H799.51V294.49H583.51V78.49H440.49V294.49H224.49V437.51H440.49V653.51z" />
    <glyph glyph-name="plus-circle"
      unicode="&#xE974;"
      horiz-adv-x="1024" d="M512 878A512 512 0 0 1 0 366A512 512 0 0 1 512 -146A512 512 0 0 1 1024 366A512 512 0 0 1 512 878zM512 814A448 448 0 0 0 960 366A448 448 0 0 0 512 -82A448 448 0 0 0 64 366A448 448 0 0 0 512 814zM480.344 685.656V397.656H192.344V334.344H480.344V46.344H543.656V334.344H831.656V397.656H543.656V685.656H480.344z" />
    <glyph glyph-name="light"
      unicode="&#xE975;"
      horiz-adv-x="1024" d="M480.24 878L480 696.11L543.76 696L544 877.89L480.24 878zM170.088 749.521L124.926 704.514L253.37 575.729L298.532 620.736L170.087 749.521zM854.158 749.428L725.373 620.98L770.381 575.818L899.166 704.264L854.158 749.428zM512 638.693C500.319 638.693 488.832 637.869 477.531 636.433A272.692 272.692 0 0 1 475.428 636.164C464.015 634.624 452.816 632.409 441.891 629.494A272.692 272.692 0 0 1 440.681 629.148A270.275 270.275 0 0 1 408.996 618.395A272.692 272.692 0 0 1 406.873 617.555C396.983 613.401 387.414 608.638 378.153 603.391A272.692 272.692 0 0 1 373.408 600.658C364.775 595.536 356.427 589.986 348.438 583.973A272.692 272.692 0 0 1 342.797 579.535A275.261 275.261 0 0 1 322.572 561.799A272.692 272.692 0 0 1 316.202 555.428A275.261 275.261 0 0 1 298.465 535.203A272.692 272.692 0 0 1 294.027 529.563C288.014 521.573 282.464 513.225 277.342 504.592A272.692 272.692 0 0 1 275.842 502.346A272.692 272.692 0 0 1 274.609 499.848C269.362 490.586 264.599 481.018 260.445 471.127A272.692 272.692 0 0 1 259.605 469.004A270.275 270.275 0 0 1 248.852 437.318A272.692 272.692 0 0 1 248.506 436.109C245.591 425.184 243.376 413.985 241.836 402.572A272.692 272.692 0 0 1 241.566 400.469C240.131 389.169 239.306 377.681 239.306 366C239.306 354.319 240.131 342.832 241.566 331.531A272.692 272.692 0 0 1 241.836 329.428C243.376 318.015 245.591 306.816 248.506 295.891A272.692 272.692 0 0 1 248.852 294.681A270.275 270.275 0 0 1 259.605 262.996A272.692 272.692 0 0 1 260.445 260.873C264.599 250.983 269.362 241.414 274.609 232.153A272.692 272.692 0 0 1 275.842 229.654A272.692 272.692 0 0 1 277.342 227.408C282.464 218.775 288.014 210.427 294.027 202.438A272.692 272.692 0 0 1 298.465 196.797C304.049 189.767 309.965 183.017 316.201 176.572A272.692 272.692 0 0 1 322.572 170.202A275.261 275.261 0 0 1 342.797 152.465A272.692 272.692 0 0 1 348.437 148.027C356.427 142.014 364.775 136.464 373.408 131.342A272.692 272.692 0 0 1 378.152 128.609C387.414 123.362 396.982 118.599 406.873 114.445A272.692 272.692 0 0 1 408.996 113.605A270.275 270.275 0 0 1 440.682 102.852A272.692 272.692 0 0 1 441.891 102.506C452.816 99.591 464.015 97.376 475.428 95.836A272.692 272.692 0 0 1 477.531 95.566C488.831 94.131 500.319 93.306 512 93.306C662.245 93.306 784.693 215.756 784.693 366C784.693 516.245 662.245 638.693 512 638.693zM512 578.109C629.504 578.109 724.11 483.503 724.11 366C724.11 248.496 629.504 153.89 512 153.89V578.11zM-3.54 394.355L-3.648 330.595L178.242 330.355L178.352 394.117L-3.539 394.355zM845.754 394.352L845.644 330.592L1027.535 330.352L1027.645 394.113L845.754 394.352zM770.625 148.98L725.461 103.97L853.908 -24.814L899.07 20.193L770.625 148.98zM253.615 148.89L124.83 20.444L169.838 -24.718L298.623 103.73L253.615 148.892zM543.76 28.71L480 28.6L480.24 -153.29L544 -153.18L543.76 28.71z" />
    <glyph glyph-name="dark"
      unicode="&#xE976;"
      horiz-adv-x="1024" d="M474.904 747.396L497.434 691.334C562.755 528.782 533.848 406.531 456.694 317.461C379.539 228.391 249.188 173.72 109.479 165.615L49.482 162.135L85.862 114.297C199.423 -35.033 403.359 -97.338 592.314 -36.568C780.579 23.979 912.295 188.388 891.016 371.266C870.106 550.962 730.699 691.656 533.939 734.533zM577.08 656.055C719.798 606.673 811.81 498.228 827.443 363.869C844.693 215.617 737.433 77.332 572.721 24.359C429.455 -21.716 277.399 14.229 177.008 108.482C306.768 128.137 426.134 184.432 505.068 275.557C586.572 369.648 621.026 501.745 577.08 656.055z" />
    <glyph glyph-name="check-bold"
      unicode="&#xE977;"
      horiz-adv-x="1024" d="M910.383 741.756L362.519 193.89L113.617 442.793L11.793 340.97C128.7 224.061 245.61 107.154 362.517 -9.756L1012.207 639.932L910.382 741.756z" />
    <glyph glyph-name="check"
      unicode="&#xE978;"
      horiz-adv-x="1024" d="M970.229 720.479L351.78 102.03L53.771 400.043L8.518 354.787L351.783 11.521C573.014 232.757 794.25 453.989 1015.483 675.223L970.229 720.479z" />
    <glyph glyph-name="checkbox"
      unicode="&#xE979;"
      horiz-adv-x="1024" d="M0 878V-146H1024V878H0zM64 814H960V-82H64V814z" />
    <glyph glyph-name="checkbox-checked"
      unicode="&#xE97A;"
      horiz-adv-x="1024" d="M0 878V-146H1024V878H0zM64 814H960V-82H64V814zM794.617 656.059C665.065 515.086 535.51 374.115 405.957 233.143L229.385 425.279L157.148 346.678C240.084 256.432 323.02 166.187 405.955 75.939L866.852 577.459L794.617 656.059z" />
    <glyph glyph-name="play_outline"
      unicode="&#xE97B;"
      horiz-adv-x="1024" d="M266 815.414V-89.996L1022.033 366.553L266 815.414zM330 702.986L897.455 366.086L330 23.416V702.986z" />
    <glyph glyph-name="play"
      unicode="&#xE97C;"
      horiz-adv-x="1024" d="M263.208 818.6L1024 369.842L263.208 -86.6z" />
    <glyph glyph-name="policy"
      unicode="&#xE97E;"
      horiz-adv-x="1024" d="M512 870C375.412 870 264 757.738 264 620.108C264 522.732 319.779 438.068 400.78 396.865L265.786 -138L512 57.092L758.213 -138L623.22 396.865C704.22 438.068 760 522.732 760 620.108C760 757.738 648.588 870 512 870zM512 805.512C614 805.512 696 722.886 696 620.108C696 517.331 614 434.705 512 434.705S328 517.33 328 620.108C328 722.886 410 805.512 512 805.512zM461.416 375.467A245.627 245.627 0 0 1 512 370.217C529.326 370.217 546.244 372.032 562.584 375.467L649.785 29.953L512 139.131L374.215 29.953z" />
    <glyph glyph-name="print"
      unicode="&#xE97F;"
      horiz-adv-x="1024" d="M225.008 877.004V435.293H116.773C50.807 435.293 0 376.983 0 309.496V47.18C0 42.477 0.244 37.858 0.701 33.336L3.609 4.553H223.643V-146H800.357V4.553H1020.391L1023.299 33.336C1023.756 37.858 1024 42.477 1024 47.18V309.496C1024 376.982 973.193 435.293 907.227 435.293H801.723V877.003H225.008zM289.008 813.004H737.723V439.797H289.008V813.004zM116.773 371.293H907.227C935.189 371.293 960 345.938 960 309.496V68.553H800.357V152.71H223.643V68.552H64V309.496C64 345.938 88.811 371.293 116.773 371.293zM181.02 295.811A41.42 39.447 0 0 1 139.6 256.363A41.42 39.447 0 0 1 181.02 216.916A41.42 39.447 0 0 1 222.44 256.363A41.42 39.447 0 0 1 181.02 295.811zM287.643 88.711H736.357V-82H287.643V88.71z" />
    <glyph glyph-name="save-outline"
      unicode="&#xE981;"
      horiz-adv-x="1024" d="M368 74V-114H432V74H368zM146.717 878V369.623H874.867V878H146.717zM210.717 814H810.867V433.623H210.717V814zM225.207 216.264V-146H725.133V216.264H225.207zM286.437 155.034H663.902V-84.77H286.437V155.033zM0 878V0.746L146.746 -146H1024V878H0zM64 814H960V-82H173.254L64 27.254V814z" />
    <glyph glyph-name="save"
      unicode="&#xE982;"
      horiz-adv-x="1024" d="M0 878V-2.387L143.613 -146H220V216.893H804V-146H1024V878H0zM144 726.012H880V440.605H144V726.012zM363.746 75.15V-146.853H507.746V75.15H363.746z" />
    <glyph glyph-name="save-close-outline"
      unicode="&#xE983;"
      horiz-adv-x="1024" d="M0 878V174.459L9.377 165.092L120.133 54.445H690.715L624.883 118.412H587.377V354.123H178.658V118.412H146.658L64.031 200.957V814.033H116.205V462.423H706.262V814.034H760.348V244.042L824.378 181.825V878H0zM180.236 814.033H642.23V526.393H180.236V814.033zM239.92 292.922H526.117V118.412H355.498V235.182H291.467V118.412H239.92V292.922zM661.961 261.293L616.707 216.039L775.1 57.646L616.707 -100.746L661.961 -146L820.354 12.393L978.746 -146L1024 -100.746L865.607 57.646L1024 216.04L978.746 261.294L820.354 102.9L661.96 261.293z" />
    <glyph glyph-name="save-close"
      unicode="&#xE985;"
      horiz-adv-x="1024" d="M46.852 878L0 831.148L194.824 636.324L0 441.5L46.852 394.648L241.676 589.473L436.5 394.648L483.352 441.5L288.527 636.324L483.352 831.148L436.5 878L241.676 683.176L46.852 878zM488.148 745.436L412.633 669.922V665.172H877.135V444.022H571.34L573.861 441.5L436.5 304.139L296.62 444.02H186.731L134.272 391.56V146.874H135.979V-33.66L248.318 -146H356.278V146.875H802.189V-146H1024V745.436H488.148zM429.494 -0.844V-146H579.774V-0.844H429.494z" />
    <glyph glyph-name="search"
      unicode="&#xE986;"
      horiz-adv-x="1024" d="M624.422 879.12A400 400 0 0 0 1024.422 479.12A400 400 0 0 0 624.422 79.12A400 400 0 0 0 365.193 175.086L47.426 -142.682L2.17 -97.426L319.71 220.115A400 400 0 0 0 224.42 479.119A400 400 0 0 0 624.42 879.119zM626.592 816.93A336 336 0 0 1 290.592 480.93A336 336 0 0 1 626.592 144.93A336 336 0 0 1 962.592 480.93A336 336 0 0 1 626.592 816.93z" />
    <glyph glyph-name="filter-outline"
      unicode="&#xE987;"
      horiz-adv-x="1024" d="M74 878V825.104L73.992 825.088L74 825.076V814H81.635L416 328.893V-146H608V328.893L942.365 814H950V825.076L950.008 825.088L950 825.104V878zM161.262 811.248H862.738L544 348.814V-82H480V348.814z" />
    <glyph glyph-name="filter"
      unicode="&#xE988;"
      horiz-adv-x="1024" d="M74 878V814H75.967L448 329.37V-146H576V329.37L948.033 814H950V878H74z" />
    <glyph glyph-name="security"
      unicode="&#xE989;"
      horiz-adv-x="1024" d="M542.645 858.227C529.331 858.216 519.021 857.068 512 857.105C487.037 857.237 424.442 869.637 325.22 797.277C271.3 755.087 77.068 759.83 77.068 759.83C55.591 338.986 104.42 283.87 188.69 151.438C292.19 -11.213 488.59 -126.032 512.001 -126.229C535.412 -126.032 731.813 -11.213 835.311 151.438C919.58 283.87 968.409 338.986 946.933 759.83C946.933 759.83 752.7 755.088 698.78 797.277C630.307 850.854 576.67 858.254 542.646 858.227zM448 722.157H576V223.709H448V722.156zM448 136.234H576V8.234H448V136.234z" />
    <glyph glyph-name="access"
      unicode="&#xE98A;"
      horiz-adv-x="1024" d="M351.67 877.996C190.373 880.34 39.03 757.758 7.896 599.53C-28.037 445.474 54.713 274.534 198.156 207.66C295.775 159.505 415.752 160.186 512.592 210.036V116.431H638.959V-10.782H764.971V-146H1024V93.646L691.822 425.824C739.793 579.988 665.122 760.364 521.869 835.065C469.967 863.467 410.828 878.346 351.669 877.996zM355.797 814.196C496.22 815.776 624.934 700.886 639.849 561.482C646.529 509.703 638.654 456.192 617.518 408.467C695.307 333.383 772.063 254.293 849.46 177.677L960 67.137V-82H828.97V53.217H702.96C702.152 96.823 704.956 136.817 704.14 180.43H576.592V288.033C555.267 288.016 533.779 288.058 512.592 288.033C489.398 262.364 446.868 250.919 412.18 241.911C279.392 211.38 133.244 289.8 84.688 416.998C30.605 543.992 84.268 704.015 203.962 772.851C249.462 800.331 302.652 814.782 355.797 814.195zM255.422 686.996C202.165 689.752 169.129 618.756 205.555 579.797C237.76 537.26 313.333 557.769 319.671 610.717C327.293 649.297 294.771 687.962 255.421 686.997z" />
    <glyph glyph-name="lock-outline"
      unicode="&#xE98B;"
      horiz-adv-x="1024" d="M405.629 878C287.869 878 189.929 783.999 190.184 662.072L189.793 439.797H45.625V-143.119H766.816V439.797H622.19L622.653 658.494C622.49 778.977 524.57 878 405.63 878zM405.629 814C489.269 814 557.121 745.017 557.121 658.187L558.158 439.797H253.793L254.135 658.187C254.135 745.017 321.989 814 405.629 814zM109.625 375.797H702.816V-79.12H109.625V375.797zM406.221 288.139A68.266 68.266 0 0 1 337.955 219.873A68.266 68.266 0 0 1 374.221 159.613V3.227H438.221V159.629A68.266 68.266 0 0 1 474.486 219.873A68.266 68.266 0 0 1 406.221 288.139z" />
    <glyph glyph-name="lock"
      unicode="&#xE98C;"
      horiz-adv-x="1024" d="M398.236 875.373C279.816 875.373 183.766 777.213 182.766 657.445L182.398 441.947H32.957V-146H763.17V441.947H613.73V655.561C613.73 776.183 517.278 875.373 398.236 875.373zM398.236 811.373C481.876 811.373 549.73 742.39 549.73 655.561V441.947H246.398L246.742 655.561C246.742 742.39 314.597 811.373 398.236 811.373zM398.139 288.541C435.841 288.541 466.404 257.977 466.404 220.275A68.266 68.266 0 0 0 430.139 160.031V3.63H366.139V160.016A68.266 68.266 0 0 0 329.873 220.276C329.873 257.977 360.437 288.541 398.139 288.541z" />
    <glyph glyph-name="unlock-outline"
      unicode="&#xE98D;"
      horiz-adv-x="1024" d="M767.031 878C649.271 878 553.631 780.93 551.586 662.072H551.193V439.797H45.625V-143.119H766.816V439.797H615.193V658.187H615.537C615.537 745.017 683.392 814 767.031 814C849.928 814 917.307 746.234 918.498 660.494H917.584V437.365H981.584V658.187H982.525C982.525 778.81 886.073 878 767.031 878zM109.625 375.797H702.816V-79.12H109.625V375.797zM406.221 288.139A68.266 68.266 0 0 1 337.955 219.873A68.266 68.266 0 0 1 374.221 159.613V3.227H438.221V159.629A68.266 68.266 0 0 1 474.486 219.873A68.266 68.266 0 0 1 406.221 288.139z" />
    <glyph glyph-name="unlock"
      unicode="&#xE98E;"
      horiz-adv-x="1024" d="M767.031 875.1C648.611 875.1 552.561 776.94 551.561 657.172L551.193 441.947H36.818V-146H767.031V441.947H615.193L615.537 655.287C615.537 742.117 683.392 811.1 767.031 811.1C850.671 811.1 918.525 742.116 918.525 655.287V438.295H982.525V655.287C982.525 775.91 886.073 875.1 767.031 875.1zM402 288.54C439.702 288.54 470.266 257.976 470.266 220.274A68.266 68.266 0 0 0 434 160.031V3.63H370V160.016A68.266 68.266 0 0 0 333.734 220.276C333.734 257.977 364.298 288.541 402 288.541z" />
    <glyph glyph-name="gear"
      unicode="&#xE98F;"
      horiz-adv-x="1024" d="M418.691 869.14A512 512 0 0 1 225.84 790.022L256.422 651.968A384 384 0 0 1 228.199 624.005L90.002 655.852A512 512 0 0 1 9.588 463.635L129.074 387.485A384 384 0 0 1 128 366A384 384 0 0 1 128.652 347.611L8.86 272.691A512 512 0 0 1 87.98 79.84L226.034 110.422A384 384 0 0 1 253.997 82.199L222.149 -55.998A512 512 0 0 1 414.366 -136.412L490.516 -16.926A384 384 0 0 1 512 -18A384 384 0 0 1 530.389 -17.348L605.309 -137.141A512 512 0 0 1 798.16 -58.021L767.578 80.033A384 384 0 0 1 795.801 107.996L933.998 76.148A512 512 0 0 1 1014.412 268.365L894.926 344.515A384 384 0 0 1 896 366A384 384 0 0 1 895.348 384.389L1015.141 459.309A512 512 0 0 1 936.021 652.16L797.967 621.578A384 384 0 0 1 770.004 649.801L801.852 787.998A512 512 0 0 1 609.635 868.412L533.485 748.926A384 384 0 0 1 512 750A384 384 0 0 1 493.611 749.348L418.691 869.14zM512 558A192 192 0 0 0 704 366A192 192 0 0 0 512 174A192 192 0 0 0 320 366A192 192 0 0 0 512 558z" />
    <glyph glyph-name="gear-outline"
      unicode="&#xE990;"
      horiz-adv-x="1024" d="M439.375 869.045L419.357 865.315A508.243 508.243 0 0 1 227.943 786.799L211.096 775.416L240.389 643.207A388.337 388.337 0 0 1 237.061 639.91L104.651 670.418L93.133 653.627A508.05 508.05 0 0 1 13.316 462.875L9.45 442.91L123.573 370.191C123.537 369.011 123.421 367.836 123.396 366.656L123.386 366.156L123.39 365.656C123.392 365.445 123.41 365.233 123.413 365.021L8.863 293.395L12.596 273.371A508.044 508.044 0 0 1 91.127 81.991L102.51 65.151L234.744 94.438A388.194 388.194 0 0 1 238.041 91.109L207.527 -41.277L224.327 -52.795A508.236 508.236 0 0 1 415.109 -132.594L435.07 -136.459L507.8 -22.359C508.983 -22.396 510.161 -22.511 511.344 -22.537L511.844 -22.547L512.344 -22.541C512.558 -22.539 512.772 -22.521 512.986 -22.518L584.625 -137.045L604.643 -133.315A508.245 508.245 0 0 1 796.057 -54.799L812.904 -43.416L783.611 88.793A388.337 388.337 0 0 1 786.939 92.09L919.349 61.582L930.867 78.373A508.05 508.05 0 0 1 1010.684 269.125L1014.551 289.09L900.428 361.809C900.464 362.989 900.58 364.164 900.605 365.344L900.615 365.844L900.611 366.344C900.609 366.555 900.591 366.767 900.588 366.979L1015.137 438.605L1011.404 458.629A508.047 508.047 0 0 1 932.874 650.009L921.49 666.849L789.256 637.563A388.194 388.194 0 0 1 785.959 640.891L816.473 773.277L799.673 784.795A508.235 508.235 0 0 1 608.891 864.594L588.93 868.459L516.2 754.359C515.017 754.396 513.839 754.511 512.656 754.537L512.156 754.547L511.656 754.541C511.442 754.539 511.228 754.521 511.014 754.518L439.375 869.045zM410.588 802.342L478.888 693.152L496.596 694.205A328.928 328.928 0 0 0 511.828 694.746C517.806 694.606 523.78 694.316 529.742 693.85L547.631 692.453L617.186 801.568A448.347 448.347 0 0 0 748.946 746.465L719.963 620.732L732.906 608.957A328.78 328.78 0 0 0 756.852 584.795L768.514 571.738L894.184 599.572A448.154 448.154 0 0 0 948.43 467.398L839.22 399.111L840.275 381.398A328.64 328.64 0 0 0 840.815 366.195C840.675 360.211 840.385 354.23 839.918 348.262L838.52 330.369L947.656 260.829A448.153 448.153 0 0 0 892.545 129.105L766.785 158.08L755.012 145.145A328.782 328.782 0 0 0 730.844 121.205L717.784 109.541L745.624 -16.105A448.345 448.345 0 0 0 613.412 -70.342L545.112 38.848L527.404 37.795C522.332 37.493 517.252 37.32 512.172 37.254C506.194 37.394 500.22 37.684 494.258 38.15L476.369 39.547L406.814 -69.568A448.347 448.347 0 0 0 275.054 -14.465L304.037 111.268L291.094 123.043A328.783 328.783 0 0 0 267.148 147.205L255.486 160.262L129.816 132.428A448.154 448.154 0 0 0 75.57 264.602L184.78 332.889L183.725 350.599A328.723 328.723 0 0 0 183.185 365.805C183.325 371.789 183.615 377.77 184.082 383.738L185.48 401.631L76.344 471.171A448.154 448.154 0 0 0 131.455 602.895L257.215 573.918L268.988 586.855A328.784 328.784 0 0 0 293.156 610.795L306.216 622.459L278.377 748.105A448.345 448.345 0 0 0 410.587 802.342zM512 558C406.286 558 320 471.714 320 366S406.286 174 512 174S704 260.286 704 366S617.714 558 512 558zM512 503.143A136.729 136.729 0 0 0 649.143 366A136.729 136.729 0 0 0 512 228.857A136.729 136.729 0 0 0 374.857 366A136.729 136.729 0 0 0 512 503.143z" />
    <glyph glyph-name="wrench"
      unicode="&#xE991;"
      horiz-adv-x="1024" d="M751.07 865.951A255.574 255.574 0 0 1 495.497 610.38A255.574 255.574 0 0 1 506.552 536.265L56.132 85.845A128.013 128.013 0 1 1 237.152 -95.175L693.927 361.6A255.574 255.574 0 0 1 751.07 354.805A255.574 255.574 0 0 1 1006.644 610.379A255.574 255.574 0 0 1 987.398 707.184L799.956 519.742L664.193 655.506L853.204 844.518A255.574 255.574 0 0 1 751.07 865.95z" />
    <glyph glyph-name="trash"
      unicode="&#xE992;"
      horiz-adv-x="1024" d="M398.39 878C363.488 878 334.39 848.902 334.39 814V737.355C334.39 737.131 334.404 736.909 334.408 736.685H111.576V672.685H186.51L186.508 672.635V-82C186.508 -116.902 215.605 -146 250.508 -146H773.492C808.395 -146 837.492 -116.902 837.492 -82V672.635L837.49 672.685H912.424V736.685H689.592C689.596 736.909 689.609 737.131 689.609 737.355V814C689.609 848.902 660.512 878 625.609 878H398.391zM398.39 814H625.61V737.355H398.39V814zM250.509 672.635H773.493V-82H250.508V672.635zM331.359 510.76V80H395.359V510.76H331.359zM480.001 510.76V80H544.001V510.76H480.001zM628.644 510.76V80H692.644V510.76H628.644z" />
    <glyph glyph-name="share"
      unicode="&#xE993;"
      horiz-adv-x="1024" d="M705.408 873.25A128 128 0 0 1 588.221 796.56A435.407 435.407 0 0 1 547.117 798.52C386.117 798.52 245.267 710.693 170.357 580.555L237.602 568.33C303.642 668.503 417.444 734.52 547.117 734.52C557.496 734.52 567.827 734.075 578.09 733.217A128 128 0 0 1 705.408 617.25A128 128 0 0 1 833.408 745.25A128 128 0 0 1 705.408 873.25zM887.648 634.154L838.592 593.018C889.223 528.542 917.117 448.741 917.117 366.055C917.117 268.352 878.177 174.674 808.791 105.553A369.498 369.498 0 0 0 772.385 73.76A128 128 0 0 1 678.656 114.75A128 128 0 0 1 550.656 -13.25A128 128 0 0 1 678.656 -141.25A128 128 0 0 1 806.656 -13.25A128 128 0 0 1 802.949 16.729A433.394 433.394 0 0 1 853.959 60.211C935.352 141.294 981.117 251.337 981.117 366.055C981.117 463.831 947.865 558.207 887.648 634.155zM170.883 507.471A128 128 0 0 1 42.883 379.471A128 128 0 0 1 126.484 259.586A432.135 432.135 0 0 1 240.277 60.21C305.854 -5.116 390.251 -47.363 480.748 -61.32L474.596 4.731C403.447 18.893 337.491 53.705 285.446 105.551C243.373 147.463 212.499 198.404 194.707 253.796A128 128 0 0 1 298.883 379.47A128 128 0 0 1 170.883 507.47z" />
    <glyph glyph-name="bank-account"
      unicode="&#xE994;"
      horiz-adv-x="1024" d="M484 862L0 603.227V530H968V602.125L484 862zM486.613 732.79C541.161 733.233 574.113 660.114 536.439 619.734C502.577 574.877 423.033 596.584 416.436 652.32C408.425 692.913 442.546 733.717 484 732.71A61.33 61.33 0 0 0 486.613 732.79zM97.145 484V164H225.145V484H97.145zM312.381 484V164H440.381V484H312.381zM527.619 484V276H655.619V484H527.619zM742.855 484V276H870.855V484H742.855zM546.34 224.441C529.72 224.441 516.34 211.061 516.34 194.441V170.746H1028.34V194.441C1028.34 211.061 1014.96 224.441 998.34 224.441H546.34zM60 122V46H0V-50H484V122H60zM516.34 106.746V-97.559C516.34 -114.179 529.72 -127.559 546.34 -127.559H998.34C1014.96 -127.559 1028.34 -114.179 1028.34 -97.559V106.746H516.34zM616.678 37.322A56.95 55.864 0 0 0 666.281 8.766A56.95 55.864 0 0 0 715.931 37.322A56.95 55.864 0 0 0 772.881 -18.543A56.95 55.864 0 0 0 715.931 -74.406A56.95 55.864 0 0 0 666.328 -45.85A56.95 55.864 0 0 0 616.678 -74.406A56.95 55.864 0 0 0 559.728 -18.543A56.95 55.864 0 0 0 616.678 37.322z" />
    <glyph glyph-name="bank"
      unicode="&#xE995;"
      horiz-adv-x="1024" d="M511.957 832.731L1.238 581.655V516.79H71.902V95.024L2.256 -100.73H1018.902L959.385 95.025L955.854 516.791H1022.762V580.991L511.957 832.73zM511.924 761.397L878.389 580.79H144.545L511.924 761.397zM135.902 516.79H276.891V95.024H135.902zM340.891 516.79H481.877V95.024H340.891zM545.877 516.79H686.865V95.024H545.877zM750.865 516.79H891.854V95.024H750.865zM114.963 31.024H911.95L932.55 -36.731H91.789z" />
    <glyph glyph-name="tag-outline"
      unicode="&#xE996;"
      horiz-adv-x="1024" d="M606.418 833.445L45.967 274.615L423.119 -101.445L978.033 451.86L977.5 833.445H606.418zM632.873 769.445H913.59L913.996 478.389L423.12 -11.066L136.61 274.615L632.874 769.445zM771.453 697.575C731.689 697.575 699.453 665.339 699.453 625.575C699.453 585.81 731.689 553.575 771.453 553.575C811.218 553.575 843.453 585.81 843.453 625.575C843.453 665.339 811.218 697.575 771.453 697.575z" />
    <glyph glyph-name="tag"
      unicode="&#xE997;"
      horiz-adv-x="1024" d="M621.643 834.295L46.508 259.158L407.717 -102.052L976.907 467.137H976.395V834.295H621.643zM771.453 697.575A72 72 0 0 0 843.453 625.575A72 72 0 0 0 771.453 553.575A72 72 0 0 0 699.453 625.575A72 72 0 0 0 771.453 697.575z" />
    <glyph glyph-name="user"
      unicode="&#xE998;"
      horiz-adv-x="1024" d="M512 877.076A323.077 323.077 0 0 1 188.924 554A323.077 323.077 0 0 1 363.03 267.463A481.074 434.168 0 0 1 30.925 -145.074H94.805A417.202 371.856 0 0 0 512 226.656A417.202 371.856 0 0 0 929.195 -145.074H993.075A481.074 434.168 0 0 1 660.43 267.354A323.077 323.077 0 0 1 835.076 554A323.077 323.077 0 0 1 512 877.076zM510.947 813.26A259.26 259.26 0 0 0 770.207 554A259.26 259.26 0 0 0 510.947 294.74A259.26 259.26 0 0 0 251.687 554A259.26 259.26 0 0 0 510.947 813.26z" />
    <glyph glyph-name="users"
      unicode="&#xE999;"
      horiz-adv-x="1024" d="M711.715 854.717A189.459 189.459 0 0 1 522.255 665.257A189.459 189.459 0 0 1 598.678 513.467A275.47 254.325 0 0 1 458.453 381.135A189.459 189.459 0 0 1 312.285 450.2A189.459 189.459 0 0 1 122.826 260.741A189.459 189.459 0 0 1 199.248 108.951A275.47 254.325 0 0 1 36.816 -122.728H100.697A211.595 192.932 0 0 0 312.285 70.077A211.595 192.932 0 0 0 523.875 -122.728H587.754A275.47 254.325 0 0 1 425.21 108.898A189.459 189.459 0 0 1 501.743 260.742A189.459 189.459 0 0 1 500.22 283.471A211.595 192.932 0 0 0 711.714 474.594A211.595 192.932 0 0 0 923.306 281.787H987.183A275.47 254.325 0 0 1 824.64 513.412A189.459 189.459 0 0 1 901.173 665.258A189.459 189.459 0 0 1 711.713 854.717zM711.715 790.898A125.641 125.641 0 0 0 837.355 665.258A125.641 125.641 0 0 0 711.715 539.618A125.641 125.641 0 0 0 586.075 665.258A125.641 125.641 0 0 0 711.715 790.898zM312.285 386.383A125.641 125.641 0 0 0 437.925 260.743A125.641 125.641 0 0 0 312.285 135.102A125.641 125.641 0 0 0 186.645 260.742A125.641 125.641 0 0 0 312.285 386.382z" />
    <glyph glyph-name="user-plus"
      unicode="&#xE99A;"
      horiz-adv-x="1024" d="M320 704.11C196.667 704.11 96 603.442 96 480.11C96 403.878 134.468 336.318 192.967 295.824C80.166 251.13 0 148.76 0 27.891H64C64 152.328 176.555 255.891 320 255.891S576 152.328 576 27.891H640C640 148.759 559.834 251.13 447.033 295.824C505.532 336.318 544 403.878 544 480.11C544 603.443 443.333 704.11 320 704.11zM320 640.11C408.745 640.11 480 568.854 480 480.11C480 391.365 408.745 320.11 320 320.11S160 391.365 160 480.11C160 568.854 231.255 640.11 320 640.11zM784 574V398H608V334H784V158H848V334H1024V398H848V574H784z" />
    <glyph glyph-name="user-minus"
      unicode="&#xE99B;"
      horiz-adv-x="1024" d="M320 704.11C196.667 704.11 96 603.442 96 480.11C96 403.878 134.468 336.318 192.967 295.824C80.166 251.13 0 148.76 0 27.891H64C64 152.328 176.555 255.891 320 255.891S576 152.328 576 27.891H640C640 148.759 559.834 251.13 447.033 295.824C505.532 336.318 544 403.878 544 480.11C544 603.443 443.333 704.11 320 704.11zM320 640.11C408.745 640.11 480 568.854 480 480.11C480 391.365 408.745 320.11 320 320.11S160 391.365 160 480.11C160 568.854 231.255 640.11 320 640.11zM608 398V334H1024V398H608z" />
    <glyph glyph-name="grid"
      unicode="&#xE99C;"
      horiz-adv-x="1024" d="M746 794.475H938V602.475H746zM416 792H608V600H416zM86 794.475H278V602.475H86zM746.186 463.237H938.186V271.237H746.186zM416.186 460.763H608.186V268.763H416.186zM86.186 463.237H278.186V271.237H86.186zM746 132H938V-60H746zM416 129.525H608V-62.475H416zM86 132H278V-60H86z" />
    <glyph glyph-name="grid2"
      unicode="&#xE99D;"
      horiz-adv-x="1024" d="M86 792V632H246V792H86zM432 792V632H592V792H432zM778 792V632H938V792H778zM86 446V286H246V446H86zM432 446V286H592V446H432zM778 446V286H938V446H778zM86 100V-60H246V100H86zM432 100V-60H592V100H432zM778 100V-60H938V100H778z" />
    <glyph glyph-name="eye"
      unicode="&#xE99E;"
      horiz-adv-x="1024" d="M703.63 248.167A192 192 0 0 0 511.63 56.167A192 192 0 0 0 319.63 248.167A192 192 0 0 0 511.63 440.167A192 192 0 0 0 703.63 248.167zM512 692.262C377.508 692.262 248.255 645.882 151.85 561.775C55.444 477.67 0 361.941 0 240.73H76C76 338.87 120.433 433.509 201.813 504.506C283.192 575.503 395.067 616.262 512 616.262C628.933 616.262 740.808 575.503 822.188 504.506C903.567 433.509 948 338.87 948 240.73H1024C1024 361.94 968.556 477.669 872.15 561.775C775.745 645.882 646.492 692.262 512 692.262z" />
    <glyph glyph-name="eye-disabled"
      unicode="&#xE99F;"
      horiz-adv-x="1024" d="M955.986 810.05L815.26 669.325C727.59 726.177 621.533 756.942 512 756.942C377.508 756.942 248.255 710.562 151.85 626.456C55.444 542.348 0 426.622 0 305.412H76C76 403.552 120.433 498.19 201.813 569.187C283.192 640.185 395.067 680.944 512 680.944C601.437 680.944 687.915 657.099 760.053 614.118L618.31 472.375A192 192 0 0 1 511.63 504.848A192 192 0 0 1 319.63 312.848A192 192 0 0 1 352.142 206.207L127.24 -18.695L186.598 -78.051L413.02 148.373A192 192 0 0 1 511.63 120.848A192 192 0 0 1 703.63 312.848A192 192 0 0 1 676.122 411.477L828.342 563.697C905.802 493.35 948 401.046 948 305.412H1024C1024 422.372 972.37 534.222 882.135 617.488L1015.342 750.695L955.986 810.051z" />
    <glyph glyph-name="user-image"
      unicode="&#xE9A0;"
      horiz-adv-x="1024" d="M0 878V622H64V814H256V878H0zM768 878V814H960V622H1024V878H768zM512 652.459A189.459 189.459 0 0 1 322.541 463A189.459 189.459 0 0 1 398.963 311.209A275.47 254.325 0 0 1 236.53 79.531H300.411A211.595 192.932 0 0 0 512 272.336A211.595 192.932 0 0 0 723.59 79.53H787.469A275.47 254.325 0 0 1 624.926 311.155A189.459 189.459 0 0 1 701.459 463A189.459 189.459 0 0 1 512 652.459zM512 588.641A125.641 125.641 0 0 0 637.64 463A125.641 125.641 0 0 0 512 337.36A125.641 125.641 0 0 0 386.36 463A125.641 125.641 0 0 0 512 588.64zM0 110V-146H256V-82H64V110H0zM960 110V-82H768V-146H1024V110H960z" />
    <glyph glyph-name="camera"
      unicode="&#xE9A1;"
      horiz-adv-x="1024" d="M338.137 782L278.137 718H0V-46.479H1024V718H745.863L685.863 782H338.137zM365.863 718H658.137L718.137 654H960V17.521H64V654H305.863L365.863 718zM512 594.576C367.395 594.576 249.482 476.664 249.482 332.059S367.395 69.543 512 69.543C656.605 69.543 774.518 187.453 774.518 332.059C774.518 476.664 656.605 594.576 512 594.576zM159.28 592.58A32 32 0 0 1 127.28 560.58A32 32 0 0 1 159.28 528.58A32 32 0 0 1 191.28 560.58A32 32 0 0 1 159.28 592.58zM512 530.576C622.017 530.576 710.518 442.076 710.518 332.059S622.017 133.543 512 133.543S313.482 222.042 313.482 332.059C313.482 442.075 401.983 530.576 512 530.576z" />
    <glyph glyph-name="chevron-up"
      unicode="&#xE9A2;"
      horiz-adv-x="1024" d="M213.695 239.474L466.745 492.524L512 537.78L557.254 492.524L810.304 239.474L765.051 194.22L512 447.27L258.95 194.22z" />
    <glyph glyph-name="chevron-left"
      unicode="&#xE9A3;"
      horiz-adv-x="1024" d="M638.526 664.305L385.476 411.255L340.22 366L385.476 320.746L638.526 67.696L683.78 112.949L430.73 366L683.78 619.05z" />
    <glyph glyph-name="chevron-down"
      unicode="&#xE9A4;"
      horiz-adv-x="1024" d="M213.695 492.526L466.745 239.476L512 194.22L557.254 239.476L810.304 492.526L765.051 537.78L512 284.73L258.95 537.78z" />
    <glyph glyph-name="chevron-right"
      unicode="&#xE9A5;"
      horiz-adv-x="1024" d="M385.474 664.305L638.524 411.255L683.78 366L638.524 320.746L385.474 67.696L340.22 112.949L593.27 366L340.22 619.05z" />
    <glyph glyph-name="role"
      unicode="&#xE9A6;"
      horiz-adv-x="1024" d="M0 878V-146H365.047V-82H64V814H880V507.422H944V878H0zM414.11 709.937L250.17 565.328L179.3 627.278L137.178 579.092L250.359 480.156L456.447 661.941L414.109 709.937zM748 448.077C643.445 448.077 558 362.63 558 258.074C558 195.837 588.278 140.375 634.838 105.672C538.968 62.338 472 -34.237 472 -146H536C536 -28.537 630.537 66 748 66S960 -28.537 960 -146H1024C1024 -34.237 957.033 62.338 861.162 105.672C907.722 140.375 938 195.837 938 258.074C938 362.63 852.555 448.076 748 448.076zM416.94 437.105L252.997 292.496L182.127 354.446L140.007 306.26L253.188 207.324L459.275 389.11L416.939 437.106zM748 384.076C817.967 384.076 874 328.041 874 258.074S817.967 132.074 748 132.074S622 188.107 622 258.074S678.033 384.076 748 384.076z" />
    <glyph glyph-name="chevron-double-left"
      unicode="&#xE9AB;"
      horiz-adv-x="1024" d="M453.496 626.215L193.281 366L453.496 105.785L498.752 151.039L283.789 366.001L498.752 580.961L453.496 626.216zM785.465 626.215C698.725 539.477 611.988 452.737 525.248 366C611.989 279.263 698.726 192.523 785.465 105.785L830.719 151.039L615.758 365.999L830.718 580.96L785.465 626.214z" />
    <glyph glyph-name="chevron-double-right"
      unicode="&#xE9AD;"
      horiz-adv-x="1024" d="M570.504 626.215L830.719 366L570.504 105.785L525.248 151.039L740.211 366.001L525.248 580.961L570.504 626.216zM238.535 626.215C325.275 539.477 412.012 452.737 498.752 366C412.011 279.263 325.274 192.523 238.535 105.785L193.281 151.039L408.242 365.999L193.282 580.96L238.535 626.214z" />
    <glyph glyph-name="chevron-left-end"
      unicode="&#xE9AF;"
      horiz-adv-x="1024" d="M273.15 664.305V67.695H337.15V664.305zM705.594 664.305L452.543 411.255L407.287 366L452.543 320.746L705.593 67.696L750.85 112.949L497.797 366L750.85 619.05z" />
    <glyph glyph-name="chevron-right-end"
      unicode="&#xE9B1;"
      horiz-adv-x="1024" d="M750.85 664.305V67.695H686.85V664.305zM318.406 664.305L571.457 411.255L616.713 366L571.457 320.746L318.407 67.696L273.15 112.949L526.203 366L273.15 619.05z" />
    <glyph glyph-name="ellipsis-bottom"
      unicode="&#xE9B3;"
      horiz-adv-x="1024" d="M127.436 78.5A96 96 0 0 1 31.436 -17.5A96 96 0 0 1 127.436 -113.5A96 96 0 0 1 223.436 -17.5A96 96 0 0 1 127.436 78.5zM512 78.5A96 96 0 0 1 416 -17.5A96 96 0 0 1 512 -113.5A96 96 0 0 1 608 -17.5A96 96 0 0 1 512 78.5zM896.564 78.5A96 96 0 0 1 800.564 -17.5A96 96 0 0 1 896.564 -113.5A96 96 0 0 1 992.564 -17.5A96 96 0 0 1 896.564 78.5z" />
    <glyph glyph-name="ellipsis"
      unicode="&#xE9B4;"
      horiz-adv-x="1024" d="M127.436 462A96 96 0 0 1 31.436 366A96 96 0 0 1 127.436 270A96 96 0 0 1 223.436 366A96 96 0 0 1 127.436 462zM512 462A96 96 0 0 1 416 366A96 96 0 0 1 512 270A96 96 0 0 1 608 366A96 96 0 0 1 512 462zM896.564 462A96 96 0 0 1 800.564 366A96 96 0 0 1 896.564 270A96 96 0 0 1 992.564 366A96 96 0 0 1 896.564 462z" />
    <glyph glyph-name="ellipsis-vertical"
      unicode="&#xE9B5;"
      horiz-adv-x="1024" d="M416 -18.564A96 96 0 0 1 512 -114.564A96 96 0 0 1 608 -18.564A96 96 0 0 1 512 77.436A96 96 0 0 1 416 -18.564zM416 366A96 96 0 0 1 512 270A96 96 0 0 1 608 366A96 96 0 0 1 512 462A96 96 0 0 1 416 366zM416 750.564A96 96 0 0 1 512 654.564A96 96 0 0 1 608 750.564A96 96 0 0 1 512 846.564A96 96 0 0 1 416 750.564z" />
    <glyph glyph-name="star"
      unicode="&#xE9B6;"
      horiz-adv-x="1024" d="M1026.29 488.542H625.805L511.811 878L395.65 488.542L0.839 488.768L319.154 244.883L190.827 -146L511.811 97.062L829.607 -146.45L697.802 244.054L1026.29 488.542z" />
    <glyph glyph-name="star-outline"
      unicode="&#xE9B7;"
      horiz-adv-x="1024" d="M1026.29 488.542L697.802 244.054L829.607 -146.45L511.811 97.062L190.827 -146L319.154 244.883L0.839 488.768L395.65 488.542L511.811 878L625.805 488.542H1026.29zM912 451.87H599.566L510.634 756L420.011 451.87L112 452.047L360.333 261.596L260.219 -43.647L510.634 146.161L758.561 -44L655.734 260.948L912 451.87z" />
    <glyph glyph-name="pin-outline"
      unicode="&#xE9B9;"
      horiz-adv-x="1024" d="M642.332 833.484L619.783 810.781C581.791 772.531 566.235 717.225 573.328 660.066L427.618 513.75C333.522 544.436 236.553 528.514 173.736 465.436L151.125 442.732L341.721 251.346L72.764 -17.611L42.846 -101.484L129.456 -68.92L395.57 197.275L592.002 0.027L614.552 22.672C677.357 85.736 693.238 183.145 662.697 277.642L808.445 423.994C865.324 416.859 920.352 432.436 958.457 470.554L981.154 493.258L811.707 663.41zM646.437 738.668L766.605 618L886.674 497.434C863.935 486.511 835.671 483.097 803.818 489.678L786.996 493.154L587.768 293.098L596.486 273.025A283.792 283.792 0 0 0 598.334 268.656C623.088 202.03 618.005 138.958 589.383 93.356L416.695 266.76L244.08 440.088C289.567 468.833 352.512 473.914 418.951 448.949C420.571 448.319 422.191 447.674 423.807 447.009L443.434 438.939L642.129 638.455L638.656 655.406C632.095 687.434 635.512 715.831 646.437 738.668z" />
    <glyph glyph-name="pin"
      unicode="&#xE9BA;"
      horiz-adv-x="1024" d="M661.315 842.063A180.83 232.935 44.366 0 1 622.195 686.124L430.28 493.157A247.375 313.964 44.329 0 1 423.952 495.69A247.375 313.964 44.329 0 1 162.181 455.087L353.253 262.967L64.095 -26.19L34.177 -110.063L120.787 -77.499L407.062 208.862L604.964 9.87A247.375 313.964 44.329 0 1 645.344 273.081A247.375 313.964 44.329 0 1 642.704 279.331L834.788 472.471A180.83 232.935 44.366 0 1 989.823 511.749L825.57 676.907z" />
    <glyph glyph-name="pinned-outline"
      unicode="&#xE9BB;"
      horiz-adv-x="1024" d="M259.176 876.63L259.221 844.59C259.296 787.918 288.864 735.28 336.881 698.22V477.818C243.409 430.55 182.693 346.319 182.693 252.648V220.648H480V-78.512H480.9L512 -146L543.1 -78.512H544V220.648H839.742L839.74 252.648C839.74 346.321 779.024 430.553 685.549 477.82V698.297C733.54 735.335 763.105 787.93 763.213 844.57L763.273 876.63H259.176zM328.434 812.633H693.975C685.33 786.099 665.952 761.138 635.945 741.373L621.549 731.891V435.572L641.849 427.6C643.439 426.975 645.018 426.334 646.589 425.686C716.199 393.905 760.16 341.612 772.234 284.646H250.2C262.29 341.689 306.346 394.05 376.116 425.818A296.34 296.34 0 0 0 381.241 428.021L400.881 436.244V731.816L386.485 741.299C356.451 761.083 337.066 786.072 328.435 812.633z" />
    <glyph glyph-name="pinned"
      unicode="&#xE9BC;"
      horiz-adv-x="1024" d="M267.791 878A244.21 189.595 0 0 1 354 733.629V448.295A329.16 259.365 0 0 1 347.422 445.465A329.16 259.365 0 0 1 182.842 220.848H480V-78.512H480.9L512 -146L543.1 -78.512H544V220.848H841.164A329.16 259.365 0 0 1 676.582 445.465A329.16 259.365 0 0 1 670 448.123V733.711A244.21 189.595 0 0 1 756.213 878H267.79z" />
    <glyph glyph-name="unpin-outline"
      unicode="&#xE9BD;"
      horiz-adv-x="1024" d="M1022.533 617.357L990.493 617.312C933.82 617.237 881.183 587.67 844.123 539.652H623.721C576.452 633.125 492.221 693.84 398.551 693.84H366.551V396.533H67.39V395.633L-0.099 364.533L67.39 333.433V332.533H366.55V36.791L398.55 36.793C492.222 36.793 576.454 97.509 623.722 190.984H844.198C881.237 142.994 933.831 113.428 990.472 113.32L1022.532 113.26V365.316zM958.535 548.1V182.559C932.002 191.203 907.041 210.582 887.275 240.588L877.793 254.984H581.475L573.502 234.684A300.62 300.62 0 0 0 571.588 229.944C539.808 160.334 487.515 116.374 430.548 104.299V626.334C487.591 614.244 539.952 570.188 571.721 500.418A296.315 296.315 0 0 0 573.924 495.293L582.146 475.653H877.72L887.202 490.049C906.987 520.083 931.975 539.469 958.536 548.099z" />
    <glyph glyph-name="unpin"
      unicode="&#xE9BE;"
      horiz-adv-x="1024" d="M1024 610.212A189.595 244.21 0 0 1 879.629 524.002H594.295A259.365 329.16 0 0 1 591.465 530.581A259.365 329.16 0 0 1 366.848 695.161V398.003H67.488V397.103L0 366.003L67.488 334.903V334.003H366.848V36.839A259.365 329.16 0 0 1 591.465 201.42A259.365 329.16 0 0 1 594.123 208.002H879.711A189.595 244.21 0 0 1 1024 121.79V366.001z" />
    <glyph glyph-name="triangle-left"
      unicode="&#xE9C8;"
      horiz-adv-x="1024" d="M616 110L360 366L616 622z" />
    <glyph glyph-name="triangle-right"
      unicode="&#xE9CA;"
      horiz-adv-x="1024" d="M360 110L616 366L360 622z" />
    <glyph glyph-name="triangle-right-down"
      unicode="&#xE9CB;"
      horiz-adv-x="1024" d="M693.02 547.02V184.98H330.98z" />
    <glyph glyph-name="triangle-right-outline"
      unicode="&#xE9CD;"
      horiz-adv-x="1024" d="M360 622V110L616 366L360 622zM407.293 494L539.896 366L407.293 238V494z" />
    <glyph glyph-name="external"
      unicode="&#xE9D0;"
      horiz-adv-x="1024" d="M173.188 704.045V27.955H850.813V199.165H786.813V91.955H237.188V640.045H340.563V704.045H173.188zM509.308 704.045V640.045H742.11L499.676 397.613L544.932 352.357L786.812 594.24V364.842H850.812V704.045H509.31z" />
    <glyph glyph-name="bell"
      unicode="&#xE9D1;"
      horiz-adv-x="1024" d="M512 878C319.704 878 160 736.274 160 558V67.133H64V3.133H360.453V2.527C360.453 -79.572 429.12 -146 512 -146S663.547 -79.572 663.547 2.527V3.133H960V67.133H864V558C864 736.274 704.296 878 512 878zM512 814C673.166 814 800 697.842 800 558V67.133H224V558C224 697.842 350.834 814 512 814zM424.453 3.133H599.547V2.527C599.547 -44.087 561.167 -82 512 -82C462.833 -82 424.453 -44.087 424.453 2.527V3.133z" />
    <glyph glyph-name="list"
      unicode="&#xE9DC;"
      horiz-adv-x="1024" d="M0 799.734V595.734H204V799.734H0zM364.354 726.451V662.451H1024V726.451H364.354zM0 428.867V224.867H204V428.867H0zM364.354 361.451V297.451H1024V361.451H364.354zM0 58V-146H204V58H0zM364.354 -3.547V-67.547H1024V-3.547H364.354z" />
    <glyph glyph-name="file"
      unicode="&#xE9DD;"
      horiz-adv-x="1024" d="M128.08 842.775L129.787 -116.969M96.082 878L95.998 -146H928V603.254L653.254 878zM160.078 814H608V558H864V-82H160.002zM672 768.746L818.746 622H672z" />
    <glyph glyph-name="file-error"
      unicode="&#xE9DE;"
      horiz-adv-x="1024" d="M128.08 842.775L129.787 -116.969M96.082 878L95.998 -146H928V603.254L653.254 878H96.082zM160.078 814H608V558H864V-82H160.002L160.078 814zM672 768.746L818.746 622H672V768.746zM480 559.281V189.023H544V559.281H480zM480 139.651V75.651H544V139.651H480z" />
    <glyph glyph-name="file-download-pdf"
      unicode="&#xE9DF;"
      horiz-adv-x="1024" d="M148.082 878.912L148.066 681.612H212.066L212.078 814.795L591.824 814.107L593.596 527.262H886V-82H212.002L212.047 435.697H148.045L147.998 -146H950V603.65L663.902 877.977L148.082 878.912zM655.93 796.953L870.447 591.262H657.201L655.93 796.953zM0 698.687V427.16H524.273V698.687H0zM36.434 648.822H92.098C113.191 648.822 126.941 647.962 133.348 646.244C143.191 643.666 151.434 638.041 158.074 629.369C164.714 620.775 168.035 609.643 168.035 595.971C168.035 585.424 166.121 576.557 162.293 569.369C158.465 562.182 153.582 556.518 147.645 552.377C141.785 548.314 135.809 545.619 129.715 544.291C121.434 542.651 109.441 541.831 93.738 541.831H71.121V477.025H36.434V648.822zM196.394 648.822H259.793C274.09 648.822 284.988 647.729 292.488 645.541C302.566 642.572 311.199 637.299 318.387 629.721C325.574 622.143 331.043 612.846 334.793 601.831C338.543 590.893 340.418 577.377 340.418 561.283C340.418 547.143 338.66 534.955 335.145 524.721C330.848 512.221 324.715 502.104 316.746 494.369C310.73 488.509 302.606 483.939 292.371 480.659C284.715 478.236 274.481 477.025 261.668 477.025H196.395V648.822zM370.066 648.822H487.84V619.76H404.754V579.096H476.473V550.033H404.753V477.025H370.066V648.822zM71.121 619.76V571.01H90.105C103.777 571.01 112.918 571.908 117.527 573.705C122.137 575.502 125.73 578.315 128.309 582.143C130.965 585.971 132.293 590.423 132.293 595.502C132.293 601.752 130.457 606.908 126.785 610.971C123.113 615.033 118.465 617.572 112.84 618.588C108.7 619.369 100.379 619.76 87.879 619.76H71.12zM231.082 619.76V505.97H256.98C266.668 505.97 273.66 506.518 277.957 507.611C283.582 509.018 288.23 511.401 291.902 514.76C295.652 518.12 298.699 523.627 301.043 531.283C303.387 539.018 304.559 549.525 304.559 562.807C304.559 576.087 303.387 586.283 301.043 593.393C298.699 600.502 295.418 606.049 291.199 610.033C286.98 614.018 281.629 616.713 275.145 618.119C270.301 619.213 260.809 619.759 246.668 619.759H231.082zM603.643 278V130.014H486.703L667.643 -50.926L848.582 130.014H731.642V278z" />
    <glyph glyph-name="file-failure"
      unicode="&#xE9E0;"
      horiz-adv-x="1024" d="M148.082 878.912L148.052 517.222A384 384 0 0 0 212.055 542.27L212.078 814.795L591.824 814.107L593.596 527.262H886V-82H605.668A384 384 0 0 0 531.846 -146H950V603.65L663.902 877.977L148.082 878.912zM655.93 796.953L870.447 591.262H657.201L655.93 796.953zM320 494C143.648 494 0 350.352 0 174S143.648 -146 320 -146S640 -2.352 640 174S496.352 494 320 494zM320 430C461.764 430 576 315.764 576 174S461.764 -82 320 -82S64 32.236 64 174S178.236 430 320 430zM195.549 343.705L150.295 298.451L274.746 174L150.295 49.549L195.549 4.295L320 128.746L444.451 4.295L489.705 49.549L365.254 174L489.705 298.451L444.451 343.705L320 219.254L195.549 343.705z" />
    <glyph glyph-name="file-content"
      unicode="&#xE9E1;"
      horiz-adv-x="1024" d="M128.08 842.775L129.787 -116.969M96.082 878L95.998 -146H928V603.254L653.254 878H96.082zM160.078 814H608V558H864V-82H160.002L160.078 814zM672 768.746L818.746 622H672V768.746zM256 622.48V558.48H512V622.48H256zM256 454.974V390.974H768V454.974H256zM256 287.466V223.466H768V287.466H256zM256 119.96V55.96H512V119.96H256z" />
    <glyph glyph-name="file-image"
      unicode="&#xE9E2;"
      horiz-adv-x="1024" d="M37.147 878C37.121 536.667 37.091 195.333 37.063 -146H839.065V-82H775.065V-82.057H101.067L101.144 813.939L480.89 813.254L481.874 654.031H545.874L544.995 796.113L693.305 654.031H785.778L552.968 877.064zM329.547 585.723V4.279H986.937V585.723zM393.547 521.723H922.937V120.2L768.546 268.98L698.528 197.255L548.25 344.119L393.548 189.418zM802.7 441.459A42.693 42.693 0 0 1 760.007 398.766A42.693 42.693 0 0 1 802.7 356.072A42.693 42.693 0 0 1 845.394 398.766A42.693 42.693 0 0 1 802.7 441.459z" />
    <glyph glyph-name="file-preview"
      unicode="&#xE9E3;"
      horiz-adv-x="1024" d="M148.082 878.912L148.08 846.857L148.041 366.318H212.039L212.079 814.795L591.824 814.107L593.596 527.262H886V-82H362.04V-146H950V603.65L663.902 877.977L148.082 878.912zM655.93 796.953L870.447 591.262H657.201L655.93 796.953zM438.799 405.61C340.039 405.61 260.021 323.269 260.021 223.419C260.021 185.757 271.411 150.591 290.891 121.389L78.123 -91.378L123.377 -136.632L335.164 75.155C364.394 53.832 400.162 41.228 438.799 41.228C537.558 41.228 617.574 123.569 617.574 223.419C617.574 323.269 537.558 405.61 438.799 405.61zM438.799 341.61C502.165 341.61 553.574 289.467 553.574 223.419S502.164 105.227 438.8 105.227C375.434 105.227 324.022 157.37 324.022 223.418S375.433 341.609 438.8 341.609z" />
    <glyph glyph-name="file-link"
      unicode="&#xE9E4;"
      horiz-adv-x="1024" d="M148.082 878.912L148.051 508.061H212.053L212.078 814.795L591.824 814.107L593.596 527.262H886V-82H693.338V-146H950V603.65L663.902 877.977L148.082 878.912zM655.93 796.953L870.447 591.262H657.201L655.93 796.953zM32 435.441V-146H618V435.441H32zM96 371.441H554V-82H96V371.441zM160 290.285V226.285H359.03L160 27.254L205.254 -18L407.334 184.078V-18H471.334L472.514 290.285H160z" />
    <glyph glyph-name="file-user"
      unicode="&#xE9E5;"
      horiz-adv-x="1024" d="M111.084 878C111.057 536.667 111.026 195.333 110.998 -146H913.002V602.982L626.904 877.064L111.084 878zM175.08 813.94L554.826 813.254L556.598 526.662H849.002V-82.057H175.004L175.08 813.939zM618.932 796.113L833.449 590.605H620.203L618.932 796.113zM512 484.721C415.177 484.721 336 405.544 336 308.721C336 253.211 362.03 203.511 402.484 171.195C322.038 133.923 266 56.928 266 -32.844H330.604C330.604 57.266 410.318 131.754 512 131.754C613.682 131.754 693.396 57.265 693.396 -32.844H758C758 56.928 701.962 133.923 621.516 171.196C661.969 203.51 688 253.21 688 308.72C688 405.543 608.823 484.72 512 484.72zM512 420.721C574.235 420.721 624 370.956 624 308.721S574.235 196.721 512 196.721S400 246.486 400 308.721S449.765 420.721 512 420.721z" />
    <glyph glyph-name="file-signature"
      unicode="&#xE9E6;"
      horiz-adv-x="1024" d="M37.08 878L36.996 -146H838.998V356.34H774.998V-82.057H101L101.076 813.939L480.822 813.254L481.232 747.012H545.232C545.132 763.379 545.029 779.746 544.928 796.113L596.182 747.012H688.654L552.9 877.064L37.08 878zM891.525 846.082C890.685 846.086 889.845 846.082 889.005 846.068C859.465 845.614 830.875 834.562 809.592 813.35L335.06 340.844L271.04 96L518.392 157.754L990.667 631.078C1021.775 661.815 1031.463 708.191 1018.235 750.602C1011.615 771.827 999.971 790.822 984.685 806.197C969.399 821.573 950.47 833.33 929.28 840.08C916.883 844.03 904.134 846.02 891.524 846.082zM893.559 781.328A52.218 52.218 0 0 0 895.863 781.324C900.429 781.215 905.069 780.504 909.777 779.098C920.717 775.613 930.85 769.178 939.102 760.878C947.353 752.58 953.722 742.414 957.137 731.468C963.964 709.578 958.767 689.433 945.684 676.535L921.574 652.371L829.304 744.641C848.1 764.28 869.804 780.848 893.559 781.328zM784.018 699.354L876.336 607.035L526.126 256.053A159.62 159.62 0 0 1 522.196 264.439C513.418 281.809 501.674 297.862 487.789 311.787C473.904 325.712 457.875 337.506 440.523 346.35A162.993 162.993 0 0 1 434.109 349.447L784.018 699.354zM389.949 296.428C395.282 295.769 402.843 293.683 411.399 289.322C421.857 283.992 432.638 275.757 442.121 266.246C451.604 256.736 459.793 245.947 465.068 235.508C469.825 226.096 471.827 217.898 472.201 212.609L360.491 184.49L389.949 296.428zM158.82 46V-18H729.99V46H158.82z" />
    <glyph glyph-name="file-success"
      unicode="&#xE9E7;"
      horiz-adv-x="1024" d="M148.082 878.912L148.08 846.857L148.053 517.223A384 384 0 0 0 212.055 542.27L212.078 814.795L591.824 814.107L593.596 527.262H886V-82H605.668A384 384 0 0 0 531.846 -146H950V603.65L663.902 877.977L148.082 878.912zM655.93 796.953L870.447 591.262H657.201L655.93 796.953zM320 494C143.648 494 0 350.352 0 174S143.648 -146 320 -146S640 -2.352 640 174S496.352 494 320 494zM320 430C461.764 430 576 315.764 576 174S461.764 -82 320 -82S64 32.236 64 174S178.236 430 320 430zM481.158 303.12L287.32 109.28L163.518 233.082L118.264 187.826L287.32 18.77C367.016 98.47 446.716 178.165 526.414 257.863L481.158 303.119z" />
    <glyph glyph-name="file-warning"
      unicode="&#xE9E8;"
      horiz-adv-x="1024" d="M148.082 878.912C148.067 680.18 148.05 481.449 148.033 282.717L212.043 410.738L212.078 814.795L591.824 814.107L593.596 527.262H886V-82H676.023L708.023 -146H950V603.65L663.902 877.977L148.082 878.912zM655.93 796.953L870.447 591.262H657.201L655.93 796.953zM320.016 498.973L0 -146H640.033L320.016 498.973zM320.016 354.98L536.834 -82H103.199L320.016 354.98zM287.885 233.44V48H351.885V233.44H287.885zM287.885 16V-48H351.885V16H287.885z" />
    <glyph glyph-name="report"
      unicode="&#xE9E9;"
      horiz-adv-x="1024" d="M96 878V-146H928V878H96zM160 814H864V-82H160V814zM668 750V366H796V750H668zM446 654V366H574V654H446zM224 562V366H352V562H224zM224 302V238H800V302H224zM224 174V110H800V174H224zM224 46V-18H384V46H224zM446.102 46V-18H574.102V46H446.102zM636.203 46V-18H796.203V46H636.203z" />
    <glyph glyph-name="company"
      unicode="&#xE9EA;"
      horiz-adv-x="1024" d="M512 878C376.221 878 245.97 824.049 149.96 728.04C53.952 632.03 0 501.778 0 366C0 230.221 53.951 99.97 149.96 3.96C245.97 -92.048 376.222 -146 512 -146C647.779 -146 778.03 -92.049 874.04 3.96C970.048 99.97 1024 230.222 1024 366C1024 501.779 970.049 632.03 874.04 728.04C778.03 824.048 647.778 878 512 878zM512 814A447.956 447.956 0 0 0 828.783 682.783A447.956 447.956 0 0 0 960 366A447.956 447.956 0 0 0 828.783 49.217A447.956 447.956 0 0 0 512 -82A447.956 447.956 0 0 0 195.217 49.217A447.956 447.956 0 0 0 64 366A447.956 447.956 0 0 0 195.217 682.783A447.956 447.956 0 0 0 512 814zM263.547 559.207V303.207H386.113V367.207H327.547V495.207L590.793 492.793V559.207H263.547zM450.113 428.793V167.963H779.773V428.793H450.113zM514.113 364.793H715.773V231.963H514.113V364.793z" />
    <glyph glyph-name="home"
      unicode="&#xE9EB;"
      horiz-adv-x="1024" d="M515.518 850.818L2.492 334.221L47.904 289.123L95.721 337.273V-130H432.121L434.854 242H591.72V-130H927.685L928.196 336.295L975.702 287.615L1021.507 332.312L515.517 850.818zM515.119 759.592L864.269 401.805L863.757 -66H655.72V306H371.32L368.589 -66H159.72V401.719L515.12 759.592z" />
    <glyph glyph-name="menu"
      unicode="&#xE9F9;"
      horiz-adv-x="1024" d="M96 695H928V622H96zM96 402H928V329H96zM96 109H928V36H96z" />
    <glyph glyph-name="close"
      unicode="&#xE9FA;"
      horiz-adv-x="1024" d="M86.676 836.58L41.42 791.324L466.744 366L41.42 -59.324L86.676 -104.58L512 320.744L937.324 -104.58L982.58 -59.324L557.256 366L982.58 791.324L937.324 836.58L512 411.256L86.676 836.58z" />
    <glyph glyph-name="history"
      unicode="&#xE9FF;"
      horiz-adv-x="1024" d="M511.604 877.885C330.65 880.936 151.88 781.483 60.932 624.684V807.229H-3.068V513.646H290.514V577.646H107.81C198.757 751.6 411.242 847.69 602.15 803.87C790.006 767.22 942.738 599.256 957.995 407.947C978.65 220.25 864.379 29.353 690.711 -43.617C514.771 -123.617 291.251 -75.359 165.351 71.685C121.511 121.343 89.011 180.918 70.968 244.652L9.41 227.145C66.368 15.128 272.59 -142.493 491.489 -145.788C699.179 -154.446 904.566 -25.138 983.642 167.732C1067.558 358.077 1016.738 596.042 863.548 736.496C769.596 825.976 641.207 877.04 511.604 877.885zM449.695 660.438V345.378L645.09 130.394L692.451 173.438L513.695 370.118V660.438H449.695z" />
    <glyph glyph-name="reload"
      unicode="&#xEA00;"
      horiz-adv-x="1024" d="M66.818 878V814H311.211C148.429 735.114 32.505 562.071 32.242 379.143C24.819 164.135 174.952 -43.653 380.892 -105.398C581.352 -171.984 819.467 -92.939 938.17 82.418C1060.096 252.611 1054.945 500.838 924.77 665.154C887.253 714.435 840.482 756.654 787.574 788.864L754.287 734.2C895.134 650.257 979.855 481.77 959.133 318.491C944.498 150.749 819.713 0.393 657.557 -44.94C494.665 -97.187 303.91 -41.145 197.303 93.177C89.6 219.846 63.6 410.642 140.938 558.994C189.438 654.913 274.152 733.465 374.945 771.204V525.498H439.443V878H66.818z" />
    <glyph glyph-name="upgrade"
      unicode="&#xEA01;"
      horiz-adv-x="1024" d="M512 878C376.222 878 245.97 824.049 149.96 728.04C53.952 632.03 0 501.777 0 366C0 230.222 53.951 99.97 149.96 3.96C245.97 -92.048 376.223 -146 512 -146C647.778 -146 778.03 -92.049 874.04 3.96C970.048 99.97 1024 230.223 1024 366C1024 501.778 970.049 632.03 874.04 728.04C778.03 824.048 647.777 878 512 878zM512 814A447.957 447.957 0 0 0 828.783 682.783A447.957 447.957 0 0 0 960 366A447.957 447.957 0 0 0 828.783 49.217A447.957 447.957 0 0 0 512 -82A447.957 447.957 0 0 0 195.217 49.217A447.957 447.957 0 0 0 64 366A447.957 447.957 0 0 0 195.217 682.783A447.957 447.957 0 0 0 512 814zM512 650.568L285.727 424.295L330.98 379.039L480 528.061V81.431H544V528.061L693.02 379.039L738.273 424.295L512 650.568z" />
    <glyph glyph-name="error"
      unicode="&#xEA02;"
      horiz-adv-x="1024" d="M512 878A512 512 0 0 1 0 366A512 512 0 0 1 512 -146A512 512 0 0 1 1024 366A512 512 0 0 1 512 878zM587.553 740.518V199.908L436.447 197.138V737.748L587.553 740.518zM587.553 126.605V-5.748L436.447 -8.518V123.836L587.553 126.606z" />
    <glyph glyph-name="error-outline"
      unicode="&#xEA03;"
      horiz-adv-x="1024" d="M512 878A512 512 0 0 1 0 366A512 512 0 0 1 512 -146A512 512 0 0 1 1024 366A512 512 0 0 1 512 878zM512 814A448 448 0 0 0 960 366A448 448 0 0 0 512 -82A448 448 0 0 0 64 366A448 448 0 0 0 512 814zM464.953 129.6V36.568H559.048V129.6zM464.953 695.433V218.138H559.048V695.433z" />
    <glyph glyph-name="failure"
      unicode="&#xEA04;"
      horiz-adv-x="1024" d="M512 878A512 512 0 0 1 0 366A512 512 0 0 1 512 -146A512 512 0 0 1 1024 366A512 512 0 0 1 512 878zM299.37 666L512 453.37L724.63 666L812 578.63L599.37 366L812 153.37L724.63 66L512 278.63L299.37 66L212 153.37L424.63 366L212 578.63L299.37 666z" />
    <glyph glyph-name="failure-outline"
      unicode="&#xEA05;"
      horiz-adv-x="1024" d="M512 878A512 512 0 0 1 0 366A512 512 0 0 1 512 -146A512 512 0 0 1 1024 366A512 512 0 0 1 512 878zM512 814A448 448 0 0 0 960 366A448 448 0 0 0 512 -82A448 448 0 0 0 64 366A448 448 0 0 0 512 814zM288.41 640.98L237.02 589.59L460.61 366L237.02 142.41L288.41 91.02L512 314.61L735.59 91.02L786.98 142.41L563.39 366L786.98 589.59L735.59 640.98L512 417.39L288.41 640.98z" />
    <glyph glyph-name="help"
      unicode="&#xEA06;"
      horiz-adv-x="1024" d="M512 878A512 512 0 0 1 0 366A512 512 0 0 1 512 -146A512 512 0 0 1 1024 366A512 512 0 0 1 512 878zM512.785 737.121C595.323 737.121 660.907 715.903 709.537 673.467C758.168 631.365 782.391 582.245 782.203 526.109C782.099 495.034 772.963 465.63 754.793 437.896C736.965 410.163 698.639 372.403 639.816 324.621C609.379 299.895 590.384 280.013 582.83 264.977C575.617 249.94 572.287 223.042 572.84 184.281H442.383C442.103 202.659 441.971 213.853 441.984 217.863C442.123 259.297 449.228 293.38 463.301 320.111C477.374 346.843 505.441 376.916 547.504 410.331C589.567 443.744 614.71 465.63 622.93 475.988C635.604 492.361 641.973 510.405 642.04 530.119C642.13 557.519 630.953 580.909 608.508 600.289C586.405 620.003 556.424 629.861 518.566 629.861C482.073 629.861 451.513 619.67 426.889 599.287C402.264 578.904 385.276 547.828 375.928 506.061L243.99 522.1C247.942 581.911 274.032 632.7 322.262 674.469C370.832 716.236 434.34 737.121 512.785 737.121zM442.221 135.664H585.979L585.508 -5.176H441.75L442.22 135.664z" />
    <glyph glyph-name="help-outline"
      unicode="&#xEA07;"
      horiz-adv-x="1024" d="M512 878A512 512 0 0 1 0 366A512 512 0 0 1 512 -146A512 512 0 0 1 1024 366A512 512 0 0 1 512 878zM512 814A448 448 0 0 0 960 366A448 448 0 0 0 512 -82A448 448 0 0 0 64 366A448 448 0 0 0 512 814zM464.43 193.194Q463.908 209.374 463.908 217.464Q463.908 265.103 479.59 299.709Q491.091 325.776 516.706 352.292Q535.525 371.618 584.141 408.472Q633.279 445.774 647.916 467.796T662.553 515.885Q662.553 563.075 619.688 598.58Q576.822 634.535 514.615 634.535Q454.498 634.535 414.247 602.175Q373.995 569.817 361.449 501.054L264.74 510.941Q277.809 603.075 342.107 652.062Q406.928 701.05 513.047 701.05Q625.437 701.05 692.35 648.467Q759.262 595.884 759.262 521.278Q759.262 478.133 735.738 441.729Q712.215 405.325 643.734 353.191Q597.732 318.136 583.618 301.507Q569.504 284.877 562.708 263.305Q555.912 241.732 554.867 193.194zM458.68 30.95V123.083H565.843V30.95z" />
    <glyph glyph-name="info"
      unicode="&#xEA08;"
      horiz-adv-x="1024" d="M512 878A512 512 0 0 1 0 366A512 512 0 0 1 512 -146A512 512 0 0 1 1024 366A512 512 0 0 1 512 878zM436.447 740.518L587.553 737.748V605.395L436.447 608.165V740.517zM436.447 534.861L587.553 532.091V-8.518L436.447 -5.748V534.862z" />
    <glyph glyph-name="info-outline"
      unicode="&#xEA09;"
      horiz-adv-x="1024" d="M512 878A512 512 0 0 1 0 366A512 512 0 0 1 512 -146A512 512 0 0 1 1024 366A512 512 0 0 1 512 878zM512 814A448 448 0 0 0 960 366A448 448 0 0 0 512 -82A448 448 0 0 0 64 366A448 448 0 0 0 512 814zM464.953 602.4V695.433H559.048V602.4zM464.953 36.568V513.863H559.048V36.568z" />
    <glyph glyph-name="ban"
      unicode="&#xEA0A;"
      horiz-adv-x="1024" d="M512 878A512 512 0 0 1 0 366A512 512 0 0 1 512 -146A512 512 0 0 1 1024 366A512 512 0 0 1 512 878zM512 814A448 448 0 0 0 805.47 704.12L174.07 72.719A448 448 0 0 0 64 366A448 448 0 0 0 512 814zM849.93 659.281A448 448 0 0 0 960 366A448 448 0 0 0 512 -82A448 448 0 0 0 218.53 27.88L849.93 659.281z" />
    </font>
</defs>
</svg>
