<?xml version="1.0" standalone="no"?>
<!DOCTYPE svg PUBLIC "-//W3C//DTD SVG 1.1//EN" "http://www.w3.org/Graphics/SVG/1.1/DTD/svg11.dtd" >
<svg xmlns="http://www.w3.org/2000/svg">
<metadata>
<json>
<![CDATA[
{
	"fontFamily": "Bowtie",
	"majorVersion": 1,
	"minorVersion": 0,
	"description": "Icon font for Visual Studio Online\nFont generated by IcoMoon.",
	"copyright": "Copyright (C) 2015, Microsoft Corp.",
	"designer": "Jim Lamb",
	"license": "CC BY 4.0",
	"licenseURL": "http://creativecommons.org/licenses/by/4.0/",
	"version": "Version 1.0",
	"fontId": "Bowtie",
	"psName": "Bowtie",
	"subFamily": "Regular",
	"fullName": "Bowtie"
}
]]>
</json>
</metadata>
<defs>
<font id="Bowtie" horiz-adv-x="1024">
<font-face units-per-em="1024" ascent="844.8" descent="-179.2" />
<missing-glyph horiz-adv-x="1024" />
<glyph unicode="&#x20;" horiz-adv-x="256" d="" />
<glyph unicode="&#xe600;" glyph-name="alert" data-tags="alert" horiz-adv-x="878" d="M36.571 877.714c20.198 0 36.571-16.374 36.571-36.571v-950.857c0-20.198-16.374-36.571-36.571-36.571s-36.571 16.374-36.571 36.571v950.857c0 20.198 16.374 36.571 36.571 36.571zM146.286 841.143v-512l694.857 256z" />
<glyph unicode="&#xe601;" glyph-name="approve" data-tags="approve" d="M292.598 364.47c-1.706 94.893 78.489 152.955 155.079 199.154 99.444 56.538 206.338 123.592 245.161 235.9 14.495 38.317 35.523 90.188 83.471 75.702 47.954-18.373 58.958-80.369 50.374-121.166-7.968-56.244-44.917-100.867-76.512-146.046-25.617-45.99-32.629-120.599-48.28-170.579 115.935-0.631 181.802 2.253 297.668 0 37.208-36.483 37.208-109.448-37.209-145.93 37.209-36.483 37.209-109.448-37.208-145.93 37.208-36.483 37.208-109.448-37.209-145.93 37.209-36.483 37.209-109.448-37.208-145.931h-148.834c-116.749 0-408.304 12.681-409.293 72.965 0.001 132.564-0.002 305.229 0 437.791zM221.193-146.283h-221.193v585.14h221.193v-585.14z" />
<glyph unicode="&#xe602;" glyph-name="approve-disapprove" data-tags="approve-disapprove" d="M292.598 366.958c-1.706-94.893 78.489-152.955 155.079-199.154 99.444-56.538 206.338-123.592 245.161-235.9 14.495-38.317 35.523-90.188 83.471-75.702 47.954 18.373 58.958 80.369 50.374 121.166-7.968 56.244-44.917 100.867-76.512 146.046-25.617 45.99-32.629 120.599-48.28 170.579 115.935 0.631 181.802-2.253 297.668 0 37.208 36.483 37.208 109.448-37.209 145.93 37.209 36.483 37.209 109.448-37.208 145.93 37.208 36.483 37.208 109.448-37.209 145.93 37.209 36.483 37.209 109.448-37.208 145.931h-148.834c-116.749 0-408.304-12.681-409.293-72.965 0.001-132.564-0.002-305.229 0-437.791zM221.193 877.711h-221.193v-585.14h221.193v585.14z" />
<glyph unicode="&#xe603;" glyph-name="arrow-down" data-tags="arrow-down" horiz-adv-x="878" d="M438.857-146.286l438.857 438.857v182.857l-365.714-365.714v768h-146.286v-768l-365.714 365.714v-182.857z" />
<glyph unicode="&#xe604;" glyph-name="arrow-left" data-tags="arrow-left" d="M0 365.714l438.857-438.857h182.857l-365.714 365.714h768v146.286h-768l365.714 365.714h-182.857z" />
<glyph unicode="&#xe605;" glyph-name="arrow-right" data-tags="arrow-right" d="M1024 365.714l-438.857-438.857h-182.857l365.714 365.714h-768v146.286h768l-365.714 365.714h182.857z" />
<glyph unicode="&#xe606;" glyph-name="arrow-up" data-tags="arrow-up" horiz-adv-x="878" d="M438.857 877.714l438.857-438.857v-182.857l-365.714 365.714v-768h-146.286v768l-365.714-365.714v182.857z" />
<glyph unicode="&#xe607;" glyph-name="attach" data-tags="attach" horiz-adv-x="731" d="M585.143 585.142c-0.371-154.939 1.318-357.080 0-512 0-109.714-146.286-219.429-256-219.429s-256 109.714-256 219.429c0.821 196.831-1.44 420.913 0 621.714 0 109.714 73.143 182.857 182.857 182.857s182.857-73.143 182.857-182.857c0-109.714 1.419-324.889 0-475.429 0-73.143-36.571-146.286-109.714-146.286s-109.714 73.143-109.714 146.286v365.714c0 73.143 73.143 73.143 73.143 0v-365.714c0-73.143 73.143-73.143 73.143 0s1.276 328.578 0 475.429c-2.853 65.032-36.571 109.714-109.714 109.714s-109.714-36.571-109.714-109.714v-621.714c2.356-96.889 109.714-146.286 182.857-146.286s182.857 73.143 182.857 146.286v512c0 73.143 73.143 73.143 73.143 0z" />
<glyph unicode="&#xe608;" glyph-name="azure-api-management" data-tags="azure-api-management" horiz-adv-x="1170" d="M515.634 303.226c-82.781 0-150.846-69.581-150.846-154.205s68.065-154.205 150.846-154.205c82.78 0 150.846 69.581 150.846 154.205s-68.065 154.205-150.846 154.205zM661.55 877.714c-220.172 0-324.413-174.613-349.015-221.732h-75.916l-2.956-1.009c0 0-57.468-8.663-115.352-46.363s-118.31-108.939-118.31-222.739c0-126.59 68.338-201.088 134.085-236.85s131.127-38.3 131.127-38.3l0.984-1.009h0.985l260.282 3.021v64.504l-259.297-3.021c0 0-1.88-0.005-1.972 0-2.978 0.224-52.213 4.883-102.536 32.252-51.859 28.207-100.564 75.214-100.564 179.401 0 91.649 43.096 138.591 88.733 168.315s91.69 37.292 91.69 37.292h107.465l7.887 18.141c0 0 89.017 203.591 302.677 203.591 107.35 0 171.869-39.777 215.916-84.662s65.279-94.815 77.888-121.953c6.927-14.909 12.866-69.341 12.817-114.898-0.061-45.557-2.956-84.662-2.956-84.662l-2.956-36.283 35.493 2.011c0 0 29.541 0.374 57.183-12.094 27.642-12.459 52.172-31.403 52.254-91.716 0.062-40.823-18.494-59.525-40.423-73.575s-44.366-18.142-44.366-18.142l-262.254 5.040-0.985-64.504 271.126-5.040 1.972 1.009c0 0 34.287 5.593 68.028 27.212s70.087 63.845 70 128c-0.124 82.222-46.283 131.603-89.719 151.181-18.822 8.484-36.305 10.944-51.268 13.102 1.003 16.050 1.938 26.803 1.972 58.457 0.062 48.571 0.095 101.582-18.732 142.11-10.802 23.25-35.917 86.278-89.718 141.102s-138.351 102.804-261.269 102.804zM515.634 449.368c-39.831 0-77.784-9.333-112.395-24.189l30.564-68.536c25.277 10.422 52.733 17.135 81.831 17.135 120.82 0 216.902-99.23 216.902-222.74s-96.082-221.732-216.902-221.732c-30.519 0-59.514 5.728-85.775 17.134l-30.564-68.536c35.599-15.881 75.078-24.189 116.338-24.189 160.633 0 290.846 133.113 290.846 297.323s-130.213 298.331-290.846 298.331z" />
<glyph unicode="&#xe609;" glyph-name="azure-service-endpoint" data-tags="azure-service-endpoint" horiz-adv-x="1170" d="M292.571 658.285c0 0 0 0 0 0-161.583 0-292.571-130.989-292.571-292.571 0 0 0 0 0 0s0 0 0 0c0-161.583 130.989-292.571 292.571-292.571 0 0 0 0 0 0 107.638 0.118 201.65 58.345 252.367 144.993l-142.965 1.292c-30.146-22.807-68.26-36.542-109.579-36.572-100.812 0-182.679 81.868-182.679 182.857s81.868 182.857 182.857 182.857c41.319-0.087 79.403-13.864 109.975-37.034l142.981 0.463c-51.482 87.99-145.481 146.18-253.080 146.286zM292.571 438.857c-40.521 0-73.143-32.622-73.143-73.143s32.622-73.143 73.143-73.143h877.714v146.286h-877.714z" />
<glyph unicode="&#xe60a;" glyph-name="build" data-tags="build" d="M0 438.857v-585.143h1024v585.143h-146.286v-292.571h-731.429v292.571h-146.286zM292.571 73.143h146.286v-146.286h-146.286v146.286zM585.143 73.143h146.286v-146.286h-146.286v146.286zM219.429 365.714h146.286v-146.286h-146.286v146.286zM438.857 365.714h146.286v-146.286h-146.286v146.286zM658.286 365.714h146.286v-146.286h-146.286v146.286zM475.429 877.714v-292.571l-182.857 182.857v-109.714l219.429-219.429 219.429 219.429v109.714l-182.857-182.857v292.571h-73.143z" />
<glyph unicode="&#xe60b;" glyph-name="build-queue" data-tags="build-queue" d="M73.143 585.143v-658.286h658.286v658.286h-658.286zM146.286 512h512v-512h-512v512zM219.429 731.428v-73.143h585.143v-585.143h73.143v658.286h-658.286zM365.714 877.714v-73.143h585.143v-585.143h73.143v658.286h-658.286z" />
<glyph unicode="&#xe60c;" glyph-name="build-queue-new" data-tags="build-queue-new" d="M365.714 438.857v-146.286h-146.286v-73.143h146.286v-146.286h73.143v146.286h146.286v73.143h-146.286v146.286h-73.143zM73.143 585.143v-658.286h658.286v658.286h-658.286zM146.286 512h512v-512h-512v512zM219.429 731.428v-73.143h585.143v-585.143h73.143v658.286h-658.286zM365.714 877.714v-73.143h585.143v-585.143h73.143v658.286h-658.286z" />
<glyph unicode="&#xe60d;" glyph-name="build-reason-checkin-shelveset" data-tags="build-reason-checkin-shelveset" horiz-adv-x="878" d="M438.857 877.714l-292.571-292.571v-182.857l219.429 219.429v-329.143h146.286v329.143l219.429-219.429v182.857l-292.571 292.571zM0-146.286h877.714v365.714h-877.714z" />
<glyph unicode="&#xe60e;" glyph-name="calendar" data-tags="calendar" d="M768 438.857v-438.345h-97.266v333.009c-5.352-4.537-11.734-8.877-19.145-13.019-7.205-3.945-14.924-7.594-23.159-10.948-8.234-3.156-16.777-5.918-25.629-8.285-8.852-2.17-17.601-3.748-26.247-4.734v78.707c25.32 7.101 49.199 16.175 71.638 27.222s42.715 23.178 60.83 36.394zM228.571 18.99v81.37c29.643-20.712 64.227-31.068 103.751-31.068 24.908 0 44.259 5.129 58.051 15.386 13.998 10.258 20.997 24.559 20.997 42.904 0 18.937-8.646 33.534-25.938 43.792-17.086 10.258-40.656 15.386-70.711 15.386h-41.068v71.605h37.98c57.639 0 86.459 18.345 86.459 55.035 0 34.52-22.129 51.781-66.388 51.781-29.643 0-58.463-9.173-86.459-27.518v76.339c31.084 14.992 67.315 22.488 108.691 22.488 45.288 0 80.489-9.764 105.604-29.293 25.32-19.529 37.98-44.877 37.98-76.044 0-55.43-29.334-90.148-88.003-104.153v-1.479c31.29-3.748 55.993-14.696 74.108-32.844 18.115-17.951 27.173-40.044 27.173-66.279 0-39.649-15.13-71.013-45.391-94.093s-72.049-34.619-125.366-34.619c-45.7 0-82.857 7.101-111.47 21.304zM256 877.714c-60.782 0-109.714-48.933-109.714-109.714v-36.571h-73.143c-40.521 0-73.143-32.622-73.143-73.143v-731.429c0-40.521 32.622-73.143 73.143-73.143h877.714c40.521 0 73.143 32.622 73.143 73.143v731.429c0 40.521-32.622 73.143-73.143 73.143h-73.143v36.571c0 60.782-48.933 109.714-109.714 109.714s-109.714-48.933-109.714-109.714v-36.571h-292.571v36.571c0 60.782-48.933 109.714-109.714 109.714zM256 804.571c20.261 0 36.571-16.311 36.571-36.571v-109.714c0-20.261-16.311-36.571-36.571-36.571s-36.571 16.311-36.571 36.571v109.714c0 20.261 16.311 36.571 36.571 36.571zM768 804.571c20.261 0 36.571-16.311 36.571-36.571v-109.714c0-20.261-16.311-36.571-36.571-36.571s-36.571 16.311-36.571 36.571v109.714c0 20.261 16.311 36.571 36.571 36.571zM73.143 512h877.714v-585.143h-877.714v585.143z" />
<glyph unicode="&#xe60f;" glyph-name="check" data-tags="check" d="M0 329.143l402.286-402.286 621.714 768-109.714 109.714-512-658.286-292.571 292.571z" />
<glyph unicode="&#xe610;" glyph-name="chevron-down" data-tags="chevron-down" d="M877.714 465.286l-85.623 83.285-280.091-272.441-280.091 272.441-85.623-83.285 85.544-83.208 0.079 0.077 280.091-272.441 365.714 355.573z" />
<glyph unicode="&#xe611;" glyph-name="chevron-left" data-tags="chevron-left" horiz-adv-x="731" d="M465.287 0l83.285 85.623-272.441 280.091 272.441 280.091-83.285 85.623-83.208-85.544 0.077-0.079-272.441-280.091 355.573-365.714z" />
<glyph unicode="&#xe612;" glyph-name="chevron-right" data-tags="chevron-right" horiz-adv-x="731" d="M266.142 0l-83.285 85.623 272.441 280.091-272.441 280.091 83.285 85.623 83.208-85.544-0.077-0.079 272.441-280.091-355.573-365.714z" />
<glyph unicode="&#xe613;" glyph-name="chevron-up" data-tags="chevron-up" d="M877.714 266.141l-85.623-83.285-280.091 272.441-280.091-272.441-85.623 83.285 85.544 83.208 0.079-0.077 280.091 272.441 365.714-355.573z" />
<glyph unicode="&#xe614;" glyph-name="clone" data-tags="clone" d="M0 877.714v-731.429h219.429v73.143h-146.286v585.143h585.143v-146.286h73.143v219.429h-731.429zM292.571 585.143v-731.429h731.429v731.429h-731.429zM365.714 512h585.143v-585.143h-585.143v585.143z" />
<glyph unicode="&#xe615;" glyph-name="clone-to-desktop" data-tags="clone-to-desktop" d="M36.571 658.285c-20.261 0-36.571-16.311-36.571-36.571v-585.143c0-20.261 16.311-36.571 36.571-36.571h329.143v-73.143h-146.286v-73.143h585.143v73.143h-146.286v73.143h329.143c20.261 0 36.571 16.311 36.571 36.571v585.143c0 20.261-16.311 36.571-36.571 36.571h-292.571v-73.143h256v-512h-877.714v512h256v73.143h-292.571zM438.857 877.714v-438.857h-182.857l256-256 256 256h-182.857v438.857h-146.286z" />
<glyph unicode="&#xe616;" glyph-name="cloud" data-tags="cloud" horiz-adv-x="1317" d="M768 804.571c-187.59-0.245-345.074-128.85-389.351-302.686-26.197 5.424-55.657 10.111-86.211 10.114-161.449 0-292.438-130.989-292.438-292.571s130.989-292.571 292.571-292.571h841.143c100.989 0 182.857 81.868 182.857 182.857-0.056 93.682-70.552 170.881-161.389 181.504 9.256 33.606 15.083 72.134 15.105 112.020-0.002 221.223-180.111 401.333-402.287 401.333z" />
<glyph unicode="&#xe617;" glyph-name="comment" data-tags="comment" d="M80.455 877.714c-44.573 0-80.455-35.882-80.455-80.455v-943.545l219.429 219.429h724.116c44.573 0 80.455 35.882 80.455 80.455v643.661c0 44.573-35.882 80.455-80.455 80.455h-863.089z" />
<glyph unicode="&#xe618;" glyph-name="comment-add" data-tags="comment-add" d="M80.455 877.714c-44.573 0-80.455-35.882-80.455-80.455v-943.545l219.429 219.429h724.116c44.573 0 80.455 35.882 80.455 80.455v643.661c0 44.573-35.882 80.455-80.455 80.455h-863.089zM109.714 804.571h804.571c20.261 0 36.571-16.311 36.571-36.571v-585.143c0-20.261-16.311-36.571-36.571-36.571h-731.429l-109.714-109.714v731.429c0 20.261 16.311 36.571 36.571 36.571zM548.571 731.428c-20.261 0-36.571-16.311-36.571-36.571v-182.857h-182.857c-20.261 0-36.571-16.311-36.571-36.571s16.311-36.571 36.571-36.571h182.857v-182.857c0-20.261 16.311-36.571 36.571-36.571s36.571 16.311 36.571 36.571v182.857h182.857c20.261 0 36.571 16.311 36.571 36.571s-16.311 36.571-36.571 36.571h-182.857v182.857c0 20.261-16.311 36.571-36.571 36.571z" />
<glyph unicode="&#xe619;" glyph-name="comment-discussion" data-tags="comment-discussion" d="M73.143 877.714c-40.521 0-73.143-32.622-73.143-73.143v-658.286l146.286 146.286h585.143c40.521 0 73.143 32.622 73.143 73.143v438.857c0 40.521-32.622 73.143-73.143 73.143h-658.286zM877.714 585.143v-256c0-60.782-48.933-109.714-109.714-109.714h-548.571v-146.286c0-40.521 32.622-73.143 73.143-73.143h585.143l146.286-146.286v658.286c0 40.521-32.622 73.143-73.143 73.143h-73.143z" />
<glyph unicode="&#xe61a;" glyph-name="comment-lines" data-tags="comment-lines" d="M80.455 877.714c-44.573 0-80.455-35.882-80.455-80.455v-943.545l219.429 219.429h724.116c44.573 0 80.455 35.882 80.455 80.455v643.661c0 44.573-35.882 80.455-80.455 80.455h-863.089zM219.429 658.285h658.286v-109.714h-658.286v109.714zM219.429 438.857h658.286v-109.714h-658.286v109.714z" />
<glyph unicode="&#xe61b;" glyph-name="comment-next" data-tags="comment-next" d="M80.455 877.714c-42.106 0-76.438-32.024-80.112-73.143-0.215-2.409-0.344-4.845-0.344-7.313v-643.661c0-2.467 0.128-4.903 0.344-7.313h-0.344v-292.571l219.429 219.429h724.116c42.106 0 76.438 32.024 80.112 73.143h0.344v219.429h-512l146.286-146.286h-219.429l-256 256 256 256h219.429l-146.286-146.286h512v212.116c0 2.467-0.128 4.903-0.344 7.313-3.674 41.119-38.006 73.143-80.112 73.143z" />
<glyph unicode="&#xe61c;" glyph-name="comment-outline" data-tags="comment-outline" d="M80.455 877.714c-44.573 0-80.455-35.882-80.455-80.455v-943.545l219.429 219.429h724.116c44.573 0 80.455 35.882 80.455 80.455v643.661c0 44.573-35.882 80.455-80.455 80.455h-863.089zM109.714 804.571h804.571c20.261 0 36.571-16.311 36.571-36.571v-585.143c0-20.261-16.311-36.571-36.571-36.571h-731.429l-109.714-109.714v731.429c0 20.261 16.311 36.571 36.571 36.571z" />
<glyph unicode="&#xe61d;" glyph-name="comment-previous" data-tags="comment-previous" d="M80.455 877.714c-42.106 0-76.438-32.024-80.112-73.143-0.215-2.409-0.344-4.845-0.344-7.313v-212.116h512l-146.286 146.286h219.429l256-256-256-256h-219.429l146.286 146.286h-512v-212.116c0-2.467 0.128-4.903 0.344-7.313h-0.344v-292.571l219.429 219.429h724.116c42.106 0 76.438 32.024 80.112 73.143h0.344v650.973c0 2.467-0.128 4.903-0.344 7.313-3.674 41.119-38.006 73.143-80.112 73.143h-863.089z" />
<glyph unicode="&#xe61e;" glyph-name="comment-urgent" data-tags="comment-urgent" d="M80.455 877.714c-44.573 0-80.455-35.882-80.455-80.455v-943.545l219.429 219.429h724.116c44.573 0 80.455 35.882 80.455 80.455v643.661c0 44.573-35.882 80.455-80.455 80.455h-863.089zM109.714 804.571h804.571c20.261 0 36.571-16.311 36.571-36.571v-585.143c0-20.261-16.311-36.571-36.571-36.571h-731.429l-109.714-109.714v731.429c0 20.261 16.311 36.571 36.571 36.571zM438.857 711.173v20.255h146.847v-20.255l-36.43-308.888h-73.987l-36.43 308.888zM511.598 219.428q-11.266 0-21.192 4.064t-17.436 11.32q-7.243 7.256-11.535 17.125t-4.292 21.769q0 11.61 4.292 21.478 4.292 10.159 11.535 17.705 7.511 7.546 17.436 11.9t21.192 4.354q11.535 0 21.46-4.354 10.194-4.354 17.705-11.9t11.803-17.705q4.292-9.868 4.292-21.478t-4.292-21.478-11.803-17.125-17.705-11.32q-9.925-4.354-21.46-4.354z" />
<glyph unicode="&#xe61f;" glyph-name="dashboard" data-tags="dashboard" d="M0 877.714h438.857v-585.143h-438.857v585.143zM585.143 438.857h438.857v-585.143h-438.857v585.143zM0 146.285h438.857v-292.571h-438.857v292.571zM585.143 877.714h438.857v-292.571h-438.857v292.571z" />
<glyph unicode="&#xe620;" glyph-name="database" data-tags="database" horiz-adv-x="731" d="M267.595-143.102c-85.359 12.122-160.958 39.072-211.84 75.513-19.537 13.99-43.015 39.725-50.122 54.944l-5.634 12.058v743.707l5.406 11.002c24.456 49.747 107.269 92.211 219.177 112.396 53.502 9.645 74.222 11.283 141.601 11.194 66.395 0 90.754-2.176 141.779-12.224 111.877-21.984 194.601-65.779 217.492-115.148l5.973-12.883-0.001-374.046-0.002-374.046-5.382-12.064c-25.272-56.652-127.769-103.91-261.274-120.467-33.699-4.16-167.598-4.16-197.176 0zM449.615 660.701c76.682 8.422 136.57 27.68 160.992 51.782 10.534 10.387 13.783 17.005 13.783 28.064 0 34.285-66.048 64.313-169.947 77.273-34.771 4.352-134.745 4.992-168.069 1.088-91.674-10.726-155.826-33.216-174.821-61.286-6.197-9.152-7.327-21.862-2.779-31.277 13.494-27.929 74.075-52.601 156.007-63.526 56.191-7.494 128.28-8.32 184.837-2.112z" />
<glyph unicode="&#xe621;" glyph-name="diff-image" data-tags="diff-image" d="M0 877.714v-1024h1024v1024h-1024zM73.143 804.571h877.714v-365.714l-182.857 182.857-182.857-182.857-256 292.571-256-320v393.143zM73.143 329.143h877.714v-365.714l-182.857 182.857-182.857-182.857-256 292.571-256-320v393.143z" />
<glyph unicode="&#xe622;" glyph-name="diff-image-overlay" data-tags="diff-image-overlay" d="M219.429 877.714v-658.286h804.571v658.286h-804.571zM292.571 804.571h658.286v-499.808l-146.286 170.665-109.714-128-182.857 274.286-219.429-329.143v512zM0 512v-658.286h804.571v365.714h-73.143v-280.38l-146.286 170.665-109.714-128-182.857 274.286-219.429-329.143v512h146.286v73.143h-219.429zM804.571 658.285c0-40.396-32.747-73.143-73.143-73.143s-73.143 32.747-73.143 73.143c0 40.396 32.747 73.143 73.143 73.143s73.143-32.747 73.143-73.143z" />
<glyph unicode="&#xe623;" glyph-name="diff-image-pixel" data-tags="diff-image-pixel" horiz-adv-x="1170" d="M0 877.714v-1024h1170.286v1024h-1170.286zM73.143 804.571h1024v-859.429l-182.857 201.143-104.491-114.938-334.366 334.366-402.286-402.286v841.143zM292.571 146.285h219.429v-219.429h-219.429v219.429zM658.286 731.428h219.429v-219.429h-219.429v219.429z" />
<glyph unicode="&#xe624;" glyph-name="diff-inline" data-tags="diff-inline" horiz-adv-x="878" d="M0 877.714v-1024h804.571v1024h-804.571zM73.143 804.571h658.286v-219.429h-658.286v219.429zM73.143 512h658.286v-219.429h-658.286v219.429zM73.143 73.143h658.286v-146.286h-658.286v146.286z" />
<glyph unicode="&#xe625;" glyph-name="diff-side-by-side" data-tags="diff-side-by-side" d="M585.143 658.285v-585.143h438.857v585.143h-438.857zM658.286 585.143h292.571v-219.429h-292.571v219.429zM658.286 219.428h292.571v-73.143h-292.571v73.143zM0 658.285v-585.143h438.857v585.143h-438.857zM73.143 585.143h292.571v-73.143h-292.571v73.143zM73.143 438.857h292.571v-292.571h-292.571v292.571z" />
<glyph unicode="&#xe626;" glyph-name="dot" data-tags="dot" d="M950.857 365.714c0-242.374-196.483-438.857-438.857-438.857s-438.857 196.483-438.857 438.857c0 242.374 196.483 438.857 438.857 438.857s438.857-196.483 438.857-438.857z" />
<glyph unicode="&#xe627;" glyph-name="edit" data-tags="edit" d="M984.481 841.926q22.665-21.935 30.801-43.869 8.717-21.357 8.717-39.829 0-15.585-4.649-28.284-4.068-12.699-8.717-21.935-6.393-10.39-13.367-19.048-3.487-4.618-9.88-12.122-6.393-6.927-13.367-15.008-6.974-7.504-13.948-15.008-6.393-6.927-10.461-11.545-9.299-8.081-20.922-8.081t-22.084 9.236l-120.3 118.909q-9.299 9.236-9.299 21.935 0 12.122 8.717 20.78 4.068 4.041 10.461 10.967 6.974 6.927 14.529 13.853t14.529 13.276 12.204 10.39q9.299 8.658 20.922 15.585 9.88 5.772 23.246 10.39 13.367 5.195 29.058 5.195 16.272 0 34.869-8.081 18.597-7.504 38.938-27.707zM854.883 533.11l-570.116-566.259-170.86 169.705 570.116 566.259 170.86-169.705zM0-146.286l58.116 169.127 111.582-116.6-169.698-52.528z" />
<glyph unicode="&#xe628;" glyph-name="edit-copy" data-tags="edit-copy" d="M0 877.714v-804.571h365.714v-219.429h658.286v544.897l-259.674 259.674h-146.286l-219.429 219.429h-398.612zM73.143 804.571h292.571v-658.286h-292.571v658.286zM438.857 585.143h292.571v-219.429h219.429v-438.857h-512v658.286z" />
<glyph unicode="&#xe629;" glyph-name="edit-cut" data-tags="edit-cut" horiz-adv-x="731" d="M725.337 36.041q6.091-20.989 6.091-41.539 0-31.042-13.12-56.843-13.12-25.796-34.674-44.16-21.085-18.798-48.731-29.295-27.645-10.492-56.696-10.492-17.805 0-35.611 4.394-17.337 3.917-33.737 12.678-26.24 13.991-44.982 41.1-18.274 27.109-30.925 62.089-12.183 34.98-20.148 74.767-7.966 40.226-13.12 79.574-3.749 27.548-13.588 56.843-9.84 29.729-23.428 58.59-13.588-28.861-23.897-58.59-10.308-29.295-13.588-56.843-2.343-20.984-6.091-45.472-3.28-24.044-8.903-48.966-5.154-24.922-12.651-49.411-7.028-24.483-17.337-45.906-9.84-21.863-23.428-39.353-13.12-17.49-29.988-28.422-15.931-10.053-34.674-13.552-18.274-3.494-36.079-3.494-29.52 0-57.633 10.492-28.114 10.058-50.136 28.861-21.554 18.798-35.142 44.594-13.12 25.775-13.12 56.817 0 20.55 6.091 41.539 8.903 29.295 25.303 55.091t37.017 48.971q21.085 23.17 44.514 43.72 23.428 20.989 45.919 39.787 22.491 18.803 42.171 35.854 20.148 17.49 33.737 33.668l57.633 78.701-155.095 505.881h45.919l179.929-365.526 185.083 365.526h45.919l-160.717-508.501q0.471-0.847 4.217-5.685 4.217-4.817 10.308-11.805 6.56-6.993 14.057-15.738 7.497-8.311 14.526-16.617 7.497-7.872 13.588-15.304 6.56-6.993 10.777-11.365 14.525-16.177 34.674-33.668 20.148-17.056 42.171-35.854 22.023-18.803 44.514-39.353 22.96-20.55 42.639-43.72 20.148-23.176 36.079-48.971t24.365-55.091zM126.044 96.377q-15.463-21.863-25.302-48.532-9.371-26.235-9.371-49.845 0-18.364 6.091-31.921 6.56-13.991 21.085-20.984 12.183-5.685 24.834-5.685 15.463 0 29.52 7.872 14.057 7.866 25.771 19.671 12.183 11.371 21.085 24.922 9.371 13.557 14.994 24.922 4.686 9.184 9.84 27.548 5.154 18.803 9.84 41.1 4.686 22.736 7.497 45.912 3.28 23.17 3.28 41.1 0 13.118-2.343 22.736-22.023-5.241-41.702-14.87-19.211-9.619-36.548-22.736-16.868-12.678-31.862-28.416-14.525-15.743-26.708-32.794zM621.785-54.904q14.525 6.993 21.085 20.984t6.56 32.355q0 23.615-9.84 49.845-9.371 26.235-24.834 48.098-12.183 17.051-27.177 32.794-14.525 15.738-31.862 28.416-16.868 13.118-36.548 22.736-19.211 9.619-41.234 14.87-2.343-9.619-2.343-22.736 0-17.93 2.812-41.1 3.28-23.176 7.497-45.912 4.686-22.297 9.84-41.1 5.622-18.364 10.308-27.548 5.623-11.365 14.525-24.922 9.371-13.552 21.085-24.922 11.714-11.805 25.771-19.671 14.057-7.872 29.52-7.872 12.651 0 24.834 5.685z" />
<glyph unicode="&#xe62a;" glyph-name="edit-delete" data-tags="edit-delete" horiz-adv-x="878" d="M73.143 585.143v-731.428h731.429v731.428h-731.429zM182.857 512h109.714v-585.143h-109.714v585.143zM365.714 512h146.286v-585.143h-146.286v585.143zM585.143 512h109.714v-585.143h-109.714v585.143zM329.143 877.714c-20.261 0-36.571-16.311-36.571-36.571v-36.571h292.571v36.571c0 20.261-16.311 36.571-36.571 36.571h-219.429zM36.571 731.428c-20.261 0-36.571-16.311-36.571-36.571v-36.571h877.714v36.571c0 20.261-16.311 36.571-36.571 36.571h-804.571z" />
<glyph unicode="&#xe62b;" glyph-name="edit-paste" data-tags="edit-paste" horiz-adv-x="878" d="M219.429 877.714l-24.379-73.143h-158.478c-20.261 0-36.571-16.311-36.571-36.571v-804.571c0-20.261 16.311-36.571 36.571-36.571h256v73.143h-219.429v731.429h97.522l-24.379-73.143h438.857l-24.379 73.143h97.522v-219.429h73.143v256c0 20.261-16.311 36.571-36.571 36.571h-158.478l-24.379 73.143h-292.571zM292.571 804.571h146.286l36.571-73.143h-219.429l36.571 73.143zM292.571 585.143v-731.429h585.143v731.429h-585.143zM365.714 438.857h438.857v-73.143h-438.857v73.143zM365.714 292.571h438.857v-73.143h-438.857v73.143zM365.714 146.285h438.857v-73.143h-438.857v73.143zM365.714 0h219.429v-73.143h-219.429v73.143z" />
<glyph unicode="&#xe62c;" glyph-name="edit-redo" data-tags="edit-redo" horiz-adv-x="951" d="M114.899 717.633c13.277 12.585 28.427 24.177 45.449 34.775 17.363 10.598 36.257 19.706 56.684 27.323 20.427 7.949 42.215 14.076 65.365 18.381s47.151 6.458 72.004 6.458c24.171 0 49.364-1.656 75.578-4.968s52.598-9.77 79.153-19.375c26.555-9.273 53.109-22.521 79.664-39.743 26.555-16.891 52.258-38.915 77.11-66.073l111.836-102.905 173.115 159.921v-438.857h-458.066l174.137 169.214-111.325 108.797c-16.682 16.228-33.704 29.973-51.066 41.234s-34.555 20.368-51.577 27.323c-17.022 6.955-33.874 11.923-50.556 14.904s-32.683 4.471-48.002 4.471c-14.979 0-29.278-1.325-42.896-3.974-13.277-2.318-25.703-5.465-37.278-9.439-11.235-3.974-21.448-8.611-30.64-13.91-8.852-5.299-16.341-10.929-22.469-16.891-24.512-23.515-42.726-48.52-54.641-75.015s-17.873-53.985-17.873-82.467c0-37.756 10.384-76.671 31.151-116.746 21.107-39.743 52.428-79.818 93.962-120.223l34.725-33.782c13.277-12.585 27.235-25.999 41.874-40.24l44.938-43.718c15.32-14.573 30.299-28.814 44.938-42.724 33.704-32.788 68.94-66.736 105.708-101.842l-104.431-103.829c-36.768 35.438-73.451 69.551-107.495 102.339-14.639 13.91-29.619 28.317-44.938 43.221s-30.299 29.311-44.938 43.221c-14.639 14.241-28.597 27.655-41.874 40.24l-34.725 33.782c-31.661 30.47-58.216 60.443-79.664 89.919s-38.64 58.29-51.577 86.442c-12.937 28.151-22.299 55.641-28.087 82.467-5.447 27.158-8.171 53.653-8.171 79.487 0 26.496 2.894 51.997 8.681 76.506 5.788 24.84 13.788 48.354 24.001 70.544s22.299 42.89 36.257 62.099c14.299 19.54 29.619 37.425 45.96 53.653z" />
<glyph unicode="&#xe62d;" glyph-name="edit-remove" data-tags="edit-remove" d="M1024 872.885q0-3.563-15.347-12.607-14.819-8.77-42.865-26.037-27.519-17.266-67.208-44.865-39.69-27.654-89.435-68.874-49.215-40.672-107.427-97.021-57.683-55.828-122.245-129.882 3.175-4.111 10.056-13.155 7.409-8.496 15.347-18.363 8.466-9.318 15.875-18.363 7.409-8.222 10.584-12.607 51.861-65.75 92.61-129.91t70.913-123.113q30.694-58.953 51.862-111.108 21.169-51.662 33.869-92.855 13.231-41.22 19.050-69.915 5.822-29.216 5.822-41.741 0-8.222-2.113-8.77h-0.528q-3.703 0-14.288 18.363t-30.694 52.156q-19.581 33.382-50.803 80.358-30.694 47.469-75.146 105.353-44.453 58.432-103.723 125.223-59.27 67.284-136.533 140.324l-4.234-4.659q-4.234-4.659-10.584-12.607t-14.288-17.815q-7.938-9.318-14.816-19.459-55.037-76.164-93.668-139.804-38.102-63.119-62.975-110.588-24.344-47.469-37.044-77.206-12.7-29.216-17.463-37.575-5.291-9.318-16.406-9.318-5.291 0-10.584 2.741-2.641 2.741-10.584 6.852-7.938 5.207-19.050 12.607-11.113 7.948-24.344 16.17-12.7 8.77-25.4 16.718-12.172 8.496-22.756 15.074-10.584 6.852-16.935 10.415-4.763 2.741-7.938 6.304-3.175 4.111-3.175 8.77 0 2.741 2.113 7.948 10.053 21.926 33.339 61.556 23.813 39.631 61.387 93.376 37.573 53.718 90.493 119.468 52.92 66.243 122.245 140.324-70.913 59.994-132.3 105.901-60.858 45.907-109.544 79.289-48.157 33.903-83.084 55.28-34.398 21.926-53.449 33.409-4.763 2.741-7.938 5.207-2.649 2.796-2.649 6.961 0 4.659 4.763 10.415 2.113 3.563 11.641 16.17 10.053 12.607 23.285 28.695 13.76 16.17 28.577 33.382 15.347 17.266 29.106 29.737 4.234 3.015 7.409 5.755t8.997 2.741q4.763 0 8.466-2.741 11.644-6.304 47.099-29.737 35.456-23.022 85.73-61.036 50.803-38.096 111.132-90.252 60.858-52.183 122.774-115.822 50.274 49.552 106.898 90.772 56.624 41.741 112.719 74.602t107.957 57.39q52.391 24.392 94.727 40.672 42.336 16.17 70.913 24.118 29.106 8.222 38.102 8.222 3.175 0 3.703 0v0z" />
<glyph unicode="&#xe62e;" glyph-name="edit-rename" data-tags="edit-rename" horiz-adv-x="1170" d="M0 658.285v-585.143h731.429v73.143h-658.286v438.857h658.286v73.143h-731.429zM950.857 658.285v-73.143h146.286v-438.857h-146.286v-73.143h219.429v585.143h-219.429zM804.571 804.571h73.143v-877.714h-73.143v877.714zM1024-73.143v-73.143h-146.286v73.143h146.286zM804.571-73.143v-73.143h-146.286v73.143h146.286zM1024 877.714v-73.143h-146.286v73.143h146.286zM804.571 877.714v-73.143h-146.286v73.143h146.286zM658.286 512v-292.571h-512v292.571h512z" />
<glyph unicode="&#xe62f;" glyph-name="edit-undo" data-tags="edit-undo" horiz-adv-x="951" d="M835.958 717.633c-13.277 12.585-28.427 24.177-45.449 34.775-17.363 10.598-36.257 19.706-56.684 27.323-20.427 7.949-42.215 14.076-65.365 18.381s-47.151 6.458-72.004 6.458c-24.171 0-49.364-1.656-75.578-4.968s-52.598-9.77-79.153-19.375c-26.555-9.273-53.109-22.521-79.664-39.743-26.555-16.891-52.258-38.915-77.11-66.073l-111.836-102.905-173.115 159.921v-438.857h458.066l-174.137 169.214 111.325 108.797c16.682 16.228 33.704 29.973 51.066 41.234s34.555 20.368 51.577 27.323c17.022 6.955 33.874 11.923 50.556 14.904s32.683 4.471 48.002 4.471c14.979 0 29.278-1.325 42.896-3.974 13.277-2.318 25.703-5.465 37.278-9.439 11.235-3.974 21.448-8.611 30.64-13.91 8.852-5.299 16.341-10.929 22.469-16.891 24.512-23.515 42.726-48.52 54.641-75.015s17.873-53.985 17.873-82.467c0-37.756-10.384-76.671-31.151-116.746-21.107-39.743-52.428-79.818-93.962-120.223l-34.725-33.782c-13.277-12.585-27.235-25.999-41.874-40.24l-44.938-43.718c-15.32-14.573-30.299-28.814-44.938-42.724-33.704-32.788-68.94-66.736-105.708-101.842l104.431-103.829c36.768 35.438 73.451 69.551 107.495 102.339 14.639 13.91 29.619 28.317 44.938 43.221s30.299 29.311 44.938 43.221c14.639 14.241 28.597 27.655 41.874 40.24l34.725 33.782c31.661 30.47 58.216 60.443 79.664 89.919s38.64 58.29 51.577 86.442c12.937 28.151 22.299 55.641 28.087 82.467 5.447 27.158 8.171 53.653 8.171 79.487 0 26.496-2.894 51.997-8.681 76.506-5.788 24.84-13.788 48.354-24.001 70.544s-22.299 42.89-36.257 62.099c-14.299 19.54-29.619 37.425-45.96 53.653z" />
<glyph unicode="&#xe630;" glyph-name="editor-list-bullet" data-tags="editor-list-bullet" d="M219.429 73.143c0-60.593-49.121-109.714-109.714-109.714 0 0 0 0 0 0-60.593 0-109.714 49.121-109.714 109.714s49.121 109.714 109.714 109.714c60.594 0 109.714-49.121 109.714-109.714zM219.429 365.714c0-60.594-49.121-109.714-109.714-109.714s-109.714 49.121-109.714 109.714c0 60.594 49.121 109.714 109.714 109.714s109.714-49.121 109.714-109.714zM219.429 658.285c0-60.594-49.121-109.714-109.714-109.714s-109.714 49.121-109.714 109.714c0 60.594 49.121 109.714 109.714 109.714s109.714-49.121 109.714-109.714zM365.714 146.285h658.286v-146.286h-658.286zM365.714 438.857h658.286v-146.286h-658.286zM365.714 731.428h658.286v-146.286h-658.286z" />
<glyph unicode="&#xe631;" glyph-name="ellipsis" data-tags="ellipsis" horiz-adv-x="1170" d="M109.714 475.428c60.782 0 109.714-48.933 109.714-109.714s-48.933-109.714-109.714-109.714c-60.782 0-109.714 48.933-109.714 109.714s48.933 109.714 109.714 109.714zM1060.571 475.428c60.782 0 109.714-48.933 109.714-109.714s-48.933-109.714-109.714-109.714c-60.782 0-109.714 48.933-109.714 109.714s48.933 109.714 109.714 109.714zM585.143 475.428c60.782 0 109.714-48.933 109.714-109.714s-48.933-109.714-109.714-109.714c-60.782 0-109.714 48.933-109.714 109.714s48.933 109.714 109.714 109.714z" />
<glyph unicode="&#xe632;" glyph-name="ellipsis-vertical" data-tags="ellipsis-vertical" horiz-adv-x="366" d="M292.571 768c0-60.782-48.933-109.714-109.714-109.714s-109.714 48.933-109.714 109.714c0 60.782 48.933 109.714 109.714 109.714s109.714-48.933 109.714-109.714zM292.571-36.572c0-60.782-48.933-109.714-109.714-109.714s-109.714 48.933-109.714 109.714c0 60.782 48.933 109.714 109.714 109.714s109.714-48.933 109.714-109.714zM292.572 365.714c0-60.782-48.933-109.714-109.714-109.714s-109.714 48.933-109.714 109.714c0 60.782 48.933 109.714 109.714 109.714s109.714-48.933 109.714-109.714z" />
<glyph unicode="&#xe633;" glyph-name="favorite" data-tags="favorite" d="M512 877.714l-117.549-365.714h-394.451l314.92-247.438-132.062-410.848 328.129 256.795 1.013-0.795 1.013 0.795 328.129-256.795-132.062 410.848 314.92 247.438h-394.451l-117.549 365.714z" />
<glyph unicode="&#xe634;" glyph-name="favorite-outline" data-tags="favorite-outline" d="M512 877.714l-117.549-365.714h-394.451l314.92-247.438-132.062-410.848 328.129 256.795 1.013-0.795 1.013 0.795 328.129-256.795-132.062 410.848 314.92 247.438h-394.451l-117.549 365.714zM512 658.285l71.371-222.040h239.487l-191.201-150.232 80.179-249.442-199.219 155.911-0.616-0.482-0.616 0.482-199.219-155.911 80.179 249.442-191.201 150.232h239.487l71.371 222.040z" />
<glyph unicode="&#xe635;" glyph-name="feedback-negative" data-tags="feedback-negative" d="M512 877.714c-282.77 0-512-229.23-512-512s229.23-512 512-512c282.77 0 512 229.23 512 512s-229.23 512-512 512zM347.429 585.143c0 0 0 0 0 0 50.495 0 91.429-40.934 91.429-91.429 0 0 0 0 0 0s0 0 0 0c0-50.495-40.934-91.429-91.429-91.429 0 0 0 0 0 0s0 0 0 0c-50.495 0-91.429 40.934-91.429 91.429 0 0 0 0 0 0s0 0 0 0c0 50.495 40.934 91.429 91.429 91.429 0 0 0 0 0 0zM676.571 585.143c0 0 0 0 0 0 50.495 0 91.429-40.934 91.429-91.429 0 0 0 0 0 0s0 0 0 0c0-50.495-40.934-91.429-91.429-91.429 0 0 0 0 0 0s0 0 0 0c-50.495 0-91.429 40.934-91.429 91.429 0 0 0 0 0 0s0 0 0 0c0 50.495 40.934 91.429 91.429 91.429 0 0 0 0 0 0zM512.049 329.143c184.588 0 282.237-155.862 282.237-155.862 6.451-10.116 10.307-22.663 10.307-36.194 0-35.246-26.163-63.818-58.436-63.818-20.368 0-38.302 11.38-48.762 28.636-0.135 0.237-59.392 99.612-185.345 99.612s-185.205-99.375-185.205-99.375c-10.585-17.566-28.557-29.001-48.974-29.001-0.13 0-0.26 0-0.39 0.001-32.096 0.226-58.051 28.711-58.051 63.816 0 13.586 3.887 26.18 10.513 36.528-0.125-0.206 97.519 155.655 282.107 155.655z" />
<glyph unicode="&#xe636;" glyph-name="feedback-positive" data-tags="feedback-positive" d="M512 877.714c-282.77 0-512-229.23-512-512s229.23-512 512-512c282.77 0 512 229.23 512 512s-229.23 512-512 512zM347.429 585.143c0 0 0 0 0 0 50.495 0 91.429-40.934 91.429-91.429 0 0 0 0 0 0s0 0 0 0c0-50.495-40.934-91.429-91.429-91.429 0 0 0 0 0 0s0 0 0 0c-50.495 0-91.429 40.934-91.429 91.429 0 0 0 0 0 0s0 0 0 0c0 50.495 40.934 91.429 91.429 91.429 0 0 0 0 0 0zM676.571 585.143c0 0 0 0 0 0 50.495 0 91.429-40.934 91.429-91.429 0 0 0 0 0 0s0 0 0 0c0-50.495-40.934-91.429-91.429-91.429 0 0 0 0 0 0s0 0 0 0c-50.495 0-91.429 40.934-91.429 91.429 0 0 0 0 0 0s0 0 0 0c0 50.495 40.934 91.429 91.429 91.429 0 0 0 0 0 0zM277.5 292.571c0.11 0.001 0.24 0.001 0.37 0.001 20.417 0 38.389-11.435 48.838-28.761 0.136-0.24 59.388-99.62 185.341-99.62s185.21 99.379 185.21 99.379c10.608 17.399 28.494 28.709 48.799 28.709 32.274 0 58.436-28.572 58.436-63.818 0-13.461-3.816-25.948-10.331-36.243 0.127 0.213-97.525-155.649-282.114-155.649s-282.232 155.862-282.232 155.862c-6.501 10.142-10.388 22.736-10.388 36.322 0 35.105 25.955 63.59 58.051 63.816z" />
<glyph unicode="&#xe637;" glyph-name="file" data-tags="file" horiz-adv-x="878" d="M0 877.714v-1024h804.571v770.241l-253.759 253.759h-550.813zM73.143 804.571h438.857v-219.429h219.429v-658.286h-658.286v877.714z" />
<glyph unicode="&#xe638;" glyph-name="file-code" data-tags="file-code" horiz-adv-x="878" d="M0 877.714v-1024h804.571v770.241l-253.759 253.759h-550.813zM73.143 804.571h438.857v-219.429h219.429v-658.286h-658.286v877.714zM495.161 512.997l-56.362-41.875 132.683-178.603-132.683-178.607 56.362-41.871 163.79 220.478-163.79 220.478zM310.076 514.1l-163.79-220.478 163.79-220.478 56.362 41.871-132.683 178.607 132.683 178.603-56.362 41.875z" />
<glyph unicode="&#xe639;" glyph-name="file-comment" data-tags="file-comment" d="M0 877.714v-1024h804.571v146.286h-73.143v-73.143h-658.286v877.714h438.857v-73.143h185.098l-146.286 146.286h-477.67zM365.714 73.143c-31.838 0-73.143 41.305-73.143 73.143v365.714l-146.286 146.286h804.571c31.838 0 73.143-40.65 73.143-72.488v-439.512c0-31.838-41.305-73.143-73.143-73.143z" />
<glyph unicode="&#xe63a;" glyph-name="file-content" data-tags="file-content" horiz-adv-x="878" d="M0 877.714v-1024h804.571v770.241l-253.759 253.759h-550.813zM73.143 804.571h438.857v-219.429h219.429v-658.286h-658.286v877.714zM182.857 512h438.857c20.261 0 36.571-16.311 36.571-36.571s-16.311-36.571-36.571-36.571h-438.857c-20.261 0-36.571 16.311-36.571 36.571s16.311 36.571 36.571 36.571zM182.857 365.714h438.857c20.261 0 36.571-16.311 36.571-36.571s-16.311-36.571-36.571-36.571h-438.857c-20.261 0-36.571 16.311-36.571 36.571s16.311 36.571 36.571 36.571zM182.857 219.428h438.857c20.261 0 36.571-16.311 36.571-36.571s-16.311-36.571-36.571-36.571h-438.857c-20.261 0-36.571 16.311-36.571 36.571s16.311 36.571 36.571 36.571zM182.857 73.143h182.857c20.261 0 36.571-16.311 36.571-36.571s-16.311-36.571-36.571-36.571h-182.857c-20.261 0-36.571 16.311-36.571 36.571s16.311 36.571 36.571 36.571z" />
<glyph unicode="&#xe63b;" glyph-name="file-image" data-tags="file-image" horiz-adv-x="878" d="M0 877.714v-1024h804.571v770.241l-253.759 253.759h-550.813zM73.143 804.571h438.857v-219.429h219.429v-402.286l-182.857 182.857-182.857-182.857-109.714 109.714-182.857-182.857v694.857zM73.143 73.143h658.286v-146.286h-658.286v146.286zM365.714 585.143c0-40.396-32.747-73.143-73.143-73.143s-73.143 32.747-73.143 73.143c0 40.396 32.747 73.143 73.143 73.143s73.143-32.747 73.143-73.143z" />
<glyph unicode="&#xe63c;" glyph-name="file-preview" data-tags="file-preview" d="M219.429 877.714v-365.714h73.143v292.571h438.857v-219.429h219.429v-658.286h-731.429v-73.143h804.571v770.241l-253.759 253.759h-550.813zM365.714 438.857c0 0 0 0 0 0-121.187 0-219.429-98.242-219.429-219.429 0 0 0 0 0 0 0.104-42.31 12.167-81.782 32.986-115.239l-179.272-177.332 73.143-73.143 178.5 178.5c32.549-20.203 72.032-32.188 114.313-32.215-0.242 0-0.242 0-0.242 0 121.187 0 219.429 98.242 219.429 219.429 0 0 0 0 0 0s0 0 0 0c0 121.187-98.242 219.429-219.429 219.429 0 0 0 0 0 0zM365.714 365.714c0 0 0 0 0 0 80.791 0 146.286-65.494 146.286-146.286 0 0 0 0 0 0s0 0 0 0c0-80.791-65.494-146.286-146.286-146.286 0 0 0 0 0 0s0 0 0 0c-80.791 0-146.286 65.494-146.286 146.286 0 0 0 0 0 0s0 0 0 0c0 80.791 65.494 146.286 146.286 146.286 0 0 0 0 0 0z" />
<glyph unicode="&#xe63d;" glyph-name="file-symlink" data-tags="file-symlink" horiz-adv-x="878" d="M146.286 877.714v-438.857h73.143v365.714h365.714v-219.429h219.429v-512h-219.429v-73.143h292.571v620.817l-256.897 256.897h-474.531zM0 365.714v-512h512v512h-512zM73.143 292.571h365.714v-365.714h-365.714v365.714zM146.286 219.428l83.857-83.857-109.719-109.714 51.723-51.719 109.714 109.714 83.853-83.853v219.429h-219.429z" />
<glyph unicode="&#xe63e;" glyph-name="fold-less" data-tags="fold-less" horiz-adv-x="585" d="M3.235-56.461l290.954 293.427 290.954-293.427-89.068-89.825-201.886 203.603-201.886-203.603zM585.143 787.889l-290.954-293.427-290.954 293.427 89.068 89.825 201.886-203.603 201.886 203.603z" />
<glyph unicode="&#xe63f;" glyph-name="fold-more" data-tags="fold-more" horiz-adv-x="585" d="M0 220.283l290.954-293.427 290.954 293.427-89.068 89.825-201.886-203.603-201.887 203.603zM585.143 511.145l-290.954 293.427-290.954-293.427 89.068-89.825 201.886 203.603 201.886-203.603z" />
<glyph unicode="&#xe640;" glyph-name="folder" data-tags="folder" horiz-adv-x="1170" d="M109.714 804.571c-60.782 0-109.714-48.933-109.714-109.714v-768h1170.286v621.714c0 60.782-48.933 109.714-109.714 109.714h-548.571v36.571c0 60.782-48.933 109.714-109.714 109.714h-292.571z" />
<glyph unicode="&#xe641;" glyph-name="git" data-tags="git" horiz-adv-x="951" d="M475.427 804.571c-12.811 0-25.621-4.907-35.438-14.723l-77.062-77.062 86.317-86.313c7.882 2.772 16.97 4.377 26.432 4.385 45.197-0.001 82.037-36.841 82.037-82.286-0.027-9.452-1.644-18.517-4.596-26.955l115.556-114.572c7.882 2.772 16.97 4.377 26.432 4.385 45.197-0.001 82.037-36.841 82.037-82.286s-36.841-82.286-82.286-82.286c-45.445 0-82.286 36.841-82.286 82.286 0.028 9.451 1.645 18.516 4.597 26.954l-105.169 104.18v-276.96c27.287-13.758 45.683-41.544 45.714-73.631 0-45.417-36.841-82.258-82.286-82.258s-82.286 36.841-82.286 82.286c0.015 32.11 18.42 59.917 45.253 73.463l0.461 291.791c-27.287 13.758-45.683 41.544-45.714 73.631 0.028 9.424 1.645 18.488 4.597 26.926l-86.53 85.542-296.487-296.487c-19.633-19.633-19.633-51.242 0-70.875l425.268-425.268c19.633-19.633 51.242-19.633 70.875 0l425.268 425.268c19.633 19.633 19.633 51.242 0 70.875l-425.268 425.268c-9.817 9.817-22.626 14.723-35.438 14.723z" />
<glyph unicode="&#xe642;" glyph-name="heartbeat" data-tags="heartbeat" horiz-adv-x="1170" d="M835.918 280.379h199.184q-3.264-4.002-6.53-6.996-3.266-3.002-5.878-5.003l-1.959-2.666-406.857-400.001q-11.755-12-28.735-12t-28.735 12l-407.51 401.334q-3.265 1.337-13.714 13.333h240.98q14.367 0 25.796 9t14.694 23l45.714 187.334 124.082-444.667q3.918-13.334 15.020-22.001t25.469-8.667q13.714 0 24.816 8.667t15.020 22.001l95.347 323.334 36.571-74.667q11.755-23.333 37.225-23.333zM1170.286 565.713q0-96.667-67.265-200h-240.98l-72.49 147.333q-5.225 11.334-16.653 18.001t-23.837 5.331q-29.388-3.33-36.571-30.666l-84.245-286.668-128 457.335q-3.918 13.334-15.347 22.001t-25.796 8.667-25.469-9-14.367-23l-75.755-309.333h-276.245q-67.265 103.334-67.265 200 0 146.667 82.939 229.334t229.224 82.667q40.49 0 82.612-14.333t78.367-38.667 62.367-45.667 49.633-45.333q23.51 24 49.633 45.333t62.367 45.667 78.367 38.667 82.612 14.333q146.286 0 229.224-82.667t82.939-229.334z" />
<glyph unicode="&#xe643;" glyph-name="install" data-tags="install" horiz-adv-x="1170" d="M438.857 877.714v-365.714h-256l402.286-402.286 402.286 402.286h-256v365.714h-292.571zM0 219.428v-365.714h1170.286v365.714h-292.571l-292.571-292.571-292.571 292.571h-292.571zM950.857 146.285h146.286v-146.286h-146.286v146.286z" />
<glyph unicode="&#xe644;" glyph-name="link" data-tags="link" horiz-adv-x="1170" d="M841.143 585.143c-75.26 0-139.588-45.032-167.705-109.714h85.821c20.063 22.461 49.259 36.571 81.884 36.571h146.286c60.782 0 109.714-48.933 109.714-109.714v-73.143c0-60.782-48.933-109.714-109.714-109.714h-146.286c-32.625 0-61.821 14.11-81.884 36.571h-85.821c28.117-64.682 92.445-109.714 167.705-109.714h146.286c101.303 0 182.857 81.554 182.857 182.857v73.143c0 101.303-81.554 182.857-182.857 182.857h-146.286zM182.857 585.143c-101.303 0-182.857-81.554-182.857-182.857v-73.143c0-101.303 81.554-182.857 182.857-182.857h146.286c75.26 0 139.588 45.032 167.705 109.714h-85.821c-20.063-22.461-49.259-36.571-81.884-36.571h-146.286c-60.782 0-109.714 48.933-109.714 109.714v73.143c0 60.782 48.933 109.714 109.714 109.714h146.286c32.625 0 61.821-14.11 81.884-36.571h85.821c-28.117 64.682-92.445 109.714-167.705 109.714h-146.286zM365.714 438.857h438.857c40.396 0 73.143-32.747 73.143-73.143v0c0-40.396-32.747-73.143-73.143-73.143h-438.857c-40.396 0-73.143 32.747-73.143 73.143v0c0 40.396 32.747 73.143 73.143 73.143z" />
<glyph unicode="&#xe645;" glyph-name="logo-visual-studio" data-tags="logo-visual-studio" d="M768 877.714l256-109.714v-804.571l-256-109.714-402.286 402.286-256-182.857-109.714 36.571v512l109.714 36.571 256-182.857zM109.714 512v-292.571l146.3 145.119zM512 365.714l256-219.429v438.857z" />
<glyph unicode="&#xe646;" glyph-name="logo-windows" data-tags="logo-windows" d="M949.799 804.669l-510.942-78.746v-323.638h510.942v402.384zM365.714 714.651l-365.714-56.366v-256h365.714v312.366zM0 329.143v-329.143l365.714-55.853v384.996h-365.714zM438.857 329.143v-396.165l510.942-78.031v474.196h-510.942z" />
<glyph unicode="&#xe647;" glyph-name="mail-message" data-tags="mail-message" horiz-adv-x="1170" d="M0 804.571v-877.714h1170.286v877.714h-1170.286zM85.027 731.428h1000.232l-500.116-347.54-500.116 347.54zM73.143 648.379l512-355.808 512 355.808v-648.379h-1024v648.379z" />
<glyph unicode="&#xe648;" glyph-name="math-minus" data-tags="math-minus" d="M146.286 438.857h731.429v-146.286h-731.429z" />
<glyph unicode="&#xe649;" glyph-name="math-minus-box" data-tags="math-minus-box" d="M146.286 877.714c-81.042 0-146.286-65.243-146.286-146.286v-731.429c0-81.042 65.243-146.286 146.286-146.286h731.429c81.042 0 146.286 65.243 146.286 146.286v731.429c0 81.042-65.243 146.286-146.286 146.286h-731.429zM219.429 438.857h585.143v-146.286h-585.143v146.286z" />
<glyph unicode="&#xe64a;" glyph-name="math-minus-circle" data-tags="math-minus-circle" d="M512 877.714c-283.648 0-512-228.352-512-512s228.352-512 512-512c283.648 0 512 228.352 512 512s-228.352 512-512 512zM219.429 438.857h585.143v-146.286h-585.143v146.286z" />
<glyph unicode="&#xe64b;" glyph-name="math-multiply" data-tags="math-multiply" d="M250.642 731.428l-104.356-104.36 261.358-261.352-261.358-261.357 104.356-104.36 261.358 261.357 261.358-261.357 104.356 104.36-261.358 261.357 261.358 261.352-104.356 104.36-261.358-261.357-261.358 261.357z" />
<glyph unicode="&#xe64c;" glyph-name="math-plus" data-tags="math-plus" d="M438.857 731.428v-292.571h-292.571v-146.286h292.571v-292.571h146.286v292.571h292.571v146.286h-292.571v292.571h-146.286z" />
<glyph unicode="&#xe64d;" glyph-name="math-plus-box" data-tags="math-plus-box" d="M146.286 877.714c-81.042 0-146.286-65.243-146.286-146.286v-731.429c0-81.042 65.243-146.286 146.286-146.286h731.429c81.042 0 146.286 65.243 146.286 146.286v731.429c0 81.042-65.243 146.286-146.286 146.286h-731.429zM438.857 658.285h146.286v-219.429h219.429v-146.286h-219.429v-219.429h-146.286v219.429h-219.429v146.286h219.429v219.429z" />
<glyph unicode="&#xe64e;" glyph-name="math-plus-circle" data-tags="math-plus-circle" d="M512 877.714c-283.648 0-512-228.352-512-512s228.352-512 512-512c283.648 0 512 228.352 512 512s-228.352 512-512 512zM438.857 658.285h146.286v-219.429h219.429v-146.286h-219.429v-219.429h-146.286v219.429h-219.429v146.286h219.429v219.429z" />
<glyph unicode="&#xe64f;" glyph-name="math-plus-heavy" data-tags="math-plus-heavy" d="M365.821 803.321v-291.429h-291.429v-292.357h291.429v-291.429h292.357v291.429h291.429v292.357h-291.429v291.429h-292.357z" />
<glyph unicode="&#xe650;" glyph-name="media-play" data-tags="media-play" horiz-adv-x="585" d="M0 804.571v-877.714l585.143 438.857z" />
<glyph unicode="&#xe651;" glyph-name="menu" data-tags="menu" d="M0 804.571h1024v-146.286h-1024zM0 438.857h1024v-146.286h-1024zM0 73.142h1024v-146.286h-1024z" />
<glyph unicode="&#xe652;" glyph-name="navigate-back-circle" data-tags="navigate-back-circle" d="M182.857 365.714l292.571 292.571h182.857l-219.429-219.429h365.714v-146.286h-365.714l219.429-219.429h-182.857zM512 877.714c-282.77 0-512-229.23-512-512s229.23-512 512-512c282.77 0 512 229.23 512 512s-229.23 512-512 512zM512 804.571c242.374 0 438.857-196.483 438.857-438.857s-196.483-438.857-438.857-438.857c-242.374 0-438.857 196.483-438.857 438.857s196.483 438.857 438.857 438.857z" />
<glyph unicode="&#xe653;" glyph-name="navigate-back-disc" data-tags="navigate-back-disc" d="M512 877.714c-282.77 0-512-229.23-512-512s229.23-512 512-512c282.77 0 512 229.23 512 512s-229.23 512-512 512zM438.857 658.285h219.429l-219.429-219.429h438.857v-146.286h-438.857l219.429-219.429h-219.429l-292.571 292.571z" />
<glyph unicode="&#xe654;" glyph-name="navigate-external" data-tags="navigate-external" horiz-adv-x="731" d="M0 731.428v-731.429h731.429v292.571h-73.143v-219.429h-585.143v585.143h219.429v73.143h-292.571zM438.857 731.428v-73.143h167.281l-313.567-314.598 52.388-51.116 313.326 314.357v-168.071h73.143v292.571h-292.571z" />
<glyph unicode="&#xe655;" glyph-name="navigate-forward-circle" data-tags="navigate-forward-circle" d="M841.143 365.714l-292.571 292.571h-182.857l219.429-219.429h-365.714v-146.286h365.714l-219.429-219.429h182.857zM512 877.714c-282.77 0-512-229.23-512-512s229.23-512 512-512c282.77 0 512 229.23 512 512s-229.23 512-512 512zM512 804.571c242.374 0 438.857-196.483 438.857-438.857s-196.483-438.857-438.857-438.857c-242.374 0-438.857 196.483-438.857 438.857s196.483 438.857 438.857 438.857z" />
<glyph unicode="&#xe656;" glyph-name="navigate-forward-disc" data-tags="navigate-forward-disc" d="M512 877.714c282.77 0 512-229.23 512-512s-229.23-512-512-512c-282.77 0-512 229.23-512 512s229.23 512 512 512zM585.143 658.285h-219.429l219.429-219.429h-438.857v-146.286h438.857l-219.429-219.429h219.429l292.571 292.571z" />
<glyph unicode="&#xe657;" glyph-name="navigate-history" data-tags="navigate-history" d="M548.571 804.571c-239.259-0.123-433.735-191.693-438.546-429.817l-110.025-9.041 169.143-146.286 123.429 169.143-108.996-8.513c7.915 195.563 168.254 351.134 364.983 351.371 201.991 0 365.727-163.736 365.727-365.714s-163.736-365.714-365.714-365.714c-99.7 0.137-190.028 40.148-255.915 104.937l-59.938-43.201c79.908-83.114 192.003-134.778 316.165-134.88 242.062 0 438.545 196.483 438.545 438.858s-196.483 438.857-438.857 438.857zM548.022 622.229c-19.962-0.309-36.026-16.564-36.026-36.571 0-0.181 0.001-0.361 0.004-0.541v-219.401c0.001-11.523 5.33-21.8 13.658-28.504l182.927-146.34c6.279-5.225 14.428-8.396 23.317-8.396 20.2 0 36.575 16.375 36.575 36.575 0 11.735-5.526 22.179-14.118 28.871l-169.216 135.369v201.853c0.002 0.153 0.004 0.333 0.004 0.514 0 20.2-16.375 36.575-36.575 36.575-0.193 0-0.386-0.001-0.578-0.004z" />
<glyph unicode="&#xe658;" glyph-name="navigate-refresh" data-tags="navigate-refresh" d="M0 292.571v-438.857l176.473 176.473c85.95-86.275 204.804-139.717 336.142-139.903 236.011 0.171 432.178 173.183 468.469 399.602l-110.784 2.685c-35.216-168.116-182.225-292.56-358.301-292.571-101.031 0.207-192.414 41.351-258.476 107.72l185.335 184.851h-438.857zM1024 877.714l-176.473-176.473c-85.95 86.275-204.804 139.717-336.142 139.903-236.011-0.171-432.178-173.183-468.469-399.602l110.784-2.685c35.216 168.116 182.225 292.56 358.301 292.571 101.031-0.207 192.414-41.351 258.476-107.72l-185.335-184.851h438.857v438.857z" />
<glyph unicode="&#xe659;" glyph-name="navigate-reload" data-tags="navigate-reload" d="M1024 438.857v438.857l-438.857-438.857zM512 841.143c-262.572 0-475.429-212.857-475.429-475.429s212.857-475.429 475.429-475.429c236.626 0.17 432.793 173.182 469.084 399.601l-110.784 2.685c-35.216-168.116-182.225-292.56-358.301-292.571-201.976 0-365.712 163.736-365.712 365.714s163.736 365.714 365.714 365.714c175.941-0.197 322.769-124.605 357.521-290.24l111.653-2.331c-36.653 229.052-232.703 402.011-469.203 402.286z" />
<glyph unicode="&#xe65a;" glyph-name="package" data-tags="package" horiz-adv-x="1170" d="M585.143 877.714l-585.143-157.163v-707.235l585.143-157.163 585.143 157.163v707.235l-585.143 157.163zM77.868 71.105l-0.459 531.574 468.721-125.895v-531.451l-468.265 125.77zM77.409 681.26l195.357 52.47 507.424-136.454-195.048-52.39-507.733 136.374zM1092.42 71.105l-468.265-125.77v531.451l156.036 41.909v-191.543l156.038 41.911v191.541l156.648 42.073-0.461-531.574zM936.229 639.187v0.147l-507.448 136.294 156.362 41.997 507.733-136.371-156.648-42.068z" />
<glyph unicode="&#xe65b;" glyph-name="pin" data-tags="pin" d="M1024 511.997c-48.577-52.047-117.325-65.265-182.857-36.568-74.579-74.494-144.85-144.936-219.429-219.43 50.641-94.922 41.367-180.106-36.571-255.998l-182.857 146.283-402.286-292.572 292.571 402.287-146.286 182.857c75.973 77.848 160.98 87.16 256 36.574 74.579 74.501 144.85 144.93 219.429 219.43-28.732 65.462-15.52 134.329 36.571 182.857 119.488-119.605 246.656-245.93 365.714-365.72z" />
<glyph unicode="&#xe65c;" glyph-name="repo" data-tags="repo" d="M219.429 877.714h804.571v-146.286h-804.571v146.286zM219.429 658.285v-585.143h804.571v585.143h-219.429v-109.714h-365.714v109.714z" />
<glyph unicode="&#xe65d;" glyph-name="repo-git" data-tags="repo-git" d="M219.429 658.285v-158.746l68.46 68.46c22.855 22.855 59.653 22.855 82.509 0l343.888-343.888c22.855-22.855 22.855-59.653 0-82.509l-68.46-68.46h378.174v585.143h-219.429v-109.714h-365.714v109.714h-219.429zM219.429 877.714h804.571v-146.286h-804.571v146.286zM645.869 212.175l-287.411 287.408c-16.549 16.556-43.392 16.556-59.955 0l-59.676-59.694 75.702-75.703c17.595 5.949 37.768 1.975 51.788-12.071 14.106-14.112 18.060-34.457 11.964-52.12l72.972-72.963c17.659 6.085 38.019 2.139 52.118-11.973 19.701-19.703 19.701-51.626 0-71.342-19.715-19.707-51.638-19.707-71.36 0-14.815 14.832-18.483 36.609-10.968 54.864l-68.057 68.050v-179.083c4.8-2.386 9.334-5.542 13.332-9.541 19.701-19.699 19.701-51.626 0-71.35-19.701-19.691-51.645-19.691-71.331 0-19.701 19.732-19.701 51.655 0 71.35 4.871 4.863 10.51 8.545 16.527 11.010v180.753c-6.018 2.469-11.641 6.11-16.527 11.010-14.923 14.918-18.512 36.827-10.861 55.148l-74.627 74.645-197.080-197.062c-16.556-16.572-16.556-43.418 0-59.97l287.425-287.412c16.549-16.556 43.385-16.556 59.955 0l286.071 286.075c16.556 16.56 16.556 43.418 0 59.97z" />
<glyph unicode="&#xe65e;" glyph-name="repo-tfvc" data-tags="repo-tfvc" d="M219.429 877.714h804.571v-146.286h-804.571v146.286zM219.429 658.285v-76.062c73.246-10.85 135.351-51.379 174.7-108.743 10.126 47.314 39.020 75.539 74.273 92.76l-29.544-17.669v109.714h-219.429zM804.571 658.285v-109.714h-146.598c44.757-33.677 73.409-86.679 73.455-146.374 0-100.901-81.868-182.769-182.857-182.769-45.427 0.022-86.976 16.606-118.941 44.039-9.389-36.478-25.658-68.058-47.314-95.144 45.266 46.24 68.71 51.097 93.288 51.105 87.864-0.006 161.369-62.229 178.767-145.097l369.629-1.189v585.143h-219.429zM305.996 105.022c-29.511-16.622-64.249-27.724-101.243-30.958 59.393-10.863 71.292-33.079 78.289-57.371l13.427 56.45c4.397 21.358 11.911 40.313 22.15 57.451zM182.857 512c-100.989 0-182.857-81.868-182.857-182.857 0.106-78.557 49.733-145.495 119.333-171.282l-15.695-84.937c-57.905-3.31-103.612-51.062-103.638-109.495 0-60.594 49.121-109.715 109.714-109.715s109.714 49.121 109.714 109.714c-0.062 43.197-25.078 80.536-61.403 98.38l16.323 84.906c3.946-0.309 8.556-0.489 13.206-0.495 36.157 0.148 73.85 13.614 104.247 36.312l89.207-90.325c-9.596-15.955-15.279-35.209-15.295-55.79 0-60.438 49.121-109.559 109.715-109.559s109.714 49.121 109.714 109.714c0 60.594-49.121 109.714-109.714 109.714-20.588-0.049-39.832-5.762-56.268-15.661l-89.223 90.223c22.319 29.939 35.744 67.65 35.777 108.497-0.049 3.663-0.208 7.383-0.478 11.072l84.638 14.155c18.152-36.968 55.515-61.971 98.721-62 60.569 0 109.69 49.121 109.69 109.714s-49.121 109.714-109.714 109.714c-58.396-0.074-106.098-45.758-109.398-103.338l-84.58-17.198c-26.227 70.865-93.199 120.476-171.767 120.536zM182.857 438.857c60.594 0 109.714-49.121 109.714-109.714s-49.121-109.714-109.714-109.714c-60.594 0-109.714 49.121-109.714 109.714s49.121 109.714 109.714 109.714z" />
<glyph unicode="&#xe65f;" glyph-name="repository" data-tags="repository" horiz-adv-x="1170" d="M0 585.143v-731.429h1170.286v731.429h-365.714v-146.286h-438.857v146.286zM0 877.714h1170.286v-182.857h-1170.286z" />
<glyph unicode="&#xe660;" glyph-name="repository-submodule" data-tags="repository-submodule" horiz-adv-x="1170" d="M226.143 877.712c-44.206 0-79.857-35.652-79.857-79.857v-302.286l166.429 166.429c21.429 21.429 55.857 21.429 77.286 0l420.714-420.714c21.429-21.429 21.429-55.857 0-77.286l-164-164h523.571v731.429h-512v66.429c0 44.206-35.652 79.857-79.857 79.857h-352.286zM347.43 548.571c-9.362 0-18.723-3.586-25.897-10.759l-56.315-56.315 63.078-63.075c5.76 2.026 12.401 3.198 19.315 3.204 33.028 0 59.95-26.922 59.95-60.132 0 0 0 0 0 0-0.020-6.907-1.201-13.532-3.359-19.698l84.445-83.726c5.76 2.026 12.401 3.198 19.315 3.204-0.182 0-0.182 0-0.182 0 33.21 0 60.132-26.922 60.132-60.132 0 0 0 0 0 0s0 0 0 0c0-33.21-26.922-60.132-60.132-60.132 0 0 0 0 0 0s0 0 0 0c-33.21 0-60.132 26.922-60.132 60.132 0 0 0 0 0 0 0.020 6.907 1.202 13.531 3.36 19.697l-76.854 76.132v-202.394c19.941-10.054 33.384-30.359 33.407-53.807 0 0.020 0 0.020 0 0.020 0-33.21-26.922-60.132-60.132-60.132 0 0 0 0 0 0-33.21 0-60.132 26.922-60.132 60.132 0 0 0 0 0 0 0.011 23.465 13.461 43.786 33.070 53.685l0.337 213.232c-19.941 10.054-33.384 30.359-33.407 53.807 0.020 6.886 1.202 13.511 3.36 19.676l-63.234 62.511-216.663-216.663c-14.347-14.347-14.347-37.446 0-51.793l310.773-310.773c14.347-14.347 37.446-14.347 51.793 0l310.773 310.773c14.347 14.347 14.347 37.446 0 51.793l-310.773 310.773c-7.174 7.174-16.535 10.759-25.897 10.759z" />
<glyph unicode="&#xe661;" glyph-name="save" data-tags="save" d="M365.714 0h146.286v-146.286h-146.286zM73.143 877.714c-40.521 0-73.143-32.622-73.143-73.143v-877.714c0-40.521 32.622-73.143 73.143-73.143h146.286v329.143c0 20.261 16.311 36.571 36.571 36.571h512c20.261 0 36.571-16.311 36.571-36.571v-329.143h146.286c40.521 0 73.143 32.622 73.143 73.143v877.714c0 40.521-32.622 73.143-73.143 73.143h-877.714zM163.165 731.428h697.67c9.351 0 16.879-7.528 16.879-16.879v-185.67c0-9.351-7.528-16.879-16.879-16.879h-697.67c-9.351 0-16.879 7.528-16.879 16.879v185.67c0 9.351 7.528 16.879 16.879 16.879z" />
<glyph unicode="&#xe662;" glyph-name="search" data-tags="search" d="M645.935 877.714q50.995 0 98.473-14.010 48.064-14.017 89.681-39.704 42.203-25.1 76.785-60.131 35.169-34.445 60.373-76.481 25.204-41.456 38.686-88.158 14.068-46.708 14.068-95.749 0-52.547-14.654-102.167-14.068-49.041-39.858-92.83-25.79-43.202-61.546-79.4-35.169-35.618-77.372-61.305-41.616-25.687-89.094-40.283-46.892-14.010-95.542-14.010-38.686 0-67.993 3.534-29.307 4.1-53.339 11.097-23.446 7.584-42.789 17.509-18.757 9.931-36.927 22.188l-293.66-293.666q-25.204-20.435-55.098-20.435-16.412 0-32.824 6.432t-31.652 19.848q-16.412 14.017-24.032 32.699-7.62 18.64-7.62 38.488 0 19.269 7.034 37.951 7.62 18.682 21.101 32.112l283.109 281.402q-31.066 49.628-42.789 99.248-11.723 50.207-11.723 101.588 0 51.96 15.24 99.835 15.24 48.454 41.616 89.911 26.963 42.036 63.89 75.894 36.927 33.865 79.716 57.799 43.375 24.52 91.439 37.364 48.064 13.43 97.3 13.43zM376.893 503.482q0-56.632 19.929-105.673 20.515-49.041 56.27-85.238 36.341-35.611 85.578-56.632 49.236-20.435 107.265-20.435 55.684 0 102.576 20.435 47.478 21.022 81.475 56.632 33.997 36.198 52.753 85.238 19.343 49.041 19.343 105.673 0 54.293-19.343 101.001t-53.926 80.566q-33.997 34.452-80.888 53.713-46.892 19.269-101.99 19.269t-104.334-19.269q-48.65-19.262-85.578-53.713-36.341-33.858-58.029-80.566-21.101-46.122-21.101-101.001z" />
<glyph unicode="&#xe663;" glyph-name="search-filter" data-tags="search-filter" d="M512 877.714c-282.77 0-512-71.634-512-160v-96l365.714-365.714v-329.143c0-35.346 75.592-73.143 146.286-73.143s146.286 37.797 146.286 73.143v329.143l365.714 365.714v96c0 88.366-229.23 160-512 160zM94.384 738.89c23.944 13.658 57.582 26.62 97.278 37.489 87.944 24.076 201.708 37.336 320.338 37.336s232.394-13.26 320.338-37.336c39.696-10.868 73.334-23.83 97.28-37.489 15.792-9.005 24.324-16.623 28.296-21.176-3.972-4.55-12.506-12.168-28.296-21.176-23.946-13.658-57.584-26.62-97.28-37.488-87.942-24.076-201.708-37.336-320.338-37.336s-232.394 13.26-320.338 37.336c-39.696 10.868-73.334 23.83-97.278 37.488-15.792 9.007-24.324 16.624-28.298 21.176 3.974 4.55 12.506 12.168 28.298 21.176z" />
<glyph unicode="&#xe664;" glyph-name="security" data-tags="security" horiz-adv-x="878" d="M439.022 877.714l-435.12-219.43c0 0-72.459-658.286 435.12-804.57 507.578 146.285 435.118 804.57 435.118 804.57l-435.118 219.43zM360.601 653.714h156.701v-24.615l-38.875-375.385h-78.951l-38.875 375.385v24.615zM438.377 173.714c10.983 0 21.199-2.117 30.65-6.35 9.706-4.233 18.136-10.017 25.288-17.354s12.769-15.944 16.856-25.82c4.087-9.594 6.131-20.035 6.131-31.322s-2.044-21.73-6.131-31.324c-4.087-9.594-9.704-17.918-16.856-24.973s-15.582-12.557-25.288-16.508c-9.451-4.233-19.667-6.35-30.65-6.35-10.728 0-20.817 1.975-30.267 5.926s-17.754 9.453-24.905 16.508c-6.896 7.055-12.387 15.38-16.474 24.975s-6.131 20.176-6.131 31.746c0 11.287 2.044 21.728 6.131 31.322 4.087 9.877 9.577 18.483 16.474 25.82 7.152 7.337 15.455 13.121 24.905 17.354s19.539 6.35 30.267 6.35z" />
<glyph unicode="&#xe665;" glyph-name="security-access" data-tags="security-access" horiz-adv-x="1097" d="M783.988 877.714c-172.969 0-313.155-141.030-313.155-315.039 0-24.12 2.691-47.502 7.829-70.022l-478.662-481.419v-78.76l78.289-78.76h156.577l78.289 78.76v78.76h78.289v78.76h78.289v78.76h156.577l86.607 87.128c22.875-5.291 46.606-8.122 71.071-8.122 172.969 0 313.155 141.030 313.155 315.039s-140.308 314.916-313.155 314.916zM469.732 326.272l-391.444-393.799v78.76l391.444 393.799v-78.76zM861.176 562.552c-43.181 0-78.289 35.319-78.289 78.76s35.108 78.76 78.289 78.76c43.181 0 78.289-35.318 78.289-78.76s-35.108-78.76-78.289-78.76z" />
<glyph unicode="&#xe666;" glyph-name="security-lock" data-tags="security-lock" horiz-adv-x="731" d="M292.571 877.714c-121.563 0-219.429-97.865-219.429-219.429v-219.429c-40.521 0-73.143-32.622-73.143-73.143v-512h731.429v512c0 40.521-32.622 73.143-73.143 73.143v219.429c0 121.563-97.865 219.429-219.429 219.429h-146.286zM292.571 768h146.286c60.782 0 109.714-48.933 109.714-109.714v-219.429h-365.714v219.429c0 60.782 48.933 109.714 109.714 109.714zM365.714 292.571c0 0 0 0 0 0 40.396 0 73.143-32.747 73.143-73.143-0.035-29.061-17.013-54.149-41.586-65.919l40.273-153.51h-144.973l40.839 153.906c-24.367 12.191-40.811 36.948-40.839 65.548 0 40.37 32.747 73.117 73.143 73.117z" />
<glyph unicode="&#xe667;" glyph-name="security-unlock" data-tags="security-unlock" d="M768 877.714c-121.563 0-219.429-97.865-219.429-219.429v-219.429h-475.429c-40.521 0-73.143-32.622-73.143-73.143v-512h731.429v512c0 40.521-32.622 73.143-73.143 73.143v219.429c0 60.782 48.933 109.714 109.714 109.714h36.571c60.782 0 108.448-48.946 109.714-109.714v-219.429h109.714v219.429c0 121.563-97.865 219.429-219.429 219.429h-36.571zM365.714 292.571c0 0 0 0 0 0 40.396 0 73.143-32.747 73.143-73.143-0.035-29.061-17.013-54.149-41.586-65.919l40.273-153.51h-144.973l40.839 153.906c-24.367 12.191-40.811 36.948-40.839 65.548 0 40.37 32.747 73.117 73.143 73.117z" />
<glyph unicode="&#xe668;" glyph-name="separator" data-tags="separator" horiz-adv-x="439" d="M146.286 877.714h73.143v-1024h-73.143v1024z" />
<glyph unicode="&#xe669;" glyph-name="settings-gear" data-tags="settings-gear" d="M856.795 248.466c-5.12-15.142-10.971-29.766-17.993-43.962l74.386-156.448c-24.503-31.014-52.517-59.027-83.529-83.603l-156.526 74.458c-14.117-7.091-28.818-12.87-43.959-18.067l-58.149-163.475c-19.383-2.266-39.058-3.654-59.026-3.654-19.895 0-39.57 1.408-58.953 3.648l-58.149 163.475c-15.141 5.184-29.842 10.976-44.032 18.067l-156.526-74.387c-31.013 24.576-59.026 52.589-83.602 83.603l74.386 156.454c-6.875 14.118-12.8 28.742-17.92 43.885l-163.547 58.221c-2.194 19.392-3.657 39.066-3.657 59.034s1.463 39.642 3.657 59.027l163.547 58.15c5.12 15.136 10.971 29.766 17.993 43.955l-74.313 156.454c24.576 30.938 52.59 59.027 83.602 83.526l156.526-74.387c14.117 7.027 28.818 12.877 44.032 18.067l58.002 163.552c19.383 2.189 39.058 3.654 58.953 3.654 19.968 0 39.643-1.472 59.099-3.648l58.149-163.558c15.141-5.12 29.769-10.97 43.959-17.99l156.526 74.387c31.013-24.506 59.026-52.589 83.529-83.533l-74.386-156.448c7.022-14.195 12.873-28.819 17.993-43.962l163.547-58.15c2.195-19.456 3.584-39.13 3.584-59.098s-1.389-39.642-3.657-59.027l-163.547-58.221zM512 585.144c-121.198 0-219.429-98.234-219.429-219.43s98.231-219.43 219.429-219.43c121.198 0 219.429 98.234 219.429 219.43s-98.231 219.43-219.429 219.43zM512 475.429c-60.635 0-109.714-49.152-109.714-109.715s49.079-109.715 109.714-109.715c60.635 0 109.714 49.152 109.714 109.715s-49.079 109.715-109.714 109.715z" />
<glyph unicode="&#xe66a;" glyph-name="settings-wrench" data-tags="settings-wrench" d="M760.453 878.482c-85.080-2.306-169.27-51.504-212.022-127.665-38.527-60.267-34.345-133.598-33.909-202.327l-386.792-389.921c-37.279-40.573-81.601-75.031-112.517-121.18-33.038-47.446-7.337-108.899 30.106-144.219 38.992-44.64 111.371-55.211 155.394-11.85 162.855 161.33 324.263 324.256 486.558 486.201 38.823 5.482 91.583-6.253 134.596 9.828 104.065 23.065 196.112 113.837 202.134 226.286-0.701 29.379 2.272 90.99-28.264 96.64-48.637-48.719-97.268-97.422-145.905-146.14-41.231 8.45-82.632 16.76-123.927 25.161l-27.984 126.144c39.394 39.325 78.787 78.672 118.182 117.997 9.231 13.733 32.952 21.541 28.224 40.974-27.051 10.392-55.512 14.84-83.872 14.072zM134.555 37.849c28.301 0 51.244-22.942 51.244-51.242 0 0 0 0 0 0s0 0 0 0c0-28.3-22.943-51.242-51.244-51.242s-51.244 22.942-51.244 51.242c0 0 0 0 0 0s0 0 0 0c0 28.3 22.943 51.242 51.244 51.242z" />
<glyph unicode="&#xe66b;" glyph-name="share" data-tags="share" d="M213.315 247.895q14.635-45.205 39.026-84.981 24.392-39.327 56.322-71.425 32.374-31.638 71.401-55.144 39.47-23.506 84.262-36.618l-25.278-76.389q-53.661 16.725-101.114 45.2-47.009 28.48-85.592 66.905-38.583 38.873-67.853 86.333-28.826 47.465-46.122 101.712l-2.218 7.684-7.983 0.547q-7.539 0.876-14.191 1.368-6.652 0.876-17.296 4.050-5.322 1.806-8.87 2.736-3.105 0.876-6.652 2.244-24.835 11.301-42.131 28.929-14.635 14.919-26.165 38.424-3.548 7.684-5.321 13.107-1.331 5.418-3.992 14.465-2.218 9.041-3.105 15.822-0.443 7.137-0.443 13.463 0 9.041 0.446 15.368 0.887 6.781 2.218 13.107 4.435 21.7 14.635 39.782 10.2 18.531 21.731 30.286 19.070 19.439 43.018 29.832 24.392 10.398 51 10.398 28.383-0.547 52.774-11.756 24.835-10.847 43.018-29.832 18.183-18.531 28.826-43.394 10.644-24.409 10.644-52.435 0-31.189-13.304-58.767-12.861-27.572-37.696-47.46l-6.652-5.418 2.661-8.133zM604.022 739.701v11.301l-10.644 0.876q-6.209 0.547-11.974 0.547-5.765 0.547-11.974 0.547-45.235 0-88.253-11.301-43.018-10.853-82.044-31.644-39.026-20.342-73.174-50.629-34.148-29.832-60.757-67.802l-65.192 44.751q31.931 46.557 72.731 83.175 41.244 36.613 88.696 61.925 47.896 25.766 100.227 38.873 52.774 13.562 107.766 13.562 13.748 0 28.383-1.368 14.635-0.93 31.931-3.174l6.209-0.93 3.992 4.542q8.87 10.847 20.4 18.985t24.392 14.016q12.861 5.872 26.609 8.587 13.748 3.174 27.052 3.174 13.748 0 27.052-2.682 7.983-2.244 13.748-4.050 6.209-1.806 11.531-4.050 22.618-10.398 38.139-25.317 15.522-14.465 27.052-35.256 1.774-3.612 3.548-7.684 2.218-3.612 4.878-11.301 7.983-23.96 7.983-46.557 0-11.756-1.774-23.506-1.774-11.301-6.652-23.057-4.879-14.465-12.861-27.572-7.539-12.659-17.739-23.057-18.626-18.985-43.018-29.378-24.391-10.398-51.444-10.398-12.417 0.876-17.296 1.368-4.879 0.547-8.426 1.368-23.505 4.542-43.461 16.73-19.513 12.204-34.148 29.832-14.635 18.082-23.061 40.23-7.983 22.148-8.426 46.557zM904.26 534.482l58.096 59.664q30.6-54.241 46.122-112.553t15.522-118.885q0-48.817-10.2-96.283-9.757-47.46-28.826-91.308t-47.009-83.63q-27.939-39.776-63.418-72.777l-4.435-4.050 0.887-6.327q1.331-9.041 1.331-13.562 0-4.542 0-11.756-1.331-11.75-2.661-19.434-1.331-7.235-3.548-14.016-4.435-13.107-12.417-27.572t-18.183-25.766q-20.4-21.245-45.235-31.644-24.391-10.847-51.444-10.847-27.939-0.547-52.774 10.398-24.392 10.847-42.574 29.832-18.183 18.531-28.826 43.848-10.644 24.863-10.644 52.889 0 26.669 9.757 50.174 9.757 23.954 26.609 42.036 16.852 18.536 39.47 29.832 23.061 11.756 49.226 14.016h4.879q1.774 0 3.105 0 1.331 0.547 1.774 0.547 20.844 0 35.035-4.542 14.635-4.542 27.496-12.21 6.652-3.612 12.861-8.133 6.209-4.050 16.852-12.659l8.87 6.781q51 54.695 78.053 122.952t27.052 143.294q0 89.956-40.8 171.774z" />
<glyph unicode="&#xe66c;" glyph-name="shop" data-tags="shop" horiz-adv-x="878" d="M512 877.714c-121.563 0-219.429-97.865-219.429-219.429v-146.286h73.143v146.286c0 81.042 65.243 146.286 146.286 146.286s146.286-65.243 146.286-146.286v-146.286h73.143v146.286c0 121.563-97.865 219.429-219.429 219.429zM292.571 804.571c-121.563 0-219.429-97.865-219.429-219.429v-73.143h73.143v73.143c0 71.891 51.356 131.31 119.522 143.821 7.772 27.297 19.952 52.699 35.71 75.411-2.969 0.118-5.948 0.196-8.946 0.196zM443.853 744.357c-20.041-15.867-34.37-38.591-39.487-64.71 21.522-25.46 34.491-58.404 34.491-94.504v-73.143h73.143v73.143c0 62.809-26.126 119.288-68.147 159.214zM0 438.857v-540.357c0-6.093 1.203-11.882 3.607-17.366 2.747-5.484 6.353-10.204 10.817-14.165 4.808-4.265 10.127-7.465 15.964-9.598 6.181-2.437 12.708-3.656 19.576-3.656h704.129c14.079 0 25.925 4.419 35.54 13.254 9.958 8.531 14.938 19.040 14.938 31.531v540.357h-804.571z" />
<glyph unicode="&#xe66d;" glyph-name="social-facebook" data-tags="social-facebook" d="M56.519 877.722c-31.219 0-56.519-25.301-56.519-56.519v-910.969c0-31.211 25.297-56.519 56.519-56.519h490.43v396.552h-133.441v154.542h133.441v113.978c0 132.261 80.78 204.279 198.769 204.279 56.517 0 105.094-4.209 119.247-6.092v-138.222l-81.834-0.040c-64.162 0-76.588-30.494-76.588-75.238v-98.666h153.036l-19.929-154.542h-133.107v-396.552h260.945c31.207 0 56.512 25.305 56.512 56.519v910.969c0 31.219-25.301 56.519-56.512 56.519h-910.969z" />
<glyph unicode="&#xe66e;" glyph-name="social-twitter" data-tags="social-twitter" horiz-adv-x="1170" d="M1170.286 728.585c-43.046-19.095-89.315-31.995-137.865-37.798 49.557 29.707 87.624 76.748 105.543 132.805-46.386-27.513-97.756-47.486-152.438-58.25-43.783 46.655-106.169 75.801-175.213 75.801-132.565 0-240.050-107.473-240.050-240.038 0-18.814 2.124-37.137 6.219-54.705-199.502 10.010-376.376 105.578-494.772 250.808-20.663-35.452-32.504-76.684-32.504-120.677 0-83.283 42.379-156.755 106.789-199.801-39.348 1.246-76.362 12.045-108.725 30.023-0.027-1-0.027-2.007-0.027-3.019 0-116.301 82.745-213.315 192.558-235.382-20.142-5.487-41.349-8.418-63.24-8.418-15.468 0-30.503 1.509-45.163 4.306 30.55-95.364 119.197-164.764 224.243-166.695-82.154-64.387-185.655-102.764-298.125-102.764-19.376 0-38.482 1.141-57.261 3.358 106.233-68.114 232.41-107.854 367.97-107.854 441.53 0 682.984 365.77 682.984 682.99 0 10.407-0.234 20.756-0.696 31.058 46.895 33.837 87.589 76.111 119.771 124.252z" />
<glyph unicode="&#xe66f;" glyph-name="sort-ascending" data-tags="sort-ascending" horiz-adv-x="585" d="M219.429-73.143h73.143zM292.571-73.143v731.429l219.429-219.429v109.714l-256 256-256-256v-109.714l219.429 219.429v-731.429z" />
<glyph unicode="&#xe670;" glyph-name="sort-descending" data-tags="sort-descending" horiz-adv-x="585" d="M219.429 804.571h73.143zM292.571 804.571v-731.429l219.429 219.429v-109.714l-256-256-256 256v109.714l219.429-219.429v731.429z" />
<glyph unicode="&#xe671;" glyph-name="square" data-tags="square" d="M73.143 804.571h877.714v-877.714h-877.714z" />
<glyph unicode="&#xe672;" glyph-name="status-error" data-tags="status-error" d="M512 877.714c0 0 0 0 0 0-282.77 0-512-229.23-512-512 0 0 0 0 0 0s0 0 0 0c0-282.77 229.23-512 512-512 0 0 0 0 0 0 282.77 0 512 229.23 512 512 0 0 0 0 0 0s0 0 0 0c0 282.77-229.23 512-512 512zM416 749.714h192v-31.508l-47.631-480.492h-96.738l-47.631 480.492v31.508zM511.295 173.714c13.457 0 25.977-2.54 37.557-7.619 11.893-5.079 22.22-12.022 30.982-20.826s15.647-19.131 20.654-30.982c5.007-11.513 7.512-24.043 7.512-37.588s-2.504-26.075-7.512-37.588c-5.007-11.513-11.891-21.503-20.654-29.969s-19.090-15.068-30.982-19.809c-11.579-5.079-24.099-7.619-37.557-7.619-13.144 0-25.505 2.371-37.084 7.111s-21.751 11.343-30.514 19.809c-8.45 8.466-15.178 18.456-20.186 29.969s-7.512 24.212-7.512 38.096c0 13.545 2.504 26.075 7.512 37.588 5.007 11.852 11.736 22.178 20.186 30.982 8.763 8.804 18.934 15.747 30.514 20.826s23.94 7.619 37.084 7.619z" />
<glyph unicode="&#xe673;" glyph-name="status-failure" data-tags="status-failure" d="M512 877.714c0 0 0 0 0 0-282.77 0-512-229.23-512-512 0 0 0 0 0 0s0 0 0 0c0-282.77 229.23-512 512-512 0 0 0 0 0 0 282.77 0 512 229.23 512 512 0 0 0 0 0 0s0 0 0 0c0 282.77-229.23 512-512 512zM293.053 685.714l218.947-218.947 218.947 218.947 101.053-101.053-218.947-218.947 218.947-218.947-101.053-101.053-218.947 218.947-218.947-218.947-101.053 101.053 218.947 218.947-218.947 218.947 101.053 101.053z" />
<glyph unicode="&#xe674;" glyph-name="status-help" data-tags="status-help" d="M512 877.714c0 0 0 0 0 0-282.77 0-512-229.23-512-512 0 0 0 0 0 0s0 0 0 0c0-282.77 229.23-512 512-512 0 0 0 0 0 0 282.77 0 512 229.23 512 512 0 0 0 0 0 0s0 0 0 0c0 282.77-229.23 512-512 512zM506.285 749.714c32.443 0 62.618-3.454 90.525-10.363 27.908-6.58 52.152-17.108 72.734-31.584 20.931-14.476 37.152-33.065 48.664-55.766 11.861-22.372 17.791-49.351 17.791-80.936 0-20.069-2.442-38.327-7.326-54.777-4.884-16.121-12.034-31.42-21.453-45.896s-21.107-28.458-35.061-41.947c-13.954-13.16-30.001-26.814-48.141-40.961-12.21-9.541-23.023-18.423-32.441-26.648-9.070-8.225-16.746-16.451-23.025-24.676-5.93-7.896-10.464-16.45-13.604-25.662-3.14-8.883-4.711-19.083-4.711-30.598 0-7.896 1.048-15.957 3.141-24.182 2.442-8.225 5.581-15.134 9.418-20.727h-137.619c-3.488 8.554-6.28 18.095-8.373 28.623-1.744 10.857-2.615 21.057-2.615 30.598 0 15.134 1.569 28.951 4.709 41.453s7.848 24.182 14.127 35.039c6.279 11.186 14.13 21.714 23.549 31.584 9.419 10.199 20.406 20.233 32.965 30.104 13.256 10.528 24.769 20.234 34.537 29.117 10.117 9.212 18.662 18.26 25.639 27.143 6.977 9.212 12.211 18.588 15.699 28.129 3.488 9.87 5.232 20.728 5.232 32.572 0 10.199-1.919 19.575-5.756 28.129-3.837 8.883-9.418 16.45-16.744 22.701-6.977 6.251-15.699 11.186-26.164 14.805-10.117 3.619-21.453 5.43-34.012 5.43-27.21 0-55.468-5.43-84.771-16.287-29.303-10.528-57.036-26.647-83.199-48.361v148.543c26.861 15.134 56.165 26.486 87.91 34.053s64.537 11.35 98.375 11.35zM512 173.714c53.019 0 96-42.981 96-96 0 0 0 0 0 0s0 0 0 0c0-53.019-42.981-96-96-96s-96 42.981-96 96c0 0 0 0 0 0s0 0 0 0c0 53.019 42.981 96 96 96z" />
<glyph unicode="&#xe675;" glyph-name="status-info" data-tags="status-info" d="M512 877.714c-282.77 0-512-229.23-512-512s229.23-512 512-512c282.77 0 512 229.23 512 512s-229.23 512-512 512zM512 731.428c0 0 0 0 0 0 50.495 0 91.429-40.934 91.429-91.429s-40.934-91.429-91.429-91.429c0 0 0 0 0 0-50.495 0-91.429 40.934-91.429 91.429s40.934 91.429 91.429 91.429zM438.857 438.857h146.286v-438.857h-146.286v438.857z" />
<glyph unicode="&#xe676;" glyph-name="status-info-outline" data-tags="status-info-outline" d="M603.429 603.428c0 0 0 0 0 0 0-50.495-40.934-91.429-91.429-91.429 0 0 0 0 0 0s0 0 0 0c-50.495 0-91.429 40.934-91.429 91.429 0 0 0 0 0 0 0 50.495 40.934 91.429 91.429 91.429 0 0 0 0 0 0 50.495 0 91.429-40.934 91.429-91.429zM438.857 438.857h146.286v-365.714h-146.286zM512 877.714c-282.77 0-512-229.23-512-512 0 0 0 0 0 0 0-282.77 229.23-512 512-512 0 0 0 0 0 0 282.77 0 512 229.23 512 512 0 0 0 0 0 0 0 282.77-229.23 512-512 512zM512 804.571c242.374 0 438.857-196.483 438.857-438.857 0 0 0 0 0 0 0-242.374-196.483-438.857-438.857-438.857 0 0 0 0 0 0s0 0 0 0c-242.374 0-438.857 196.483-438.857 438.857 0 0 0 0 0 0 0 242.374 196.483 438.857 438.857 438.857z" />
<glyph unicode="&#xe677;" glyph-name="status-success" data-tags="status-success" d="M512 877.714c-282.77 0-512-229.23-512-512s229.23-512 512-512c282.77 0 512 229.23 512 512s-229.23 512-512 512zM777.143 694.857l100.571-99.263-477.714-595.594-326.857 347.429 100.571 99.263 226.286-223.344 377.143 471.509z" />
<glyph unicode="&#xe678;" glyph-name="status-waiting" data-tags="status-waiting" d="M512 877.714c-283.648 0-512-228.352-512-512s228.352-512 512-512c283.648 0 512 228.352 512 512s-228.352 512-512 512zM510.897 805.602c0.328 0.005 0.715 0.008 1.103 0.008 40.4 0 73.15-32.75 73.15-73.15 0-0.363-0.003-0.725-0.008-1.087l0.001-292.517h146.286c0.308 0.005 0.671 0.007 1.034 0.007 40.4 0 73.15-32.75 73.15-73.15s-32.75-73.15-73.15-73.15c-0.364 0-0.727 0.003-1.089 0.008l-219.374-0.001c-40.394 0.004-73.139 32.749-73.143 73.142v365.715c-0.005 0.307-0.007 0.669-0.007 1.032 0 40.012 32.125 72.521 71.989 73.141z" />
<glyph unicode="&#xe679;" glyph-name="status-warning" data-tags="status-warning" horiz-adv-x="1170" d="M583.487 876.656c-0.009 0-0.016-0.004-0.027-0.004-12.254-0.064-24.66-3.176-36.058-9.692-15.357-8.779-26.26-22.198-31.955-37.437l-500.58-858.469c-9.039-11.887-14.499-26.649-14.83-42.719-0.003-0.11-0.002-0.222-0.004-0.33-0.007-0.406-0.031-0.81-0.031-1.219 0-0.269 0.015-0.535 0.018-0.804 0.035-23.118 11.237-45.529 31.482-59.348 0.421-0.291 0.841-0.58 1.268-0.862 0.358-0.235 0.721-0.464 1.085-0.692 0.865-0.549 1.745-1.080 2.634-1.594 0.008 0 0.014 0.001 0.022-0.027h0.022c10.739-6.19 23.205-9.746 36.54-9.746h1024.143c40.482 0 73.071 32.59 73.071 73.071 0 19.008-7.187 36.274-19 49.246l-497.683 853.504c-5.696 15.236-16.597 28.647-31.951 37.424-11.398 6.516-23.804 9.628-36.058 9.692-0.355 0.007-0.712 0.001-1.067 0.004-0.346-0.002-0.694 0.007-1.040 0zM489.143 694.857h192v-29.259l-47.629-446.17h-96.741l-47.629 446.17v29.259zM584.438 137.143c13.457 0 25.979-2.541 37.558-7.621 11.893-5.079 22.219-12.022 30.982-20.826s15.645-19.13 20.652-30.982c5.007-11.513 7.513-24.040 7.513-37.585s-2.506-26.076-7.513-37.589c-5.007-11.513-11.889-21.503-20.652-29.969s-19.090-15.067-30.982-19.808c-11.579-5.079-24.101-7.621-37.558-7.621-13.144 0-25.505 2.371-37.085 7.112s-21.751 11.342-30.513 19.808c-8.45 8.466-15.176 18.456-20.183 29.969s-7.513 24.215-7.513 38.098c0 13.545 2.506 26.072 7.513 37.585 5.007 11.852 11.733 22.178 20.183 30.982 8.763 8.804 18.934 15.747 30.513 20.826s23.941 7.621 37.085 7.621z" />
<glyph unicode="&#xe67a;" glyph-name="switch" data-tags="switch" d="M0 109.714l256-256h109.714l-219.429 219.429h512v73.143h-512l219.429 219.429h-109.714zM1024 621.714l-256-256h-109.714l219.429 219.429h-512v73.143h512l-219.429 219.429h109.714z" />
<glyph unicode="&#xe67b;" glyph-name="tag" data-tags="tag" d="M578.448 877.714c-11.22 0-21.304-4.496-28.625-11.875l-529.747-529.747c-26.683-26.688-26.808-69.562-0.125-96.249l366.123-366.123c26.683-26.675 69.692-26.675 96.374 0l529.747 529.747c7.321 7.36 11.75 17.531 11.75 28.75v404.998c0 11.213-4.429 21.31-11.75 28.625-7.321 7.354-17.53 11.875-28.75 11.875h-404.998zM801.572 749.715c52.118-0.010 94.365-42.257 94.374-94.374-0.010-52.119-42.257-94.366-94.374-94.375-52.119 0.009-94.366 42.257-94.375 94.374 0.010 52.119 42.257 94.366 94.374 94.375z" />
<glyph unicode="&#xe67c;" glyph-name="tfvc-branch" data-tags="tfvc-branch" horiz-adv-x="1170" d="M0 877.714v-329.143l146.286-146.286v219.429c70.878-73.43 157.398-173.028 219.429-256 109.714-146.286 146.286-225.524 146.286-512h1.147c0-0.293-0.005-0.573-0.005-0.866h146.286c0 286.476 41.531 374.28 145.394 512.764 29.853 39.803 115.266 143.282 219.177 256.102v-219.429l146.286 146.286v329.143h-329.143l-146.286-146.286h219.429c-72.717-78.818-175.938-200.090-240.228-286.125-35.916-47.888-65.040-94.392-88.138-144.705-23.162 50.648-52.425 97.406-88.549 145.571-26.181 34.908-114.608 165.085-224.873 285.259h202.931l-146.286 146.286z" />
<glyph unicode="&#xe67d;" glyph-name="tfvc-branch-locked" data-tags="tfvc-branch-locked" horiz-adv-x="1170" d="M906.973 438.857c-72.938 0-131.661-55.924-131.661-125.388v-125.388c-24.313 0-43.884-18.64-43.884-41.795v-292.571h438.857v292.571c0 23.155-19.571 41.795-43.884 41.795v125.388c0 69.465-58.723 125.388-131.661 125.388h-87.768zM906.973 376.165h87.768c36.469 0 65.83-27.964 65.83-62.696v-125.388h-219.429v125.388c0 34.732 29.361 62.696 65.83 62.696zM950.857 104.491c24.237-0.001 43.884-18.713 43.884-41.796 0-0.001 0-0.002 0-0.003-0.022-16.605-10.208-30.94-24.95-37.665l24.165-87.719h-86.982l24.5 87.946c-14.618 6.967-24.482 21.112-24.5 37.453 0-0.014 0-0.013 0-0.012 0 23.083 19.647 41.795 43.884 41.796zM0 877.714v-329.143l146.286-146.286v219.429c70.878-73.43 157.398-173.028 219.429-256 109.714-146.286 146.286-225.524 146.286-512h1.147c0-0.293-0.005-0.573-0.005-0.866h108.571v366.58c0 40.521 32.622 73.143 73.143 73.143v73.143c0 81.042 65.243 146.286 146.286 146.286h84.754c29.596 34.070 62.727 71.306 98.103 109.714v-109.714h36.571c21.509 0 41.882-4.635 60.241-12.902l49.473 49.473v329.143h-329.143l-146.286-146.286h219.429c-72.717-78.818-175.938-200.090-240.228-286.125-35.916-47.888-65.040-94.392-88.138-144.705-23.162 50.648-52.425 97.406-88.549 145.571-26.181 34.908-114.61 165.085-224.875 285.259h202.933l-146.286 146.286h-329.143z" />
<glyph unicode="&#xe67e;" glyph-name="tfvc-change-list" data-tags="tfvc-change-list" horiz-adv-x="1170" d="M658.286 73.143h219.429v-73.143h-219.429zM658.286 219.428h219.429v-73.143h-219.429zM658.286 365.714h219.429v-73.143h-219.429zM512 512v-658.286h512v658.286h-512zM585.143 438.857h365.714v-512h-365.714v512zM109.714 804.571c-60.782 0-109.714-48.933-109.714-109.714v-768h438.857v658.286h658.286v-658.286h73.143v621.714c0 60.782-48.933 109.714-109.714 109.714h-548.571v36.571c0 60.782-48.933 109.714-109.714 109.714h-292.571z" />
<glyph unicode="&#xe67f;" glyph-name="tfvc-commit" data-tags="tfvc-commit" horiz-adv-x="585" d="M219.429 877.714v-228.942c-127.132-33.627-219.339-147.58-219.429-283.084 0.179-135.433 92.387-249.305 217.446-282.436l1.983-229.538h146.286v228.942c127.132 33.627 219.339 147.58 219.429 283.084-0.179 135.433-92.387 249.305-217.446 282.436l-1.983 229.538h-146.286zM292.571 512c80.791 0 146.286-65.494 146.286-146.286s-65.494-146.286-146.286-146.286c-80.791 0-146.286 65.494-146.286 146.286s65.494 146.286 146.286 146.286z" />
<glyph unicode="&#xe680;" glyph-name="tfvc-compare" data-tags="tfvc-compare" horiz-adv-x="878" d="M73.143 877.714v-731.429c0-81.042 65.243-146.286 146.286-146.286h146.286v-146.286l219.429 219.429-219.429 219.429v-146.286h-109.714c-20.261 0-36.571 16.311-36.571 36.571v694.857h-146.286zM804.571-146.286v731.429c0 81.042-65.243 146.286-146.286 146.286h-146.286v146.286l-219.429-219.428 219.429-219.429v146.286h109.714c20.261 0 36.571-16.311 36.571-36.571v-694.857h146.286z" />
<glyph unicode="&#xe681;" glyph-name="tfvc-merge" data-tags="tfvc-merge" horiz-adv-x="731" d="M292.571 877.714l-292.571-292.571v-182.857l219.429 219.429v-768h146.286v258.746c80.356-72.223 184.529-112.265 292.571-112.46v146.286c-161.583 0-292.571 130.989-292.571 292.571v182.857l219.429-219.429v182.857z" />
<glyph unicode="&#xe682;" glyph-name="tfvc-pull-request" data-tags="tfvc-pull-request" horiz-adv-x="1170" d="M219.429 841.143c-100.989 0-182.857-81.868-182.857-182.857 0-74.975 45.143-139.377 109.714-167.598v-249.946c-64.571-28.222-109.714-92.623-109.714-167.598 0-100.989 81.868-182.857 182.857-182.857s182.857 81.868 182.857 182.857c0 74.975-45.143 139.377-109.714 167.598v249.946c64.571 28.222 109.714 92.623 109.714 167.598 0 100.989-81.868 182.857-182.857 182.857zM219.429 731.428c40.396 0 73.143-32.747 73.143-73.143s-32.747-73.143-73.143-73.143c-40.396 0-73.143 32.747-73.143 73.143s32.747 73.143 73.143 73.143zM219.429 146.285c40.396 0 73.143-32.747 73.143-73.143s-32.747-73.143-73.143-73.143c-40.396 0-73.143 32.747-73.143 73.143s32.747 73.143 73.143 73.143zM658.286 877.714l-219.429-219.429 219.429-219.429h146.286l-146.286 146.286h182.857c20.261 0 36.571-16.311 36.571-36.571v-307.83c-64.571-28.222-109.714-92.623-109.714-167.598 0-100.989 81.868-182.857 182.857-182.857s182.857 81.868 182.857 182.857c0 74.975-45.143 139.377-109.714 167.598v344.402c0 81.042-65.243 146.286-146.286 146.286h-219.429l146.286 146.286h-146.286zM950.857 146.285c40.396 0 73.143-32.747 73.143-73.143s-32.747-73.143-73.143-73.143c-40.396 0-73.143 32.747-73.143 73.143s32.747 73.143 73.143 73.143z" />
<glyph unicode="&#xe683;" glyph-name="tfvc-raw-source" data-tags="tfvc-raw-source" d="M731.429 585.143h292.571v-146.286h-292.571zM512 877.714h365.714v-146.286h-365.714zM0 877.714h365.714v-146.286h-365.714zM0 0h658.286v-146.286h-658.286zM219.429 292.571h658.286v-146.286h-658.286zM219.429 585.143h365.714v-146.286h-365.714z" />
<glyph unicode="&#xe684;" glyph-name="tfvc-repo" data-tags="tfvc-repo" d="M825.469 553.796c69.277 0 125.388 56.174 125.388 125.388 0 69.276-56.111 125.388-125.388 125.388-68.963 0-124.761-55.609-125.262-124.385l-143.005-35.736c-36.362 93.54-126.892 160.12-233.284 160.12-138.491 0-250.775-112.285-250.775-250.776 0-106.392 66.644-196.796 160.183-233.158l-35.736-143.131c-68.838-0.501-124.447-56.299-124.447-125.262 0-69.339 56.111-125.388 125.388-125.388s125.388 56.048 125.388 125.388c0 47.522-26.708 88.398-65.64 109.589l35.986 144.258c9.843-1.256 19.498-3.072 29.654-3.072 57.929 0 110.592 20.438 153.036 53.415l178.176-178.176c-11.034-18.62-17.742-40.062-17.742-63.321 0-69.339 56.111-125.388 125.388-125.388s125.388 56.048 125.388 125.388c0 69.339-56.111 125.388-125.388 125.388-23.259 0-44.701-6.708-63.321-17.742l-178.176 178.176c32.977 42.444 53.415 95.106 53.415 153.036 0 10.156-1.818 19.811-2.947 29.654l144.133 36.112c21.19-39.058 62.067-65.766 109.589-65.766zM323.918 428.408c-69.277 0-125.388 56.111-125.388 125.388s56.111 125.388 125.388 125.388c69.277 0 125.388-56.111 125.388-125.388s-56.111-125.388-125.388-125.388z" />
<glyph unicode="&#xe685;" glyph-name="tfvc-shelveset" data-tags="tfvc-shelveset" d="M438.857 877.714v-9.513c-127.132-33.627-219.339-147.58-219.429-283.084 0.179-135.433 92.387-249.305 217.446-282.436l1.983-229.538h146.286v228.942c127.132 33.627 219.339 147.58 219.429 283.084-0.179 135.433-92.387 249.305-217.446 282.436l-1.983 10.11h-146.286zM512 731.428c80.791 0 146.286-65.494 146.286-146.286s-65.494-146.286-146.286-146.286c-80.791 0-146.286 65.494-146.286 146.286s65.494 146.286 146.286 146.286zM0 292.571v-438.857h1024v438.857h-146.286v-292.571h-731.429v292.571h-146.286z" />
<glyph unicode="&#xe686;" glyph-name="toggle-collapse" data-tags="toggle-collapse" d="M146.286 365.714h585.143v-146.286h-585.143zM0 731.428v-877.714h877.714v877.714h-877.714zM73.143 658.285h731.429v-731.429h-731.429v731.429z" />
<glyph unicode="&#xe687;" glyph-name="toggle-collapse-all" data-tags="toggle-collapse-all" d="M146.286 365.714h585.143v-146.286h-585.143zM146.286 877.714v-73.143h804.571v-804.571h73.143v877.714h-877.714zM0 731.428v-877.714h877.714v877.714h-877.714zM73.143 658.285h731.429v-731.429h-731.429v731.429z" />
<glyph unicode="&#xe688;" glyph-name="toggle-expand" data-tags="toggle-expand" d="M365.714 585.143v-219.429h-219.429v-146.286h219.429v-219.429h146.286v219.429h219.429v146.286h-219.429v219.429h-146.286zM0 731.428v-877.714h877.714v877.714h-877.714zM73.143 658.285h731.429v-731.429h-731.429v731.429z" />
<glyph unicode="&#xe689;" glyph-name="toggle-expand-all" data-tags="toggle-expand-all" d="M146.286 877.714v-73.143h804.571v-804.571h73.143v877.714h-877.714zM0 731.428v-877.714h877.714v877.714h-877.714zM73.143 658.285h731.429v-731.429h-731.429v731.429zM365.714 585.143v-219.429h-219.429v-146.286h219.429v-219.429h146.286v219.429h219.429v146.286h-219.429v219.429h-146.286z" />
<glyph unicode="&#xe68a;" glyph-name="toggle-tree-collapsed" data-tags="toggle-tree-collapsed" horiz-adv-x="731" d="M219.429 676.571v-658.286l329.143 329.143-329.143 329.143zM292.571 493.714l155.429-146.286-155.429-146.286v292.571z" />
<glyph unicode="&#xe68b;" glyph-name="toggle-tree-expanded" data-tags="toggle-tree-expanded" horiz-adv-x="731" d="M657.478 483.764v-465.478h-465.478z" />
<glyph unicode="&#xe68c;" glyph-name="transfer-download" data-tags="transfer-download" horiz-adv-x="878" d="M0 0h877.714v-146.286h-877.714zM365.714 877.714v-438.857l-219.429 219.429v-182.857l292.571-292.571 292.571 292.571v182.857l-219.429-219.429v438.857h-146.286z" />
<glyph unicode="&#xe68d;" glyph-name="transfer-upload" data-tags="transfer-upload" horiz-adv-x="878" d="M0 731.428h877.714v146.286h-877.714zM365.714-146.286v438.857l-219.429-219.429v182.857l292.571 292.571 292.571-292.571v-182.857l-219.429 219.429v-438.857h-146.286z" />
<glyph unicode="&#xe68e;" glyph-name="triangle-down" data-tags="triangle-down" horiz-adv-x="731" d="M36.571 512l329.143-329.143 329.143 329.143z" />
<glyph unicode="&#xe68f;" glyph-name="triangle-left" data-tags="triangle-left" horiz-adv-x="731" d="M512 676.571l-329.143-329.143 329.143-329.143z" />
<glyph unicode="&#xe690;" glyph-name="triangle-right" data-tags="triangle-right" horiz-adv-x="731" d="M219.429 676.571l329.143-329.143-329.143-329.143z" />
<glyph unicode="&#xe691;" glyph-name="triangle-up" data-tags="triangle-up" horiz-adv-x="731" d="M36.571 182.857l329.143 329.143 329.143-329.143z" />
<glyph unicode="&#xe692;" glyph-name="user" data-tags="user" horiz-adv-x="731" d="M365.714 146.285l146.286 219.429h219.429v-512h-731.429v512h219.429zM146.285 658.237c0 121.125 98.206 219.477 219.429 219.477 120.979 0 219.429-98.353 219.429-219.477 0-121.173-98.45-219.38-219.429-219.38-121.222 0-219.429 98.206-219.429 219.38z" />
<glyph unicode="&#xe693;" glyph-name="users" data-tags="users" d="M950.857 475.428c0-100.989-81.868-182.857-182.857-182.857s-182.857 81.868-182.857 182.857c0 100.989 81.868 182.857 182.857 182.857s182.857-81.868 182.857-182.857zM438.857 694.857c0-100.989-81.868-182.857-182.857-182.857s-182.857 81.868-182.857 182.857c0 100.989 81.868 182.857 182.857 182.857s182.857-81.868 182.857-182.857zM0 0h438.857v292.571h73.143v146.286h-146.286l-109.714-109.714-109.714 109.714h-146.286zM1024 247.56v-393.846h-512v365.714h146.286l109.714-109.714 109.714 109.714h146.286z" />
<glyph unicode="&#xe694;" glyph-name="view-full-screen" data-tags="view-full-screen" horiz-adv-x="1170" d="M219.429 658.285v-585.143h731.429v585.143zM292.571 585.143h585.143v-438.857h-585.143zM0 146.285v-292.571h292.571v73.143h-219.429v219.428h-73.143zM1097.143 146.285v-219.428h-219.429v-73.143h292.571v292.571h-73.143zM877.714 877.714v-73.143h219.429v-219.429h73.143v292.571h-292.571zM0 877.714v-292.571h73.143v219.429h219.429v73.143h-292.571z" />
<glyph unicode="&#xe695;" glyph-name="view-full-screen-exit" data-tags="view-full-screen-exit" horiz-adv-x="1170" d="M365.714 585.143v-438.857h438.857v438.857h-438.857zM438.857 512h292.571v-292.571h-292.571v292.571zM51.719 877.714l-51.719-51.723 167.705-167.705h-94.563v-73.143h219.429v219.429h-73.143v-94.567l-167.71 167.71zM1126.585 877.714l-175.728-175.728v102.585h-73.143v-219.429h219.429v73.143h-102.585l175.728 175.728-43.701 43.701zM73.143 146.285v-73.143h94.567l-167.71-167.71 51.719-51.719 167.71 167.705v-94.562h73.143v219.429h-219.429zM877.714 146.285v-219.429h73.143v94.562l167.71-167.705 51.719 51.719-167.71 167.71h94.567v73.143h-219.429z" />
<glyph unicode="&#xe696;" glyph-name="view-list" data-tags="view-list" horiz-adv-x="1170" d="M0 804.571v-950.857h1170.286v950.857h-1170.286zM73.143 731.428h219.429v-219.429h-219.429v219.429zM365.714 731.428h731.429v-219.429h-731.429v219.429zM73.143 438.857h219.429v-219.429h-219.429v219.429zM365.714 438.857h731.429v-219.429h-731.429v219.429zM73.143 146.285h219.429v-219.429h-219.429v219.429zM365.714 146.285h731.429v-219.429h-731.429v219.429z" />
<glyph unicode="&#xe697;" glyph-name="view-list-group" data-tags="view-list-group" horiz-adv-x="1170" d="M0 804.571v-365.714h292.571v-585.143h877.714v950.857h-1170.286zM73.143 731.428h219.429v-219.429h-219.429v219.429zM365.714 731.428h731.429v-219.429h-731.429v219.429zM365.714 438.857h219.429v-219.429h-219.429v219.429zM658.286 438.857h438.857v-219.429h-438.857v219.429zM365.714 146.285h219.429v-219.429h-219.429v219.429zM658.286 146.285h438.857v-219.429h-438.857v219.429z" />
<glyph unicode="&#xe698;" glyph-name="view-list-tree" data-tags="view-list-tree" horiz-adv-x="1170" d="M0 804.571v-365.714h292.571v-292.571h292.571v-292.571h585.143v950.857h-1170.286zM73.143 731.428h219.429v-219.429h-219.429v219.429zM365.714 731.428h731.429v-219.429h-731.429v219.429zM365.714 438.857h219.429v-219.429h-219.429v219.429zM658.286 438.857h438.857v-219.429h-438.857v219.429zM658.286 146.285h219.429v-219.429h-219.429v219.429zM950.857 146.285h146.286v-219.429h-146.286v219.429z" />
<glyph unicode="&#xe699;" glyph-name="watch-eye" data-tags="watch-eye" horiz-adv-x="1170" d="M585.143 731.428c-161.583 0-292.571-130.989-292.571-292.571s130.989-292.571 292.571-292.571c161.583 0 292.571 130.989 292.571 292.571s-130.989 292.571-292.571 292.571zM475.429 585.143c60.594 0 109.714-49.121 109.714-109.714s-49.121-109.714-109.714-109.714c-60.594 0-109.714 49.121-109.714 109.714s49.121 109.714 109.714 109.714zM585.143 731.428c-253.004-0.095-472.632-146.87-582.76-362.075 110.183-222.534 329.825-369.288 582.822-369.354 252.827 0.261 472.301 147.042 582.349 362.185-110.196 222.339-329.709 369.062-582.581 369.243zM585.143 658.285c211.641-0.271 396.928-116.371 499.484-290.119-102.747-178.817-288.078-294.846-499.702-295.024-211.39 0.319-396.633 116.423-499.164 290.157 102.755 178.756 288.050 294.777 499.637 294.987z" />
<glyph unicode="&#xe69a;" glyph-name="work-item" data-tags="work-item" d="M256 877.714l-48.763-73.143h-134.094c-40.521 0-73.143-32.622-73.143-73.143v-804.571c0-40.521 32.622-73.143 73.143-73.143h658.286c40.521 0 73.143 32.622 73.143 73.143v329.143l-73.143-73.143v-256h-658.286v804.571h85.335l-48.763-73.143h585.143l-48.763 73.143h85.335v-36.571l66.692 66.692c-11.441 25.407-36.925 43.022-66.692 43.022h-134.094l-48.763 73.143h-292.571zM292.571 804.571h219.429l36.571-73.143h-292.571l36.571 73.143zM109.714 329.143l292.571-292.571 621.714 621.714-73.143 109.714-548.571-548.571-182.857 182.857z" />
<glyph unicode="&#xe69b;" glyph-name="work-item-bar" data-tags="work-item-bar" horiz-adv-x="439" d="M0 877.714h365.714v-1024h-365.714z" />
<glyph unicode="&#xe900;" glyph-name="navigate-close" data-tags="navigate-close" d="M818.312 731.428l-672.026-672.031 59.402-59.398 672.026 672.031-59.402 59.398zM205.688 731.428l-59.402-59.398 672.026-672.031 59.402 59.398-672.026 672.031z" />
</font>
</defs>
</svg>
