<?xml version="1.0" encoding="UTF-8" standalone="no"?>
<!-- Created with Inkscape (http://www.inkscape.org/) -->

<svg
   xmlns:dc="http://purl.org/dc/elements/1.1/"
   xmlns:cc="http://creativecommons.org/ns#"
   xmlns:rdf="http://www.w3.org/1999/02/22-rdf-syntax-ns#"
   xmlns:svg="http://www.w3.org/2000/svg"
   xmlns="http://www.w3.org/2000/svg"
   xmlns:sodipodi="http://sodipodi.sourceforge.net/DTD/sodipodi-0.dtd"
   xmlns:inkscape="http://www.inkscape.org/namespaces/inkscape"
   width="63.545906mm"
   height="45.223309mm"
   viewBox="0 0 63.545906 45.223309"
   version="1.1"
   id="svg29"
   inkscape:version="0.92.3 (2405546, 2018-03-11)"
   sodipodi:docname="book.svg">
  <defs
     id="defs23" />
  <sodipodi:namedview
     id="base"
     pagecolor="#ffffff"
     bordercolor="#666666"
     borderopacity="1.0"
     inkscape:pageopacity="0.0"
     inkscape:pageshadow="2"
     inkscape:zoom="1.979899"
     inkscape:cx="155.40421"
     inkscape:cy="49.428365"
     inkscape:document-units="mm"
     inkscape:current-layer="layer1"
     showgrid="false"
     fit-margin-top="0"
     fit-margin-left="0"
     fit-margin-right="0"
     fit-margin-bottom="0"
     inkscape:window-width="1920"
     inkscape:window-height="986"
     inkscape:window-x="-11"
     inkscape:window-y="-11"
     inkscape:window-maximized="1" />
  <metadata
     id="metadata26">
    <rdf:RDF>
      <cc:Work
         rdf:about="">
        <dc:format>image/svg+xml</dc:format>
        <dc:type
           rdf:resource="http://purl.org/dc/dcmitype/StillImage" />
        <dc:title></dc:title>
      </cc:Work>
    </rdf:RDF>
  </metadata>
  <g
     inkscape:label="Layer 1"
     inkscape:groupmode="layer"
     id="layer1"
     transform="translate(-71.792502,-23.412156)">
    <path
       style="fill:#020202;stroke-width:0.26458332"
       d="m 98.687006,68.047424 c -0.226531,-0.323419 -0.411877,-0.743408 -0.411877,-0.933307 0,-0.279881 -2.448441,-0.336674 -12.928166,-0.299879 -7.11049,0.02498 -13.06361,-0.03833 -13.22916,-0.140642 -0.44441,-0.274656 -0.42826,-33.788383 0.0165,-34.233133 0.17463,-0.174625 0.65088,-0.3175 1.05834,-0.3175 h 0.74083 l 0.004,-2.050521 c 0.002,-1.127786 0.10621,-2.211747 0.23108,-2.4088 0.13142,-0.207401 1.13251,-0.477828 2.3772,-0.642159 l 2.15017,-0.283878 v -1.243674 c 0,-0.833236 0.14421,-1.363513 0.43697,-1.6068 0.68132,-0.566187 7.57132,-0.648344 10.596109,-0.126351 4.30575,0.743051 8.910239,2.772901 12.403638,5.46804 l 1.41242,1.089679 1.60014,-1.231275 c 3.27057,-2.516643 7.7355,-4.490001 11.98155,-5.295463 2.16199,-0.410123 8.96747,-0.519446 10.25251,-0.164696 0.57859,0.159729 0.67803,0.363465 0.79375,1.626336 l 0.13229,1.443731 2.08797,0.287565 c 2.59575,0.3575 2.80682,0.598469 2.80682,3.20446 v 1.933806 h 0.74083 c 0.40746,0 0.88371,0.142875 1.05834,0.3175 0.42956,0.429566 0.46239,33.957551 0.0335,34.222619 -0.1562,0.09653 -6.16885,0.157311 -13.36146,0.135064 -12.86425,-0.03979 -13.07747,-0.03192 -13.07747,0.482659 0,1.211159 -0.54696,1.354658 -5.16327,1.354658 -4.176347,0 -4.346501,-0.02109 -4.743606,-0.588039 z M 102.24388,48.155299 V 31.90847 l -1.78594,-1.302591 C 97.415442,28.3868 94.580748,27.027648 91.217921,26.175558 88.811902,25.565909 84.838033,25.199935 82.730863,25.393941 l -1.91823,0.176609 v 16.629383 16.629384 l 2.05828,-0.158724 c 5.71662,-0.440835 12.925795,1.517354 17.671567,4.800032 0.71749,0.496292 1.39382,0.90891 1.50296,0.916926 0.10914,0.008 0.19844,-7.296494 0.19844,-16.232252 z m 4.43476,15.218644 c 4.72354,-3.198627 9.62807,-4.622593 16.0043,-4.646636 l 3.63802,-0.01373 V 42.138521 25.563456 l -2.05052,-0.175724 c -6.0708,-0.520251 -12.7761,1.507294 -17.99167,5.440309 l -1.38906,1.047481 v 16.263301 c 0,8.944821 0.0609,16.263307 0.13529,16.263307 0.0744,0 0.81854,-0.462685 1.65364,-1.028187 z M 93.513085,62.104025 c -2.125786,-0.925234 -4.319697,-1.223187 -9.260872,-1.257712 -2.69214,-0.01881 -5.04362,-0.126442 -5.22552,-0.239181 -0.25858,-0.160261 -0.33073,-3.636113 -0.33073,-15.932075 V 28.947963 h -0.9044 c -1.89263,0 -1.74143,-1.463634 -1.74143,16.857437 v 16.53624 l 2.44739,-0.200144 c 3.24396,-0.265285 11.596865,-0.202301 13.427606,0.10125 2.199703,0.364726 2.653565,0.325078 1.587956,-0.138721 z m 24.644885,-0.103052 c 2.69031,-0.188984 5.16889,-0.187185 8.06904,0.0059 2.30228,0.153234 4.33682,0.278617 4.52121,0.278617 0.26702,0 0.33524,-3.35943 0.33524,-16.508152 0,-18.388671 0.17342,-16.829348 -1.87166,-16.829348 h -1.03462 l -0.0682,15.941145 -0.0682,15.941147 -3.70417,-0.0929 c -4.25799,-0.106783 -7.34354,0.252119 -10.02577,1.16617 -1.06479,0.36286 -1.48043,0.582141 -0.95821,0.505523 0.50725,-0.07442 2.66966,-0.258053 4.80536,-0.408077 z"
       id="path12"
       inkscape:connector-curvature="0" />
  </g>
</svg>
